<svg width="25" height="26" viewBox="0 0 25 26" fill="none" xmlns="http://www.w3.org/2000/svg">
<path d="M23.9072 11.7638L22.242 10.0989C21.8468 9.70373 21.523 8.92275 21.523 8.36268V6.00818C21.523 4.88816 20.608 3.97318 19.4883 3.97259H17.1328C16.5734 3.97259 15.7915 3.64814 15.3963 3.25324L13.7314 1.58841C12.9404 0.797354 11.6452 0.797354 10.8541 1.58841L9.18929 3.25443C8.79373 3.64963 8.01097 3.97318 7.45274 3.97318H5.09825C3.97971 3.97318 3.06355 4.88816 3.06355 6.00818V8.36274C3.06355 8.9206 2.73976 9.70402 2.3445 10.099L0.679368 11.7638C-0.112279 12.5549 -0.112279 13.8501 0.679368 14.6424L2.3445 16.3072C2.74 16.7024 3.06355 17.4855 3.06355 18.0435V20.398C3.06355 21.5169 3.97971 22.433 5.09825 22.433H7.4528C8.01222 22.433 8.79409 22.7568 9.18935 23.1518L10.8542 24.8172C11.6452 25.6077 12.9404 25.6077 13.7315 24.8172L15.3963 23.1518C15.7919 22.7566 16.5735 22.433 17.1329 22.433H19.4883C20.6081 22.433 21.523 21.5169 21.523 20.398V18.0435C21.523 17.4832 21.8471 16.7022 22.2421 16.3072L23.9072 14.6424C24.6976 13.8501 24.6976 12.5548 23.9072 11.7638ZM10.6777 17.7806L6.18871 13.291L7.62739 11.8526L10.6781 14.9033L16.958 8.62489L18.3963 10.0633L10.6777 17.7806Z" fill="#977A1C"/>
</svg>
