<svg width="78" height="88" viewBox="0 0 78 88" fill="none" xmlns="http://www.w3.org/2000/svg">
<path d="M76.8816 41.517L73.399 40.0194V37.6382C73.448 23.0232 64.2264 9.98344 50.4303 5.1605V1.80455C50.4303 0.80841 49.6219 0 48.6263 0H29.3199C28.3243 0 27.5159 0.80841 27.5159 1.80455V5.17823C13.7197 10.0012 4.49824 23.0409 4.54716 37.6559V40.0555L1.10071 41.517C0.432946 41.7989 0 42.4538 0 43.1772V52.65C0 53.6456 0.808411 54.454 1.80455 54.454H4.15029V58.0631C4.15029 59.0586 4.95809 59.867 5.95423 59.867H12.4319C13.0471 62.1259 13.9509 64.2986 15.1201 66.3264L10.5375 70.9096C9.83729 71.6128 9.83729 72.7496 10.5375 73.4535L18.2057 81.1217C18.909 81.8219 20.0458 81.8219 20.7496 81.1217L25.3322 76.5391C27.3551 77.7083 29.5204 78.6103 31.7738 79.2273V85.705C31.7738 86.7005 32.5822 87.5089 33.5784 87.5089H44.4039C45.4 87.5089 46.2084 86.7005 46.2084 85.705V79.2273C48.4673 78.6121 50.6394 77.7101 52.6678 76.5391L57.251 81.1217C57.9542 81.8219 59.091 81.8219 59.7949 81.1217L67.4631 73.4535C68.1633 72.7496 68.1633 71.6128 67.4631 70.9096L62.8799 66.3264C64.0491 64.2986 64.9535 62.1259 65.5687 59.867H72.0458C73.0419 59.867 73.8503 59.0586 73.8503 58.0631V54.454H76.1961C77.1922 54.454 78 53.6456 78 52.65V43.1772C77.9963 42.4483 77.5548 41.7934 76.8816 41.517ZM31.0883 3.62684H46.8218V33.7765H31.1244L31.0883 3.62684ZM70.2596 56.2585H64.2515C63.3856 56.2383 62.6292 56.8376 62.447 57.6833C61.8391 60.5091 60.7207 63.1991 59.1454 65.6225C58.6813 66.3355 58.781 67.2754 59.3797 67.8777L63.692 72.1901L58.5315 77.3145L54.2192 73.0022C53.6168 72.4035 52.6769 72.3038 51.9639 72.768C49.5405 74.3426 46.8505 75.4616 44.0247 76.0695C43.1784 76.2517 42.5798 77.0081 42.5993 77.874V83.9542H35.3823V77.8196C35.4025 76.9537 34.8032 76.1979 33.9569 76.0157C31.1318 75.409 28.4411 74.2906 26.0183 72.7135C25.3053 72.25 24.3654 72.3491 23.7625 72.9483L19.4502 77.2607L14.3441 72.154L18.6564 67.8417C19.2557 67.2393 19.3548 66.2994 18.8912 65.5864C17.3013 63.1777 16.1645 60.4999 15.5353 57.6833C15.3525 56.8376 14.5966 56.2383 13.7307 56.2585H7.72271V54.454H24.2138C25.2026 62.606 32.6128 68.4122 40.7648 67.4216C47.5562 66.5973 52.9093 61.2454 53.7324 54.454H70.2418L70.2596 56.2585ZM27.8944 54.454H50.1056C49.1131 60.5923 43.3319 64.764 37.1942 63.7715C32.4055 62.9973 28.6509 59.2427 27.8767 54.454H27.8944ZM74.4099 50.8455H3.59076V44.3678L7.07267 42.8702C7.74044 42.5889 8.17339 41.934 8.17339 41.21V37.6015C8.13364 25.0002 15.8056 13.6586 27.5159 9.0032V35.5811C27.5159 36.5766 28.3237 37.385 29.3199 37.385H48.6618C49.6579 37.385 50.4663 36.5766 50.4663 35.5811V9.0032C62.1962 13.6568 69.8774 25.0204 69.8266 37.6376V41.2467C69.8266 41.9701 70.2596 42.625 70.9273 42.9063L74.4092 44.4039V50.8455H74.4099Z" fill="#FFF8F8"/>
</svg>
