<svg width="75" height="75" viewBox="0 0 75 75" fill="none" xmlns="http://www.w3.org/2000/svg">
<path d="M71.0965 67.1667H69.9979V33.3845C69.9979 31.8486 68.7487 30.5994 67.2128 30.5994H47.2768V3.7277C47.2768 1.67214 45.6047 0 43.5491 0H8.73092C6.67536 0 5.00322 1.67214 5.00322 3.7277V67.1667H3.90458C1.75124 67.1667 0 68.919 0 71.0713C0 73.2235 1.75124 74.9758 3.90458 74.9758H71.0954C73.2488 74.9758 75 73.2246 75 71.0713C75 68.9179 73.2488 67.1667 71.0965 67.1667ZM7.20051 3.7277C7.20051 2.88394 7.88716 2.19729 8.73092 2.19729H43.5491C44.3929 2.19729 45.0795 2.88394 45.0795 3.7277V30.5994H35.7015C34.1656 30.5994 32.9165 31.8486 32.9165 33.3845V58.6511C32.9165 59.2575 33.4087 59.7497 34.0151 59.7497C34.6216 59.7497 35.1137 59.2575 35.1137 58.6511V33.3845C35.1137 33.0604 35.3774 32.7967 35.7015 32.7967H46.1771H46.1782H46.1793H67.2117C67.5358 32.7967 67.7995 33.0604 67.7995 33.3845V67.1667H35.1137V63.7872C35.1137 63.1808 34.6216 62.6886 34.0151 62.6886C33.4087 62.6886 32.9165 63.1808 32.9165 63.7872V67.1667H7.20051V3.7277ZM71.0965 72.7796H3.90458C2.96304 72.7796 2.19729 72.0139 2.19729 71.0723C2.19729 70.1308 2.96304 69.3651 3.90458 69.3651H71.0954C72.037 69.3651 72.8027 70.1308 72.8027 71.0723C72.8027 72.0139 72.037 72.7796 71.0965 72.7796Z" fill="white"/>
<path d="M17.1872 6.69519H12.6795C11.4786 6.69519 10.502 7.67188 10.502 8.8727V13.3804C10.502 14.5813 11.4786 15.5579 12.6795 15.5579H17.1872C18.388 15.5579 19.3647 14.5813 19.3647 13.3804V8.8727C19.3647 7.67188 18.388 6.69519 17.1872 6.69519ZM17.1674 13.3596H12.7003V8.89248H17.1674V13.3596Z" fill="white"/>
<path d="M28.3944 6.69519H23.8866C22.6858 6.69519 21.7102 7.67188 21.7102 8.8727V13.3804C21.7102 14.5813 22.6869 15.5579 23.8866 15.5579H28.3944C29.5952 15.5579 30.5719 14.5813 30.5719 13.3804V8.8727C30.5708 7.67188 29.5941 6.69519 28.3944 6.69519ZM28.3735 13.3596H23.9064V8.89248H28.3735V13.3596Z" fill="white"/>
<path d="M35.0929 15.5568H39.6007C40.8015 15.5568 41.7782 14.5802 41.7782 13.3793V8.8727C41.7782 7.67188 40.8015 6.69519 39.6007 6.69519H35.0929C33.8921 6.69519 32.9154 7.67188 32.9154 8.8727V13.3804C32.9165 14.5802 33.8932 15.5568 35.0929 15.5568ZM35.1138 8.89248H39.5809V13.3596H35.1138V8.89248Z" fill="white"/>
<path d="M17.1872 20.4095H12.6795C11.4786 20.4095 10.502 21.3862 10.502 22.5871V27.0948C10.502 28.2956 11.4786 29.2723 12.6795 29.2723H17.1872C18.388 29.2723 19.3647 28.2956 19.3647 27.0948V22.5871C19.3647 21.3862 18.388 20.4095 17.1872 20.4095ZM17.1674 27.0739H12.7003V22.6068H17.1674V27.0739Z" fill="white"/>
<path d="M28.3944 20.4095H23.8866C22.6858 20.4095 21.7102 21.3862 21.7102 22.5871V27.0948C21.7102 28.2956 22.6869 29.2723 23.8866 29.2723H28.3944C29.5952 29.2723 30.5719 28.2956 30.5719 27.0948V22.5871C30.5708 21.3862 29.5941 20.4095 28.3944 20.4095ZM28.3735 27.0739H23.9064V22.6068H28.3735V27.0739Z" fill="white"/>
<path d="M35.0929 29.2712H39.6007C40.8015 29.2712 41.7782 28.2945 41.7782 27.0937V22.5871C41.7782 21.3862 40.8015 20.4095 39.6007 20.4095H35.0929C33.8921 20.4095 32.9154 21.3862 32.9154 22.5871V27.0948C32.9165 28.2956 33.8932 29.2712 35.0929 29.2712ZM35.1138 22.6068H39.5809V27.0739H35.1138V22.6068Z" fill="white"/>
<path d="M17.1872 34.1239H12.6795C11.4786 34.1239 10.502 35.1006 10.502 36.3014V40.8091C10.502 42.01 11.4786 42.9867 12.6795 42.9867H17.1872C18.388 42.9867 19.3647 42.01 19.3647 40.8091V36.3014C19.3647 35.1006 18.388 34.1239 17.1872 34.1239ZM17.1674 40.7894H12.7003V36.3223H17.1674V40.7894Z" fill="white"/>
<path d="M28.3944 34.1239H23.8866C22.6858 34.1239 21.7102 35.1006 21.7102 36.3014V40.8091C21.7102 42.01 22.6869 42.9867 23.8866 42.9867H28.3944C29.5952 42.9867 30.5719 42.01 30.5719 40.8091V36.3014C30.5708 35.1006 29.5941 34.1239 28.3944 34.1239ZM28.3735 40.7894H23.9064V36.3223H28.3735V40.7894Z" fill="white"/>
<path d="M17.1872 47.8392H12.6795C11.4786 47.8392 10.502 48.8159 10.502 50.0167V54.5245C10.502 55.7253 11.4786 56.702 12.6795 56.702H17.1872C18.388 56.702 19.3647 55.7253 19.3647 54.5245V50.0167C19.3647 48.8159 18.388 47.8392 17.1872 47.8392ZM17.1674 54.5036H12.7003V50.0365H17.1674V54.5036Z" fill="white"/>
<path d="M28.3944 47.8392H23.8866C22.6858 47.8392 21.7102 48.8159 21.7102 50.0167V54.5245C21.7102 55.7253 22.6869 56.702 23.8866 56.702H28.3944C29.5952 56.702 30.5719 55.7253 30.5719 54.5245V50.0167C30.5708 48.8159 29.5941 47.8392 28.3944 47.8392ZM28.3735 54.5036H23.9064V50.0365H28.3735V54.5036Z" fill="white"/>
<path d="M39.5742 44.3555H43.8425C44.8774 44.3555 45.72 43.5129 45.72 42.478V38.3174C45.72 37.2825 44.8774 36.4398 43.8425 36.4398H39.5742C38.5393 36.4398 37.6967 37.2825 37.6967 38.3174V42.478C37.6967 43.514 38.5393 44.3555 39.5742 44.3555ZM39.8939 38.6382H43.5228V42.1583H39.8939V38.6382Z" fill="white"/>
<path d="M39.5742 53.337H43.8425C44.8774 53.337 45.72 52.4943 45.72 51.4594V47.2988C45.72 46.2639 44.8774 45.4213 43.8425 45.4213H39.5742C38.5393 45.4213 37.6967 46.2639 37.6967 47.2988V51.4594C37.6967 52.4943 38.5393 53.337 39.5742 53.337ZM39.8939 47.6186H43.5228V51.1386H39.8939V47.6186Z" fill="white"/>
<path d="M39.5742 62.3173H43.8425C44.8774 62.3173 45.72 61.4747 45.72 60.4398V56.2792C45.72 55.2443 44.8774 54.4016 43.8425 54.4016H39.5742C38.5393 54.4016 37.6967 55.2443 37.6967 56.2792V60.4398C37.6967 61.4758 38.5393 62.3173 39.5742 62.3173ZM39.8939 56.6H43.5228V60.1201H39.8939V56.6Z" fill="white"/>
<path d="M49.3225 44.3555H53.5919C54.6268 44.3555 55.4694 43.5129 55.4694 42.478V38.3174C55.4694 37.2825 54.6268 36.4398 53.5919 36.4398H49.3225C48.2876 36.4398 47.4449 37.2825 47.4449 38.3174V42.478C47.4449 43.514 48.2876 44.3555 49.3225 44.3555ZM49.6422 38.6382H53.2711V42.1583H49.6422V38.6382Z" fill="white"/>
<path d="M49.3225 53.337H53.5919C54.6268 53.337 55.4694 52.4943 55.4694 51.4594V47.2988C55.4694 46.2639 54.6268 45.4213 53.5919 45.4213H49.3225C48.2876 45.4213 47.4449 46.2639 47.4449 47.2988V51.4594C47.4449 52.4943 48.2876 53.337 49.3225 53.337ZM49.6422 47.6186H53.2711V51.1386H49.6422V47.6186Z" fill="white"/>
<path d="M49.3225 62.3173H53.5919C54.6268 62.3173 55.4694 61.4747 55.4694 60.4398V56.2792C55.4694 55.2443 54.6268 54.4016 53.5919 54.4016H49.3225C48.2876 54.4016 47.4449 55.2443 47.4449 56.2792V60.4398C47.4449 61.4758 48.2876 62.3173 49.3225 62.3173ZM49.6422 56.6H53.2711V60.1201H49.6422V56.6Z" fill="white"/>
<path d="M59.0697 44.3555H63.3391C64.374 44.3555 65.2166 43.5129 65.2166 42.478V38.3174C65.2166 37.2825 64.374 36.4398 63.3391 36.4398H59.0697C58.0348 36.4398 57.1921 37.2825 57.1921 38.3174V42.478C57.1932 43.514 58.0348 44.3555 59.0697 44.3555ZM59.3905 38.6382H63.0193V42.1583H59.3905V38.6382Z" fill="white"/>
<path d="M59.0697 53.337H63.3391C64.374 53.337 65.2166 52.4943 65.2166 51.4594V47.2988C65.2166 46.2639 64.374 45.4213 63.3391 45.4213H59.0697C58.0348 45.4213 57.1921 46.2639 57.1921 47.2988V51.4594C57.1932 52.4943 58.0348 53.337 59.0697 53.337ZM59.3905 47.6186H63.0193V51.1386H59.3905V47.6186Z" fill="white"/>
<path d="M59.0697 62.3173H63.3391C64.374 62.3173 65.2166 61.4747 65.2166 60.4398V56.2792C65.2166 55.2443 64.374 54.4016 63.3391 54.4016H59.0697C58.0348 54.4016 57.1921 55.2443 57.1921 56.2792V60.4398C57.1932 61.4758 58.0348 62.3173 59.0697 62.3173ZM59.3905 56.6H63.0193V60.1201H59.3905V56.6Z" fill="white"/>
<path d="M61.2043 6.88953C58.339 6.88953 56.0077 9.22085 56.0077 12.0861C56.0077 14.9514 58.339 17.2827 61.2043 17.2827C64.0695 17.2827 66.4009 14.9514 66.4009 12.0861C66.4009 9.22085 64.0695 6.88953 61.2043 6.88953ZM61.2043 15.0854C59.5508 15.0854 58.205 13.7396 58.205 12.0861C58.205 10.4327 59.5508 9.08681 61.2043 9.08681C62.8577 9.08681 64.2036 10.4327 64.2036 12.0861C64.2036 13.7396 62.8588 15.0854 61.2043 15.0854Z" fill="white"/>
<path d="M59.9453 25.4457C60.3221 25.7203 60.7627 25.8576 61.2043 25.8576C61.646 25.8576 62.0876 25.7203 62.4634 25.4457C64.3629 24.0581 68.9212 20.2546 70.2077 14.9119C70.3494 14.3219 69.9869 13.7286 69.3969 13.5869C68.8069 13.4452 68.2137 13.8077 68.0719 14.3977C66.9348 19.1197 62.5754 22.6375 61.2043 23.645C59.4783 22.3771 54.0576 17.9265 54.0576 12.0862C54.0576 8.14532 57.2635 4.93947 61.2043 4.93947C64.3003 4.93947 67.0293 6.91374 67.995 9.85151C68.1851 10.4283 68.8058 10.7414 69.3815 10.5524C69.9583 10.3624 70.2714 9.74165 70.0825 9.16596C68.819 5.324 65.2517 2.74329 61.2043 2.74329C56.0517 2.74329 51.8604 6.93461 51.8604 12.0872C51.8604 15.0657 52.981 18.0177 55.1925 20.8621C56.935 23.1023 58.918 24.6953 59.9453 25.4457Z" fill="white"/>
</svg>
