<svg width="98" height="63" viewBox="0 0 98 63" fill="none" xmlns="http://www.w3.org/2000/svg">
<path d="M80.5534 18.2581L80.331 17.9912L69.6134 8.89677C69.2485 8.61212 68.8038 8.44842 68.3415 8.42849C67.8791 8.40856 67.422 8.53339 67.034 8.78559L61.2527 12.2766L59.7851 7.82944C59.0174 5.54797 57.5528 3.56506 55.598 2.16035C53.6432 0.755636 51.2967 0 48.8895 0C46.4824 0 44.1359 0.755636 42.1811 2.16035C40.2263 3.56506 38.7617 5.54797 37.994 7.82944L36.5264 12.2766L30.7673 8.78559C30.3679 8.54057 29.9013 8.42799 29.4341 8.46393C28.9669 8.49987 28.523 8.68249 28.1657 8.98571L17.448 17.9912C17.448 17.9912 17.3146 18.1691 17.2257 18.2581C15.2436 18.7389 13.3361 19.4869 11.5555 20.4816C7.69782 22.5942 4.55326 25.8035 2.51962 29.7034C0.485973 33.6033 -0.345404 38.0188 0.130641 42.3912C0.606686 46.7637 2.36877 50.8968 5.19401 54.2677C8.01926 57.6386 11.7807 60.096 16.0027 61.3289C18.0201 61.9011 20.1097 62.1782 22.2065 62.1516C27.4151 62.1545 32.4595 60.3288 36.4597 56.9929C36.9138 56.6155 37.1994 56.0731 37.2536 55.4852C37.3078 54.8972 37.1262 54.3118 36.7488 53.8577C36.3713 53.4036 35.829 53.118 35.241 53.0638C34.653 53.0096 34.0676 53.1912 33.6135 53.5686C30.3425 56.3076 26.1961 57.7797 21.9303 57.7167C17.6645 57.6537 13.5634 56.0596 10.3748 53.2252C7.18614 50.3907 5.1224 46.5047 4.55981 42.2757C3.99722 38.0467 4.97326 33.7563 7.30997 30.1868C9.64668 26.6174 13.1884 24.0066 17.2894 22.8305C21.3904 21.6544 25.7775 21.9914 29.6507 23.78C33.524 25.5685 36.6255 28.6896 38.3897 32.574C40.1539 36.4585 40.4632 40.8476 39.2614 44.9411C39.0963 45.5072 39.1628 46.1158 39.4464 46.6329C39.73 47.1499 40.2073 47.5332 40.7735 47.6983C41.3396 47.8635 41.9481 47.7969 42.4652 47.5134C42.9823 47.2298 43.3656 46.7524 43.5307 46.1863C44.6774 42.3346 44.739 38.2412 43.7086 34.3568C43.7086 34.2456 43.7086 34.1567 43.8642 34.0233L46.9773 20.3038C47.0766 19.85 47.0314 19.3766 46.848 18.9499C46.6645 18.5231 46.352 18.1646 45.9544 17.9245L40.4177 14.5447L42.2188 9.14136C42.6829 7.73881 43.5773 6.51824 44.7749 5.65312C45.9724 4.788 47.4122 4.32235 48.8895 4.32235C50.3669 4.32235 51.8067 4.788 53.0042 5.65312C54.2018 6.51824 55.0962 7.73881 55.5603 9.14136L57.3614 14.5447L51.8247 17.9245C51.427 18.1646 51.1146 18.5231 50.9311 18.9499C50.7477 19.3766 50.7025 19.85 50.8018 20.3038L53.9148 34.0233C53.9148 34.1567 53.9148 34.2456 54.0705 34.3791C53.0522 38.2574 53.1138 42.3404 54.2484 46.1863C54.3061 46.4912 54.4271 46.7807 54.6035 47.0361C54.7798 47.2914 55.0077 47.5071 55.2724 47.6691C55.5371 47.8311 55.8328 47.9359 56.1405 47.9767C56.4481 48.0176 56.7609 47.9936 57.0587 47.9062C57.3565 47.8189 57.6328 47.6702 57.8697 47.4697C58.1066 47.2692 58.2989 47.0213 58.4342 46.7421C58.5695 46.4628 58.6449 46.1582 58.6554 45.848C58.666 45.5379 58.6115 45.2289 58.4954 44.9411C57.2878 40.8498 57.5907 36.4609 59.3487 32.5742C61.1067 28.6876 64.2028 25.5621 68.0727 23.7675C71.9425 21.9728 76.3284 21.6286 80.4309 22.7975C84.5334 23.9664 88.0792 26.5706 90.422 30.1354C92.7649 33.7002 93.7487 37.9882 93.1942 42.2177C92.6397 46.4473 90.5837 50.3367 87.4012 53.1771C84.2186 56.0175 80.1213 57.6196 75.8561 57.6915C71.591 57.7633 67.442 56.3001 64.1656 53.5686C63.7115 53.1912 63.1261 53.0096 62.5381 53.0638C61.9501 53.118 61.4077 53.4036 61.0303 53.8577C60.6529 54.3118 60.4713 54.8972 60.5255 55.4852C60.5797 56.0731 60.8653 56.6155 61.3194 56.9929C65.3196 60.3288 70.3639 62.1545 75.5726 62.1516C77.6961 62.1558 79.8087 61.8487 81.8431 61.24C86.5509 59.846 90.6649 56.9331 93.5435 52.9556C96.4221 48.9782 97.9032 44.1598 97.756 39.2522C97.6087 34.3446 95.8413 29.6237 92.7295 25.826C89.6176 22.0282 85.3363 19.3672 80.5534 18.2581Z" fill="white"/>
</svg>
