<svg width="71" height="86" viewBox="0 0 71 86" fill="none" xmlns="http://www.w3.org/2000/svg">
<path d="M50.4171 54.2613C49.9696 53.2173 48.943 52.5404 47.8071 52.5403H12.78C5.72537 52.5489 0.00860656 58.2657 0 65.3203V79.5203C0 82.6573 2.54302 85.2003 5.68 85.2003H22.1108C22.8882 85.199 23.6313 84.8805 24.1684 84.3185L49.8619 57.3385C50.6458 56.5161 50.8642 55.3058 50.4171 54.2613ZM22.1108 82.3603H5.68C4.11151 82.3603 2.84 81.0888 2.84 79.5203V65.3203C2.84626 59.8332 7.29289 55.3865 12.78 55.3803H47.8071L22.1108 82.3603Z" fill="white"/>
<path d="M33.3445 85.2004H65.3201C68.457 85.2004 71.0001 82.6574 71.0001 79.5204V65.3204C70.9742 58.6489 65.8416 53.1095 59.1913 52.5759C58.3434 52.5125 57.5127 52.838 56.9335 53.4606L31.2883 80.4022C30.5052 81.2249 30.2875 82.435 30.7349 83.479C31.1823 84.523 32.2087 85.2001 33.3445 85.2004ZM58.9897 55.4188L58.9783 55.4088C64.1494 55.825 68.1399 60.1327 68.1601 65.3204V79.5204C68.1601 81.0889 66.8886 82.3604 65.3201 82.3604H33.3445L58.9897 55.4188Z" fill="white"/>
<path d="M65.32 72.4205C65.32 71.6362 64.6842 71.0005 63.9 71.0005C63.1158 71.0005 62.48 71.6362 62.48 72.4205V76.6805H56.8C56.0158 76.6805 55.38 77.3162 55.38 78.1005C55.38 78.8847 56.0158 79.5205 56.8 79.5205H63.9C64.6842 79.5205 65.32 78.8847 65.32 78.1005V72.4205Z" fill="white"/>
<path d="M9.94006 63.9003V71.7103C9.94206 72.6037 10.3625 73.4446 11.0761 73.9823L15.3361 77.1759C16.3471 77.9295 17.733 77.9295 18.7441 77.1759L23.0041 73.9809C23.7176 73.4432 24.1381 72.6023 24.1401 71.7089V63.9003C24.1401 62.3318 22.8686 61.0603 21.3001 61.0603H12.7801C11.2116 61.0603 9.94006 62.3318 9.94006 63.9003ZM21.3001 71.7103L17.0401 74.9053L12.7801 71.7103V63.9003H21.3001V71.7103Z" fill="white"/>
<path d="M37.3602 0.156554C36.1293 -0.0521847 34.872 -0.0521847 33.6412 0.156554C27.4968 1.19741 12.9305 4.31715 10.3816 10.8066C9.70565 12.5106 9.30522 15.5011 13.1832 17.7986C12.9157 18.2889 12.7769 18.839 12.78 19.3976C12.8548 20.8478 13.6812 22.1538 14.9597 22.8425C14.46 24.653 14.2045 26.5222 14.2 28.4004C14.2 40.164 23.7363 49.7004 35.5 49.7004C47.2636 49.7004 56.8 40.164 56.8 28.4004C56.7955 26.5222 56.54 24.653 56.0403 22.8425C57.3187 22.1538 58.1451 20.8478 58.22 19.3976C58.2202 18.8414 58.0733 18.2952 57.794 17.8143C61.7018 15.5266 61.2971 12.5177 60.6183 10.808C58.0694 4.31715 43.5031 1.19741 37.3602 0.156554ZM53.96 28.4004C53.96 38.5955 45.6951 46.8604 35.5 46.8604C25.3048 46.8604 17.04 38.5955 17.04 28.4004C17.04 26.9654 17.2096 25.5355 17.5455 24.1404C19.4576 24.849 21.4261 25.3952 23.43 25.7734C27.4026 26.5807 31.4461 26.9884 35.5 26.9903C39.5538 26.9879 43.5972 26.5802 47.57 25.7734C49.5746 25.3976 51.544 24.8537 53.4573 24.1475C53.7916 25.5404 53.9603 26.9679 53.96 28.4004ZM55.5347 15.795C50.7082 13.1396 40.5907 12.7804 35.5 12.7804C35.4261 12.7804 33.6738 12.7804 31.1675 12.9096C30.6602 12.9349 30.205 13.229 29.9733 13.6811C29.7416 14.1331 29.7687 14.6744 30.0443 15.1011C30.3199 15.5277 30.8022 15.7749 31.3095 15.7496C33.7406 15.6204 35.4829 15.6204 35.5 15.6204C43.9475 15.6204 51.7803 16.8089 54.43 18.3184C54.5759 18.478 54.7566 18.602 54.9582 18.6805C55.1992 18.8474 55.3549 19.1116 55.3842 19.4032C55.3842 19.4813 55.2891 21.3259 47.0062 22.9958C39.4161 24.5416 31.5923 24.5416 24.0022 22.9958C15.7151 21.3202 15.62 19.4757 15.62 19.3976C15.62 18.7458 17.4404 17.2676 24.3288 16.346C25.0961 16.2311 25.6292 15.5217 25.526 14.7527C25.4228 13.9838 24.7215 13.44 23.9511 13.5315C21.0045 13.7925 18.1236 14.5516 15.4311 15.7766C12.0913 14.2146 12.7132 12.6341 13.0256 11.8474C14.6757 7.63995 25.418 4.42933 34.1155 2.95679C35.032 2.80201 35.9679 2.80201 36.8845 2.95679C45.582 4.42933 56.3243 7.63995 57.9786 11.8517C58.2682 12.5801 58.9186 14.2359 55.5347 15.795Z" fill="white"/>
</svg>
