<svg width="78" height="75" viewBox="0 0 78 75" fill="none" xmlns="http://www.w3.org/2000/svg">
<path d="M73.8177 48.6443H71.6466V44.3249V38.8629V33.4008C71.6466 32.7723 71.1324 32.2581 70.5039 32.2581H59.3056V27.9387V22.4767C59.3056 21.8482 58.7914 21.334 58.1629 21.334H57.1916C55.5575 15.4606 52.0495 10.1585 47.2388 6.34192C42.051 2.18254 35.7776 0 29.1271 0C25.5848 0 22.111 0.628479 18.8315 1.87401C18.2373 2.10255 17.9402 2.75388 18.1688 3.34808C18.3973 3.94228 19.0486 4.23938 19.6428 4.01084C22.3167 3.00527 25.1163 2.43393 27.9959 2.30823V26.3733L10.9698 9.35862C12.0439 8.37591 13.1981 7.47319 14.4436 6.66188C14.9692 6.31907 15.1178 5.6106 14.775 5.08497C14.4322 4.55933 13.7237 4.41078 13.1981 4.75359C4.93642 10.1471 0 19.2657 0 29.1271C0 36.5432 2.78816 43.605 7.85027 49.0214C8.06738 49.2499 8.2845 49.4784 8.51303 49.707C8.52446 49.7184 8.52446 49.7184 8.53589 49.7298C8.54731 49.7413 8.54731 49.7413 8.55874 49.7527C13.2666 54.4491 19.38 57.3744 25.9733 58.0943V70.3325C25.9733 72.6407 27.8473 74.5148 30.1556 74.5148H64.4477C65.0761 74.5148 65.5904 74.0005 65.5904 73.3721C65.5904 72.7436 65.0761 72.2294 64.4477 72.2294H30.1556C29.1043 72.2294 28.2587 71.3724 28.2587 70.3325V52.8265C28.2587 51.7752 29.1157 50.9296 30.1556 50.9296H33.4694H45.8218H58.1629H70.5153H73.8291C74.8804 50.9296 75.726 51.7867 75.726 52.8265V70.3211C75.726 71.3724 74.869 72.2179 73.8291 72.2179H70.5382C69.9097 72.2179 69.3955 72.7322 69.3955 73.3606C69.3955 73.9891 69.9097 74.5033 70.5382 74.5033H73.8177C76.1259 74.5033 78 72.6293 78 70.3211V52.8265C78.0114 50.5183 76.1259 48.6443 73.8177 48.6443ZM34.6006 43.1708V39.9941H44.6677V43.1708H34.6006ZM46.9531 23.5965H57.0202V26.7732H46.9531V23.5965ZM57.0202 43.1708H46.9531V39.9941H57.0202V43.1708ZM57.0202 37.7087H46.9531V34.5321H57.0202V37.7087ZM69.3727 43.1708H59.3056V39.9941H69.3727V43.1708ZM57.0202 32.2353H46.9531V29.0586H57.0202V32.2353ZM69.3727 37.7087H59.3056V34.5321H69.3727V37.7087ZM2.28538 29.1271C2.28538 22.3053 4.845 15.8605 9.35862 10.9698L27.516 29.1271L9.38148 47.2616C4.9707 42.4623 2.28538 36.0747 2.28538 29.1271ZM25.9619 52.8265V55.7861C20.2142 55.1119 15.0264 52.598 10.9927 48.8842L29.9385 29.9385L29.9499 29.927C29.9727 29.9042 29.9842 29.8927 30.007 29.8699C30.0184 29.8585 30.0184 29.8585 30.0299 29.847C30.0527 29.8242 30.0641 29.7899 30.087 29.767C30.0984 29.7556 30.0984 29.7442 30.0984 29.7442C30.1099 29.7213 30.1213 29.7099 30.1327 29.6871C30.1441 29.6756 30.1441 29.6642 30.1556 29.6528C30.167 29.6299 30.1784 29.6185 30.1784 29.5956C30.1784 29.5842 30.1898 29.5728 30.1898 29.5614C30.2013 29.5271 30.2127 29.5042 30.2241 29.47C30.2241 29.4585 30.2241 29.4471 30.2356 29.4357C30.247 29.4128 30.247 29.39 30.247 29.3671C30.247 29.3557 30.247 29.3443 30.2584 29.3328C30.2584 29.31 30.2698 29.2871 30.2698 29.2643C30.2698 29.2528 30.2698 29.2414 30.2698 29.23C30.2698 29.1957 30.2698 29.1728 30.2698 29.1386C30.2698 29.1386 30.2698 29.1386 30.2698 29.1271V2.30823C41.6967 2.78816 51.5124 10.3985 54.8148 21.2997H45.8104C45.5019 21.2997 45.2162 21.4254 44.9991 21.6311C44.782 21.8482 44.6677 22.1339 44.6677 22.4424V27.9045V33.3665V37.6859H33.4579C32.8295 37.6859 32.3152 38.2001 32.3152 38.8286V44.2906V48.6443H30.1441C27.8473 48.6443 25.9619 50.5183 25.9619 52.8265ZM34.6006 48.6443V45.4676H44.6677V48.6443H34.6006ZM46.9531 45.4562H57.0202V48.6443H46.9531V45.4562ZM59.3056 48.6443V45.4676H69.3727V48.6443H59.3056Z" fill="white"/>
<path d="M50.1069 57.0888C50.7354 57.0888 51.2496 56.5746 51.2496 55.9462C51.2496 55.3177 50.7354 54.8035 50.1069 54.8035H45.3419C44.7134 54.8035 44.1992 55.3177 44.1992 55.9462V61.6025V67.2588C44.1992 67.8873 44.7134 68.4015 45.3419 68.4015H50.1069C50.7354 68.4015 51.2496 67.8873 51.2496 67.2588C51.2496 66.6303 50.7354 66.1161 50.1069 66.1161H46.4846V62.7452H49.7527C50.3812 62.7452 50.8954 62.2309 50.8954 61.6025C50.8954 60.974 50.3812 60.4598 49.7527 60.4598H46.4846V57.0888H50.1069Z" fill="white"/>
<path d="M32.1324 67.0759C32.1324 67.1559 32.1438 67.2359 32.1553 67.3159C32.1667 67.6016 32.2924 67.8644 32.4866 68.0701C32.7037 68.2872 32.9894 68.4014 33.2865 68.4014C33.3779 68.4014 35.6176 68.39 36.5089 68.3786C38.1429 68.3557 39.5942 67.613 40.5997 66.2989C41.5139 65.1105 42.0167 63.4765 42.0167 61.7167C42.0167 57.7173 39.7656 55.032 36.4061 55.032H33.2637C32.9551 55.032 32.6695 55.1577 32.4524 55.3634C32.2352 55.5805 32.121 55.8661 32.121 56.1747C32.121 56.1747 32.121 56.1747 32.121 56.1861V67.0759H32.1324ZM36.4175 57.3174C38.8743 57.3174 39.7427 59.5913 39.7427 61.7167C39.7427 63.7964 38.7257 66.0475 36.486 66.0818C36.0175 66.0932 35.1491 66.0932 34.4406 66.1046C34.4406 64.802 34.4292 62.7109 34.4292 61.7053C34.4292 60.8597 34.4292 58.6772 34.4178 57.3174H36.4175Z" fill="white"/>
<path d="M57.9686 54.7004H54.6548C54.0264 54.7004 53.5121 55.2146 53.5121 55.8431V61.0995V67.2586C53.5121 67.5671 53.6378 67.8528 53.8435 68.0699C54.0606 68.287 54.3463 68.4013 54.6548 68.4013C54.6891 68.4013 57.7172 68.3899 58.54 68.3899C60.8596 68.3899 62.7565 66.5044 62.7565 64.1733C62.7565 62.7564 62.048 61.4994 60.9739 60.7338C61.4538 60.1054 61.7281 59.3169 61.7281 58.4713C61.7395 56.3916 60.0483 54.7004 57.9686 54.7004ZM57.9686 56.9858C58.7914 56.9858 59.4541 57.6486 59.4541 58.4713C59.4541 59.294 58.7914 59.9568 57.9686 59.9568C57.7287 59.9568 57.283 59.9568 56.7917 59.9568H55.7975V56.9858H57.9686ZM58.54 66.0931C58.0372 66.0931 56.746 66.093 55.7861 66.1045V62.2422C56.1061 62.2422 56.4489 62.2422 56.7802 62.2422H58.54C59.6027 62.2422 60.4711 63.1106 60.4711 64.1733C60.4711 65.236 59.6141 66.0931 58.54 66.0931Z" fill="white"/>
<path d="M70.6867 57.0315C71.3152 57.0315 71.8294 56.5173 71.8294 55.8888C71.8294 55.2603 71.3152 54.7461 70.6867 54.7461H64.3791C63.7506 54.7461 63.2364 55.2603 63.2364 55.8888C63.2364 56.5173 63.7506 57.0315 64.3791 57.0315H66.3902V67.3042C66.3902 67.9327 66.9044 68.4469 67.5329 68.4469C68.1614 68.4469 68.6756 67.9327 68.6756 67.3042V57.0315H70.6867Z" fill="white"/>
</svg>
