<svg width="240" height="139" viewBox="0 0 240 139" fill="none" xmlns="http://www.w3.org/2000/svg">
<path d="M8.94636 106.685V115.098C8.94636 116.912 9.15214 118.043 9.56372 118.481C10.1178 119.104 10.9567 119.419 12.0886 119.419H13.2283V120.203H0.485352V119.419H1.60135C2.85982 119.419 3.7542 119.019 4.30032 118.227C4.59317 117.789 4.73564 116.743 4.73564 115.098V96.435C4.73564 94.6202 4.53777 93.4899 4.14203 93.0516C3.57215 92.4287 2.72526 92.1134 1.60135 92.1134H0.485352V91.3291H11.3841C14.0435 91.3291 16.141 91.5982 17.6765 92.1288C19.212 92.6594 20.5021 93.5591 21.5548 94.8202C22.6074 96.0813 23.1377 97.5807 23.1377 99.3109C23.1377 101.672 22.3383 103.586 20.7395 105.063C19.1407 106.539 16.8771 107.277 13.9565 107.277C13.2362 107.277 12.4685 107.231 11.6295 107.131C10.7905 107.031 9.89614 106.877 8.94636 106.685ZM8.94636 105.47C9.72202 105.616 10.4106 105.716 11.0042 105.793C11.6058 105.862 12.1123 105.901 12.5397 105.901C14.0594 105.901 15.3732 105.332 16.4734 104.186C17.5736 103.048 18.1276 101.564 18.1276 99.7415C18.1276 98.4881 17.8664 97.3347 17.3361 96.2581C16.8058 95.1893 16.0618 94.3819 15.0962 93.8513C14.1306 93.3207 13.0384 93.0516 11.8036 93.0516C11.0596 93.0516 10.1019 93.19 8.93053 93.4591V105.47H8.94636Z" fill="url(#paint0_linear_8_1024)"/>
<path d="M38.1284 104.185L49.0905 114.774C50.8872 116.519 52.4227 117.711 53.697 118.342C54.9713 118.972 56.2377 119.334 57.512 119.418V120.203H43.3681V119.418C44.215 119.418 44.8244 119.28 45.1964 119.003C45.5684 118.726 45.7584 118.419 45.7584 118.08C45.7584 117.742 45.6871 117.434 45.5526 117.165C45.418 116.896 44.959 116.389 44.1833 115.65L33.9256 105.792V115.097C33.9256 116.558 34.0206 117.527 34.2106 117.996C34.3609 118.349 34.6617 118.657 35.1287 118.911C35.754 119.249 36.4188 119.426 37.1232 119.426H38.1363V120.21H25.4567V119.426H26.5094C27.7362 119.426 28.6306 119.08 29.1846 118.38C29.5329 117.926 29.707 116.835 29.707 115.097V96.4341C29.707 94.9731 29.612 93.9965 29.4221 93.5198C29.2796 93.1814 28.9788 92.8815 28.5198 92.6278C27.8787 92.2894 27.2059 92.1203 26.5015 92.1203H25.4488V91.3359H38.1205V92.1203H37.1074C36.4188 92.1203 35.754 92.2818 35.1129 92.6124C34.6617 92.8431 34.3451 93.1814 34.171 93.6351C33.9969 94.0888 33.9098 95.0269 33.9098 96.4495V105.293C34.2026 105.023 35.1999 104.124 36.9095 102.586C41.2548 98.7256 43.8746 96.1419 44.7769 94.8501C45.1727 94.281 45.3705 93.7889 45.3705 93.3583C45.3705 93.0353 45.2202 92.7431 44.9115 92.4971C44.6028 92.251 44.0883 92.128 43.3522 92.128H42.6716V91.3436H53.5941V92.128C52.953 92.1433 52.3673 92.2279 51.837 92.3817C51.3067 92.5355 50.6656 92.8431 49.9058 93.2891C49.1459 93.7351 48.212 94.4579 47.096 95.4499C46.7715 95.7344 45.2914 97.1877 42.6478 99.8175L38.1284 104.185Z" fill="url(#paint1_linear_8_1024)"/>
<path d="M77.7266 90.6602V100.649H76.9193C76.6581 98.7342 76.1832 97.204 75.5025 96.0736C74.8219 94.9356 73.8562 94.0359 72.5978 93.3669C71.3393 92.6979 70.0413 92.3672 68.6957 92.3672C67.1761 92.3672 65.9176 92.8209 64.9204 93.7206C63.9231 94.6203 63.4324 95.6507 63.4324 96.7964C63.4324 97.6731 63.749 98.4805 64.3742 99.2033C65.2765 100.264 67.4373 101.687 70.8407 103.463C73.6188 104.909 75.5105 106.024 76.5315 106.801C77.5446 107.577 78.3282 108.485 78.8743 109.538C79.4204 110.592 79.6974 111.691 79.6974 112.837C79.6974 115.021 78.8268 116.912 77.0776 118.496C75.3284 120.08 73.0806 120.873 70.3341 120.873C69.4714 120.873 68.6562 120.811 67.8963 120.68C67.4452 120.611 66.5033 120.35 65.0786 119.904C63.654 119.458 62.7517 119.235 62.3718 119.235C62.0077 119.235 61.7148 119.342 61.509 119.558C61.2953 119.773 61.137 120.211 61.0341 120.88H60.2268V110.976H61.0341C61.4141 113.052 61.9285 114.598 62.5696 115.628C63.2107 116.659 64.2001 117.512 65.5219 118.197C66.8437 118.881 68.2921 119.219 69.8751 119.219C71.7034 119.219 73.1439 118.75 74.2045 117.812C75.2651 116.874 75.7954 115.767 75.7954 114.49C75.7954 113.783 75.5975 113.06 75.1939 112.337C74.7902 111.614 74.1649 110.938 73.318 110.315C72.7482 109.884 71.1889 108.984 68.6483 107.6C66.1076 106.216 64.2951 105.109 63.2187 104.286C62.1422 103.463 61.327 102.556 60.773 101.556C60.2189 100.564 59.9419 99.4724 59.9419 98.2728C59.9419 96.1967 60.7571 94.4127 62.3955 92.9132C64.0339 91.4137 66.1155 90.6678 68.6403 90.6678C70.2154 90.6678 71.8934 91.0446 73.6584 91.7982C74.4736 92.1519 75.0514 92.3288 75.3917 92.3288C75.7716 92.3288 76.0803 92.2211 76.3257 91.9981C76.5631 91.7751 76.761 91.3368 76.9035 90.6678H77.7266V90.6602Z" fill="url(#paint2_linear_8_1024)"/>
<path d="M119.082 112.222L119.802 112.368L117.261 120.203H94.2369V119.419H95.3529C96.6114 119.419 97.5058 119.019 98.0519 118.227C98.3606 117.774 98.511 116.72 98.511 115.075V96.435C98.511 94.6279 98.3052 93.5053 97.8936 93.0516C97.3237 92.4287 96.4769 92.1134 95.3529 92.1134H94.2369V91.3291H107.7V92.1134C106.117 92.0981 105.017 92.2365 104.376 92.5364C103.743 92.8363 103.307 93.213 103.07 93.6667C102.832 94.1204 102.722 95.2046 102.722 96.9271V115.075C102.722 116.251 102.84 117.066 103.07 117.504C103.244 117.804 103.513 118.027 103.877 118.166C104.241 118.312 105.381 118.381 107.296 118.381H109.465C111.745 118.381 113.343 118.22 114.269 117.889C115.196 117.558 116.035 116.982 116.794 116.151C117.562 115.321 118.314 114.013 119.082 112.222Z" fill="url(#paint3_linear_8_1024)"/>
<path d="M130.155 92.8969V104.316H136.693C138.386 104.316 139.518 104.07 140.088 103.57C140.848 102.916 141.275 101.763 141.362 100.117H142.17V110.168H141.362C141.157 108.761 140.951 107.861 140.745 107.461C140.484 106.961 140.048 106.577 139.455 106.292C138.853 106.008 137.935 105.869 136.693 105.869H130.155V115.389C130.155 116.665 130.21 117.442 130.329 117.719C130.448 117.996 130.653 118.219 130.946 118.38C131.239 118.542 131.793 118.626 132.608 118.626H137.65C139.328 118.626 140.555 118.511 141.315 118.288C142.075 118.057 142.811 117.611 143.507 116.95C144.41 116.073 145.344 114.743 146.293 112.967H147.172L144.607 120.21H121.694V119.426H122.747C123.451 119.426 124.116 119.264 124.741 118.934C125.208 118.703 125.525 118.365 125.691 117.911C125.857 117.457 125.944 116.527 125.944 115.12V96.3572C125.944 94.5271 125.754 93.3967 125.374 92.9738C124.852 92.4048 123.973 92.1203 122.747 92.1203H121.694V91.3359H144.607L144.94 97.6645H144.085C143.776 96.1419 143.436 95.1038 143.064 94.5348C142.692 93.9658 142.138 93.5352 141.41 93.2353C140.824 93.02 139.795 92.9123 138.315 92.9123H130.155V92.8969Z" fill="url(#paint4_linear_8_1024)"/>
<path d="M175.752 90.6602L176.52 99.78H175.752C174.977 97.5039 173.979 95.7968 172.753 94.6434C170.988 92.9824 168.708 92.1519 165.938 92.1519C162.155 92.1519 159.274 93.6053 157.303 96.5196C155.649 98.9726 154.825 101.902 154.825 105.293C154.825 108.046 155.372 110.561 156.472 112.837C157.572 115.113 159.005 116.774 160.777 117.835C162.55 118.889 164.379 119.419 166.247 119.419C167.339 119.419 168.399 119.281 169.428 119.012C170.449 118.743 171.439 118.343 172.389 117.82V109.469C172.389 108.023 172.278 107.07 172.048 106.624C171.819 106.178 171.47 105.839 170.996 105.601C170.521 105.37 169.682 105.247 168.487 105.247V104.44H179.995V105.247H179.449C178.309 105.247 177.525 105.616 177.106 106.355C176.813 106.877 176.663 107.916 176.663 109.469V118.312C174.985 119.188 173.323 119.834 171.684 120.25C170.046 120.657 168.225 120.865 166.223 120.865C160.477 120.865 156.116 119.073 153.132 115.497C150.892 112.814 149.776 109.715 149.776 106.208C149.776 103.663 150.401 101.233 151.66 98.9034C153.147 96.1351 155.197 94.0051 157.801 92.5133C159.978 91.2753 162.55 90.6602 165.518 90.6602C166.603 90.6602 167.584 90.7447 168.471 90.9139C169.357 91.0831 170.608 91.4599 172.23 92.0443C173.046 92.3442 173.6 92.4903 173.877 92.4903C174.154 92.4903 174.391 92.3672 174.589 92.1212C174.787 91.8751 174.905 91.383 174.953 90.6602H175.752Z" fill="url(#paint5_linear_8_1024)"/>
<path d="M201.167 110.538H189.659L187.641 115.098C187.142 116.22 186.897 117.059 186.897 117.612C186.897 118.051 187.11 118.443 187.546 118.773C187.973 119.104 188.907 119.327 190.34 119.427V120.211H180.976V119.427C182.219 119.212 183.018 118.935 183.39 118.597C184.134 117.912 184.965 116.528 185.868 114.444L196.323 90.668H197.091L207.444 114.698C208.275 116.628 209.035 117.881 209.715 118.458C210.396 119.035 211.338 119.358 212.557 119.427V120.211H200.827V119.427C202.014 119.373 202.813 119.181 203.225 118.85C203.645 118.527 203.85 118.127 203.85 117.658C203.85 117.036 203.557 116.044 202.972 114.698L201.167 110.538ZM200.55 108.961L195.508 97.2887L190.332 108.961H200.55Z" fill="url(#paint6_linear_8_1024)"/>
<path d="M238.794 112.222L239.515 112.368L236.974 120.203H213.95V119.419H215.066C216.324 119.419 217.219 119.019 217.765 118.227C218.073 117.774 218.224 116.72 218.224 115.075V96.435C218.224 94.6279 218.018 93.5053 217.606 93.0516C217.037 92.4287 216.19 92.1134 215.066 92.1134H213.95V91.3291H227.413V92.1134C225.83 92.0981 224.73 92.2365 224.089 92.5364C223.455 92.8363 223.02 93.213 222.783 93.6667C222.545 94.1204 222.434 95.2046 222.434 96.9271V115.075C222.434 116.251 222.553 117.066 222.783 117.504C222.957 117.804 223.226 118.027 223.59 118.166C223.954 118.312 225.094 118.381 227.009 118.381H229.178C231.457 118.381 233.056 118.22 233.982 117.889C234.9 117.566 235.747 116.982 236.507 116.151C237.267 115.321 238.027 114.013 238.794 112.222Z" fill="url(#paint7_linear_8_1024)"/>
<path d="M33.4429 135.836H29.1452L28.3537 137.966H26.9923L30.554 128.446H32.042L35.5879 137.966H34.2344L33.4429 135.836ZM33.0788 134.821L31.298 129.984L29.5172 134.821H33.0788Z" fill="#6B6D6B"/>
<path d="M43.012 128.977C43.7955 129.369 44.405 129.923 44.8245 130.645C45.244 131.368 45.4577 132.222 45.4577 133.198C45.4577 134.175 45.244 135.029 44.8245 135.744C44.405 136.467 43.8034 137.012 43.012 137.389C42.2284 137.766 41.2944 137.958 40.218 137.958H37.147V128.385H40.218C41.2944 128.392 42.2205 128.585 43.012 128.977ZM43.1307 135.951C43.8034 135.298 44.1359 134.375 44.1359 133.198C44.1359 132.007 43.7955 131.076 43.1228 130.407C42.45 129.738 41.4765 129.407 40.218 129.407H38.4372V136.936H40.218C41.4923 136.936 42.4579 136.605 43.1307 135.951Z" fill="#6B6D6B"/>
<path d="M55.288 128.393L51.568 137.966H50.08L46.36 128.393H47.7293L50.824 136.651L53.9187 128.393H55.288Z" fill="#6B6D6B"/>
<path d="M58.6676 137.436C57.9157 137.02 57.3142 136.436 56.8789 135.69C56.4435 134.944 56.2219 134.106 56.2219 133.168C56.2219 132.23 56.4435 131.392 56.8789 130.646C57.3142 129.9 57.9157 129.315 58.6676 128.9C59.4195 128.485 60.2585 128.277 61.1687 128.277C62.0948 128.277 62.9337 128.485 63.6857 128.9C64.4376 129.315 65.0312 129.892 65.4665 130.638C65.9018 131.384 66.1155 132.222 66.1155 133.168C66.1155 134.114 65.9018 134.952 65.4665 135.698C65.0312 136.436 64.4376 137.02 63.6857 137.436C62.9337 137.851 62.0948 138.058 61.1687 138.058C60.2585 138.058 59.4275 137.851 58.6676 137.436ZM63.0287 136.513C63.5828 136.198 64.0102 135.759 64.3268 135.183C64.6434 134.606 64.8017 133.937 64.8017 133.176C64.8017 132.407 64.6434 131.738 64.3268 131.161C64.0102 130.592 63.5828 130.146 63.0366 129.838C62.4905 129.523 61.8652 129.369 61.1687 129.369C60.4722 129.369 59.8469 129.523 59.3008 129.838C58.7547 130.154 58.3194 130.592 58.0107 131.161C57.6941 131.738 57.5358 132.407 57.5358 133.176C57.5358 133.937 57.6941 134.606 58.0107 135.183C58.3273 135.759 58.7626 136.205 59.3087 136.513C59.8549 136.82 60.4801 136.982 61.1687 136.982C61.8573 136.974 62.4826 136.82 63.0287 136.513Z" fill="#6B6D6B"/>
<path d="M67.9913 130.653C68.4266 129.907 69.0202 129.323 69.7642 128.9C70.5082 128.477 71.3472 128.27 72.2574 128.27C73.3338 128.27 74.2678 128.523 75.0751 129.023C75.8745 129.523 76.4602 130.238 76.8322 131.169H75.2809C75.0039 130.592 74.616 130.146 74.1016 129.838C73.5871 129.523 72.9697 129.369 72.2574 129.369C71.5688 129.369 70.9514 129.523 70.4053 129.838C69.8592 130.153 69.4318 130.592 69.1152 131.161C68.8065 131.738 68.6482 132.407 68.6482 133.175C68.6482 133.937 68.8065 134.606 69.1152 135.175C69.4239 135.744 69.8592 136.19 70.4053 136.497C70.9514 136.805 71.5688 136.966 72.2574 136.966C72.9697 136.966 73.5871 136.813 74.1016 136.505C74.616 136.197 75.0118 135.759 75.2809 135.182H76.8243C76.4602 136.098 75.8745 136.805 75.0672 137.305C74.2599 137.805 73.3259 138.051 72.2495 138.051C71.3314 138.051 70.5003 137.843 69.7563 137.428C69.0044 137.013 68.4187 136.436 67.9834 135.69C67.5481 134.944 67.3344 134.114 67.3344 133.175C67.3344 132.237 67.556 131.399 67.9913 130.653Z" fill="#6B6D6B"/>
<path d="M84.5572 135.836H80.2594L79.4679 137.966H78.1066L81.6683 128.446H83.1563L86.7021 137.966H85.3487L84.5572 135.836ZM84.1931 134.821L82.4123 129.984L80.6314 134.821H84.1931Z" fill="#6B6D6B"/>
<path d="M94.3322 128.393V129.408H91.649V137.966H90.3589V129.408H87.6599V128.393H94.3322Z" fill="#6B6D6B"/>
<path d="M97.2052 129.407V132.606H100.799V133.637H97.2052V136.935H101.218V137.966H95.9151V128.377H101.218V129.407H97.2052Z" fill="#6B6D6B"/>
<path d="M104.55 137.728C104.036 137.505 103.632 137.19 103.339 136.797C103.046 136.398 102.896 135.936 102.888 135.413H104.257C104.305 135.859 104.495 136.244 104.827 136.544C105.16 136.851 105.65 137.005 106.292 137.005C106.901 137.005 107.384 136.859 107.74 136.559C108.096 136.259 108.27 135.882 108.27 135.413C108.27 135.044 108.167 134.752 107.962 134.521C107.756 134.291 107.495 134.121 107.186 133.998C106.877 133.883 106.458 133.752 105.927 133.614C105.278 133.452 104.756 133.283 104.368 133.122C103.98 132.96 103.64 132.699 103.363 132.345C103.086 131.991 102.944 131.515 102.944 130.923C102.944 130.4 103.078 129.938 103.355 129.538C103.632 129.139 104.012 128.823 104.511 128.608C105.001 128.385 105.571 128.277 106.212 128.277C107.138 128.277 107.89 128.5 108.484 128.954C109.07 129.4 109.402 130 109.481 130.738H108.064C108.017 130.369 107.819 130.046 107.471 129.769C107.123 129.492 106.664 129.354 106.086 129.354C105.548 129.354 105.112 129.492 104.772 129.761C104.432 130.031 104.265 130.407 104.265 130.892C104.265 131.238 104.368 131.522 104.566 131.745C104.772 131.968 105.017 132.13 105.318 132.245C105.619 132.361 106.03 132.491 106.569 132.637C107.218 132.814 107.74 132.983 108.136 133.153C108.531 133.322 108.872 133.583 109.157 133.937C109.442 134.291 109.584 134.767 109.584 135.375C109.584 135.844 109.457 136.282 109.204 136.69C108.951 137.105 108.571 137.436 108.072 137.689C107.574 137.943 106.98 138.074 106.307 138.074C105.642 138.058 105.057 137.951 104.55 137.728Z" fill="#6B6D6B"/>
<path d="M122.81 137.966L121.52 136.705C121.037 137.189 120.522 137.551 119.976 137.782C119.43 138.012 118.813 138.135 118.124 138.135C117.443 138.135 116.842 138.012 116.32 137.782C115.797 137.543 115.394 137.205 115.101 136.767C114.816 136.328 114.673 135.813 114.673 135.229C114.673 134.56 114.871 133.975 115.259 133.46C115.647 132.945 116.225 132.553 116.992 132.26C116.692 131.914 116.47 131.591 116.343 131.299C116.209 131.007 116.145 130.684 116.145 130.338C116.145 129.938 116.248 129.569 116.462 129.246C116.676 128.923 116.976 128.669 117.372 128.485C117.768 128.3 118.227 128.208 118.742 128.208C119.248 128.208 119.691 128.3 120.071 128.5C120.451 128.692 120.728 128.962 120.918 129.3C121.108 129.646 121.187 130.023 121.171 130.446H119.881C119.889 130.069 119.786 129.777 119.557 129.561C119.327 129.346 119.042 129.238 118.678 129.238C118.298 129.238 117.998 129.338 117.768 129.546C117.538 129.754 117.42 130.015 117.42 130.338C117.42 130.615 117.499 130.876 117.649 131.138C117.808 131.392 118.069 131.707 118.433 132.084L121.377 134.952L121.63 134.567L122.588 132.999H123.973L122.818 134.952C122.659 135.229 122.469 135.513 122.256 135.821L124.472 137.974H122.81V137.966ZM119.509 136.767C119.921 136.574 120.309 136.274 120.673 135.875L117.776 133.045C116.573 133.491 115.963 134.206 115.963 135.175C115.963 135.713 116.161 136.167 116.565 136.52C116.969 136.874 117.483 137.059 118.124 137.059C118.639 137.059 119.098 136.966 119.509 136.767Z" fill="#6B6D6B"/>
<path d="M135.291 135.836H130.994L130.202 137.966H128.849L132.41 128.446H133.898L137.444 137.966H136.083L135.291 135.836ZM134.927 134.821L133.147 129.984L131.366 134.821H134.927Z" fill="#6B6D6B"/>
<path d="M140.381 137.728C139.866 137.505 139.463 137.19 139.17 136.797C138.877 136.398 138.727 135.936 138.719 135.413H140.088C140.136 135.859 140.326 136.244 140.658 136.544C140.99 136.851 141.481 137.005 142.122 137.005C142.732 137.005 143.214 136.859 143.571 136.559C143.927 136.259 144.101 135.882 144.101 135.413C144.101 135.044 143.998 134.752 143.792 134.521C143.586 134.291 143.325 134.121 143.017 133.998C142.708 133.883 142.288 133.752 141.758 133.614C141.109 133.452 140.587 133.283 140.199 133.122C139.803 132.96 139.471 132.699 139.194 132.345C138.917 131.991 138.774 131.515 138.774 130.923C138.774 130.4 138.909 129.938 139.186 129.538C139.463 129.139 139.843 128.823 140.341 128.608C140.84 128.385 141.402 128.277 142.043 128.277C142.969 128.277 143.721 128.5 144.315 128.954C144.9 129.4 145.233 130 145.312 130.738H143.895C143.848 130.369 143.65 130.046 143.302 129.769C142.953 129.492 142.494 129.354 141.916 129.354C141.378 129.354 140.943 129.492 140.603 129.761C140.262 130.031 140.096 130.407 140.096 130.892C140.096 131.238 140.199 131.522 140.397 131.745C140.603 131.968 140.848 132.13 141.149 132.245C141.449 132.361 141.861 132.491 142.399 132.637C143.048 132.814 143.571 132.983 143.966 133.153C144.362 133.322 144.702 133.583 144.987 133.937C145.272 134.291 145.415 134.767 145.415 135.375C145.415 135.844 145.288 136.282 145.035 136.69C144.782 137.105 144.402 137.436 143.903 137.689C143.404 137.943 142.811 138.074 142.138 138.074C141.473 138.058 140.895 137.951 140.381 137.728Z" fill="#6B6D6B"/>
<path d="M148.676 137.728C148.161 137.505 147.758 137.19 147.465 136.797C147.172 136.398 147.021 135.936 147.014 135.413H148.383C148.43 135.859 148.62 136.244 148.953 136.544C149.285 136.851 149.776 137.005 150.417 137.005C151.026 137.005 151.509 136.859 151.865 136.559C152.222 136.259 152.396 135.882 152.396 135.413C152.396 135.044 152.293 134.752 152.087 134.521C151.881 134.291 151.62 134.121 151.311 133.998C151.003 133.883 150.583 133.752 150.053 133.614C149.404 133.452 148.881 133.283 148.494 133.122C148.098 132.96 147.765 132.699 147.488 132.345C147.211 131.991 147.069 131.515 147.069 130.923C147.069 130.4 147.204 129.938 147.481 129.538C147.758 129.139 148.137 128.823 148.636 128.608C149.135 128.385 149.697 128.277 150.338 128.277C151.264 128.277 152.016 128.5 152.609 128.954C153.195 129.4 153.527 130 153.607 130.738H152.19C152.142 130.369 151.945 130.046 151.596 129.769C151.248 129.492 150.789 129.354 150.211 129.354C149.673 129.354 149.238 129.492 148.897 129.761C148.557 130.031 148.391 130.407 148.391 130.892C148.391 131.238 148.494 131.522 148.692 131.745C148.897 131.968 149.143 132.13 149.443 132.245C149.744 132.361 150.156 132.491 150.694 132.637C151.343 132.814 151.865 132.983 152.261 133.153C152.657 133.322 152.997 133.583 153.282 133.937C153.567 134.291 153.71 134.767 153.71 135.375C153.71 135.844 153.583 136.282 153.33 136.69C153.076 137.105 152.696 137.436 152.198 137.689C151.699 137.943 151.106 138.074 150.433 138.074C149.776 138.058 149.19 137.951 148.676 137.728Z" fill="#6B6D6B"/>
<path d="M157.564 137.436C156.812 137.02 156.211 136.436 155.775 135.69C155.34 134.944 155.118 134.106 155.118 133.168C155.118 132.23 155.34 131.392 155.775 130.646C156.211 129.9 156.812 129.315 157.564 128.9C158.316 128.485 159.155 128.277 160.065 128.277C160.991 128.277 161.83 128.485 162.582 128.9C163.334 129.315 163.928 129.892 164.363 130.638C164.798 131.384 165.012 132.222 165.012 133.168C165.012 134.114 164.798 134.952 164.363 135.698C163.928 136.436 163.334 137.02 162.582 137.436C161.83 137.851 160.991 138.058 160.065 138.058C159.155 138.058 158.316 137.851 157.564 137.436ZM161.925 136.513C162.479 136.198 162.915 135.759 163.223 135.183C163.54 134.606 163.698 133.937 163.698 133.176C163.698 132.407 163.54 131.738 163.223 131.161C162.907 130.592 162.479 130.146 161.933 129.838C161.387 129.523 160.762 129.369 160.065 129.369C159.369 129.369 158.743 129.523 158.197 129.838C157.651 130.154 157.216 130.592 156.907 131.161C156.591 131.738 156.432 132.407 156.432 133.176C156.432 133.937 156.591 134.606 156.907 135.183C157.224 135.759 157.659 136.205 158.205 136.513C158.759 136.828 159.377 136.982 160.065 136.982C160.754 136.974 161.379 136.82 161.925 136.513Z" fill="#6B6D6B"/>
<path d="M166.88 130.653C167.315 129.907 167.909 129.323 168.653 128.9C169.405 128.477 170.236 128.27 171.146 128.27C172.222 128.27 173.156 128.523 173.964 129.023C174.763 129.523 175.349 130.238 175.713 131.169H174.169C173.892 130.592 173.505 130.146 172.99 129.838C172.476 129.523 171.858 129.369 171.146 129.369C170.457 129.369 169.84 129.523 169.294 129.838C168.748 130.153 168.32 130.592 168.012 131.161C167.703 131.738 167.545 132.407 167.545 133.175C167.545 133.937 167.703 134.606 168.012 135.175C168.32 135.744 168.748 136.19 169.294 136.497C169.84 136.805 170.457 136.966 171.146 136.966C171.866 136.966 172.476 136.813 172.99 136.505C173.505 136.197 173.9 135.759 174.169 135.182H175.713C175.349 136.098 174.763 136.805 173.964 137.305C173.164 137.805 172.222 138.051 171.146 138.051C170.228 138.051 169.397 137.843 168.653 137.428C167.901 137.013 167.315 136.436 166.88 135.69C166.445 134.944 166.231 134.114 166.231 133.175C166.231 132.237 166.452 131.399 166.88 130.653Z" fill="#6B6D6B"/>
<path d="M178.918 128.393V137.966H177.636V128.393H178.918Z" fill="#6B6D6B"/>
<path d="M186.936 135.836H182.638L181.847 137.966H180.493L184.055 128.446H185.543L189.089 137.966H187.727L186.936 135.836ZM186.564 134.821L184.783 129.984L183.002 134.821H186.564Z" fill="#6B6D6B"/>
<path d="M196.703 128.393V129.408H194.02V137.966H192.73V129.408H190.031V128.393H196.703Z" fill="#6B6D6B"/>
<path d="M199.576 129.407V132.606H203.17V133.637H199.576V136.935H203.589V137.966H198.286V128.377H203.589V129.407H199.576Z" fill="#6B6D6B"/>
<path d="M206.921 137.728C206.407 137.505 206.003 137.19 205.71 136.797C205.417 136.398 205.267 135.936 205.259 135.413H206.628C206.676 135.859 206.866 136.244 207.198 136.544C207.531 136.851 208.021 137.005 208.663 137.005C209.272 137.005 209.755 136.859 210.111 136.559C210.467 136.259 210.641 135.882 210.641 135.413C210.641 135.044 210.538 134.752 210.333 134.521C210.127 134.291 209.866 134.121 209.557 133.998C209.248 133.883 208.829 133.752 208.298 133.614C207.649 133.452 207.127 133.283 206.739 133.122C206.343 132.96 206.011 132.699 205.734 132.345C205.457 131.991 205.315 131.515 205.315 130.923C205.315 130.4 205.449 129.938 205.726 129.538C206.003 129.139 206.383 128.823 206.882 128.608C207.38 128.385 207.942 128.277 208.583 128.277C209.509 128.277 210.261 128.5 210.855 128.954C211.441 129.4 211.773 130 211.852 130.738H210.435C210.388 130.369 210.19 130.046 209.842 129.769C209.494 129.492 209.035 129.354 208.457 129.354C207.919 129.354 207.483 129.492 207.143 129.761C206.803 130.031 206.636 130.407 206.636 130.892C206.636 131.238 206.739 131.522 206.937 131.745C207.143 131.968 207.388 132.13 207.689 132.245C207.99 132.361 208.401 132.491 208.94 132.637C209.589 132.814 210.111 132.983 210.507 133.153C210.902 133.322 211.243 133.583 211.528 133.937C211.813 134.291 211.955 134.767 211.955 135.375C211.955 135.844 211.829 136.282 211.575 136.69C211.322 137.105 210.942 137.436 210.443 137.689C209.945 137.943 209.351 138.074 208.678 138.074C208.014 138.058 207.436 137.951 206.921 137.728Z" fill="#6B6D6B"/>
<path d="M153.108 42.0691H152.546L144.156 18.9004C144.694 18.8389 145.122 18.3852 145.122 17.8469C145.122 17.3394 144.758 16.9165 144.267 16.8088V16.4397C144.512 16.3475 144.758 16.2475 144.995 16.1322C145.502 15.8861 146.127 15.4093 145.771 14.8788C145.209 14.0483 144.307 15.0787 143.721 15.2863C142.866 15.5939 141.964 15.5708 141.069 15.4785C138.972 15.2555 136.97 14.2482 134.959 13.6792C131.057 12.5796 127.408 11.726 123.348 11.8183C123.206 11.8183 121.963 11.9029 120.91 12.0413C120.902 11.9952 120.894 11.949 120.879 11.9106C121.235 11.726 121.448 11.48 121.448 11.2031C121.448 10.934 121.243 10.6956 120.91 10.5111C120.981 10.4111 121.021 10.2958 121.021 10.1804C121.021 9.88053 120.768 9.6114 120.372 9.44992C120.665 8.95778 120.847 8.31186 120.847 7.7659C120.847 6.97387 120.451 6.65091 119.889 6.55095C120.499 6.35102 120.942 5.78968 120.942 5.12837C120.942 4.2979 120.253 3.62891 119.399 3.62891C118.544 3.62891 117.855 4.2979 117.855 5.12837C117.855 5.78968 118.298 6.35102 118.908 6.55095C118.354 6.65091 117.95 6.97387 117.95 7.7659C117.95 8.30417 118.132 8.95778 118.425 9.44992C118.029 9.61909 117.776 9.88053 117.776 10.1804C117.776 10.2958 117.816 10.4111 117.887 10.5111C117.554 10.6956 117.349 10.934 117.349 11.2031C117.349 11.503 117.61 11.7722 118.013 11.9567C118.005 11.9875 117.998 12.0105 117.998 12.0413C116.945 11.9029 115.702 11.8183 115.56 11.8183C111.499 11.726 107.851 12.5796 103.949 13.6792C101.93 14.2482 99.9358 15.2555 97.8384 15.4785C96.944 15.5785 96.0338 15.5939 95.1869 15.2863C94.6012 15.071 93.6989 14.0483 93.1369 14.8788C92.7808 15.4093 93.406 15.8861 93.9126 16.1322C94.158 16.2475 94.4033 16.3552 94.6408 16.4397V16.8088C94.15 16.9165 93.7859 17.3394 93.7859 17.8469C93.7859 18.3929 94.2054 18.8389 94.7516 18.9004L86.3618 42.0691H85.7998C85.4278 42.0691 85.1271 42.3613 85.1271 42.7227C85.1271 43.0688 85.4041 43.3456 85.7444 43.3686C85.9581 45.4833 89.9631 47.1596 94.8782 47.1596C99.7933 47.1596 103.806 45.4756 104.012 43.3686C104.36 43.3456 104.629 43.0611 104.629 42.7227C104.629 42.3613 104.329 42.0691 103.957 42.0691H103.395L95.0128 18.9004C95.551 18.8389 95.9784 18.3852 95.9784 17.8469C95.9784 17.3394 95.6143 16.9165 95.1236 16.8088V16.6012C100.894 18.3006 107.115 12.841 118.227 15.3555C118.227 15.3555 119.375 15.9861 120.657 15.3555C131.769 12.841 137.991 18.3006 143.76 16.6012V16.8088C143.27 16.9165 142.906 17.3394 142.906 17.8469C142.906 18.3929 143.325 18.8389 143.871 18.9004L135.482 42.0691H134.92C134.548 42.0691 134.247 42.3613 134.247 42.7227C134.247 43.0688 134.524 43.3456 134.864 43.3686C135.078 45.4833 139.083 47.1596 143.998 47.1596C148.913 47.1596 152.918 45.4756 153.132 43.3686C153.48 43.3456 153.749 43.0611 153.749 42.7227C153.781 42.3613 153.48 42.0691 153.108 42.0691ZM94.6487 42.0691H86.8921L94.6487 20.6306V42.0691ZM95.1394 20.6383L102.896 42.0768H95.1394V20.6383ZM95.5035 17.8469C95.5035 18.1699 95.2265 18.439 94.894 18.439C94.5616 18.439 94.2846 18.1699 94.2846 17.8469C94.2846 17.524 94.5616 17.2548 94.894 17.2548C95.2265 17.2548 95.5035 17.5163 95.5035 17.8469ZM143.776 42.0691H136.02L143.776 20.6306V42.0691ZM143.412 17.8469C143.412 17.524 143.681 17.2548 144.022 17.2548C144.354 17.2548 144.631 17.524 144.631 17.8469C144.631 18.1699 144.354 18.439 144.022 18.439C143.689 18.439 143.412 18.1699 143.412 17.8469ZM144.267 42.0691V20.6383L152.024 42.0768H144.267V42.0691Z" fill="url(#paint8_linear_8_1024)"/>
<path fill-rule="evenodd" clip-rule="evenodd" d="M121.369 76.311C122.549 69.8979 125.81 64.2614 130.337 59.1094C127.788 54.3573 125.952 49.3975 125.319 44.0917H125.643C126.118 44.0917 126.506 43.7149 126.506 43.2535V41.9694C126.506 41.508 126.118 41.1312 125.643 41.1312H125.256V39.9854H126.657C127.131 39.9854 127.519 39.6087 127.519 39.1473V37.8631C127.519 37.4017 127.131 37.025 126.657 37.025H125.256V17.7395C124.06 17.8087 122.873 17.9394 121.662 18.2009C120.966 18.4777 120.238 18.6238 119.478 18.6238C118.536 18.6238 117.768 18.4008 117.269 18.2009C115.774 17.8779 114.317 17.7318 112.845 17.6934V37.0326H111.444C110.969 37.0326 110.589 37.4094 110.589 37.8708V39.155C110.589 39.6163 110.977 39.9931 111.444 39.9931H112.845V41.1389H112.449C111.974 41.1389 111.595 41.5157 111.595 41.977V43.2612C111.595 43.7226 111.982 44.0994 112.449 44.0994H112.79C112.141 49.7205 110.407 54.6341 107.977 59.094C113.019 64.4229 115.742 70.2209 116.787 76.3572C116.431 76.5263 116.177 76.88 116.177 77.2953C116.177 77.872 116.66 78.3411 117.254 78.3411C117.831 78.3411 118.283 77.9028 118.322 77.3491H118.338V56.5949C117.657 56.3104 117.19 55.6568 117.19 54.8879C117.19 53.8651 118.045 53.0347 119.098 53.0347C120.151 53.0347 121.005 53.8651 121.005 54.8879C121.005 55.6337 120.554 56.272 119.905 56.5719V77.2799V77.3337H119.913C119.945 77.8797 120.404 78.3257 120.982 78.3257C121.575 78.3257 122.058 77.8566 122.058 77.2799C122.058 76.8416 121.773 76.4648 121.369 76.311Z" fill="url(#paint9_linear_8_1024)"/>
<path d="M166.16 54.7114C163.223 56.703 162.748 58.8715 162.669 59.4713C162.202 59.7404 161.767 59.9711 161.371 60.1864C161.996 59.1791 162.582 58.1563 163.12 57.1029C164.023 55.3189 164.798 53.4734 165.455 51.5971C165.526 51.3895 165.598 51.1819 165.669 50.9743C166.175 49.4287 166.919 47.96 167.901 46.645C167.964 46.5605 168.035 46.4682 168.099 46.3836C176.33 42.0005 172.555 33.0806 172.555 33.0806C172.681 35.0492 170.719 36.5563 168.708 40.1474C166.999 43.2078 167.568 45.3532 167.782 45.9222C167.363 46.5528 166.967 47.1064 166.627 47.5678C166.761 46.9911 166.888 46.4144 166.999 45.8376C167.386 43.8922 167.608 41.916 167.703 39.9397L167.735 39.2015C167.75 38.9555 167.758 38.7094 167.75 38.4633V36.9792C167.743 36.4871 167.703 35.995 167.687 35.4952C167.671 35.2491 167.671 35.003 167.648 34.757L167.576 34.0188C167.529 33.5266 167.561 33.0345 167.656 32.5577L168.241 29.7357C174.241 22.7228 167.355 15.7714 167.355 15.7714C168.217 17.5631 166.959 19.6546 166.452 23.7224C166.017 27.175 167.363 28.9667 167.774 29.4281C167.608 30.2432 167.426 30.966 167.276 31.5427L167.212 31.0813C167.157 30.5892 167.038 30.1125 166.943 29.628L166.801 28.9052C166.753 28.6591 166.706 28.4207 166.642 28.1824C166.397 27.2289 166.175 26.26 165.859 25.3295L165.637 24.6221L165.526 24.2684L165.4 23.9223L164.885 22.5305C164.561 21.7231 164.22 20.9234 163.864 20.1237C163.215 18.7011 162.812 17.1786 162.717 15.6253C162.693 15.2639 162.669 14.9102 162.63 14.5641C165.859 6.00562 156.97 1.69946 156.97 1.69946C158.403 3.10665 157.944 5.49042 158.862 9.48131C159.646 12.8801 161.529 14.1258 162.076 14.4257C162.25 15.5868 162.345 16.5634 162.392 17.2401C162.376 17.217 162.368 17.194 162.353 17.1632L161.996 16.5173C161.878 16.302 161.735 16.0943 161.609 15.8867L160.825 14.6256L159.978 13.403C159.836 13.2031 159.701 12.9954 159.551 12.7955L159.1 12.2034C158.633 11.5729 158.142 10.9654 157.627 10.3733C156.915 9.49669 155.941 8.2356 155.095 7.32054C154.699 6.88992 154.351 6.42086 154.097 5.89797C150.401 -1.67627 141.362 0.453744 141.362 0.453744C143.388 0.576778 144.687 2.65296 148.106 5.04442C150.813 6.92837 152.95 6.82072 153.733 6.68999C153.828 6.72075 153.939 6.75151 154.034 6.78227L155.071 7.83574C156.424 9.28138 157.714 10.7732 158.846 12.388L159.282 12.9801C159.424 13.18 159.551 13.3876 159.685 13.5952L160.493 14.8256L160.833 15.4023C159.931 14.6641 159.028 14.0182 158.134 13.4568C153.258 5.66728 144.251 9.72738 144.251 9.72738C146.269 9.51976 147.908 11.3499 151.691 13.1416C154.913 14.6641 157.089 14.0105 157.667 13.7875C158.957 14.5257 160.033 15.2408 160.651 15.6714C161.039 15.9482 161.371 16.2943 161.593 16.7172V16.7249L161.933 17.3785C162.867 19.101 163.619 20.908 164.3 22.7305L164.767 24.1146L164.885 24.4606L164.988 24.8143L165.186 25.5141C165.471 26.4445 165.669 27.398 165.883 28.3438C165.938 28.5822 165.985 28.8206 166.025 29.059V29.0744C165.416 28.167 164.782 27.3365 164.125 26.5829C161.814 17.7476 151.976 19.0702 151.976 19.0702C153.971 19.447 154.984 21.6616 158.063 24.4529C160.682 26.829 162.962 26.8213 163.587 26.7675C164.292 27.5134 164.869 28.1824 165.297 28.6976C165.89 29.4127 166.278 30.2739 166.365 31.189C166.365 31.1967 166.365 31.1967 166.365 31.2044L166.532 32.65L166.571 33.0114L166.595 33.3728L166.642 34.0957L166.69 34.8185C166.706 35.0569 166.706 35.3029 166.714 35.5413C166.722 36.0257 166.737 36.5102 166.737 36.9869L166.698 38.4326C166.698 38.671 166.682 38.917 166.658 39.1554L166.603 39.8782C166.524 40.924 166.405 41.9621 166.255 43.0002C166.041 42.1313 165.795 41.3008 165.518 40.5241C166.603 31.4658 156.931 29.2974 156.931 29.2974C158.656 30.3431 158.791 32.7654 160.643 36.4333C162.218 39.5629 164.355 40.3473 164.949 40.5088C165.178 41.0701 165.376 41.593 165.542 42.0544C165.954 43.1847 166.041 44.4074 165.772 45.5839C165.772 45.5916 165.772 45.5993 165.764 45.5993C165.336 47.4832 164.814 49.3441 164.125 51.1434C163.445 52.9505 162.637 54.7114 161.727 56.4108C161.458 56.9029 161.173 57.3874 160.88 57.8718C161.047 56.8491 161.142 55.8648 161.181 54.9267C165.606 46.8911 157.422 41.4161 157.422 41.4161C158.633 43.0002 157.841 45.2994 158.181 49.3748C158.466 52.8428 160.16 54.3346 160.651 54.7037C160.651 54.8344 160.651 54.9652 160.651 55.0959C160.635 57.3028 159.938 59.4636 158.625 61.2629C158.617 61.2706 158.609 61.2783 158.609 61.2937C157.469 62.8624 156.187 64.3234 154.841 65.7229C154.493 66.0612 154.169 66.4226 153.812 66.7533L152.744 67.7452C152.728 67.7299 152.728 67.7376 152.712 67.7222C153.037 67.1608 153.33 66.6072 153.591 66.0535C160.88 60.3094 155.514 52.1892 155.514 52.1892C155.997 54.1039 154.351 55.9264 153.037 59.8173C151.921 63.1238 152.878 65.1308 153.187 65.6614C152.973 66.1612 152.768 66.6226 152.57 67.0301C152.095 68.0298 151.398 68.9218 150.504 69.5984C150.496 69.5984 150.496 69.6061 150.488 69.6061C148.953 70.798 147.346 71.913 145.652 72.8742C144.671 73.4432 143.666 73.9661 142.637 74.4659C143.064 74.043 143.46 73.6124 143.824 73.1818C150.805 70.0521 148.232 62.5471 148.232 62.5471C148.217 64.1619 146.531 65.2846 144.679 68.1143C143.104 70.5212 143.444 72.3052 143.586 72.7819C143.357 73.0741 143.143 73.3433 142.937 73.5893C142.272 74.4044 141.41 75.0504 140.428 75.4579C140.42 75.4579 140.42 75.4656 140.412 75.4656C138.608 76.2038 136.756 76.8189 134.872 77.3265L134.848 77.3342H134.84C134.334 77.4726 133.954 77.9186 133.938 78.4338C133.914 79.3181 134.753 79.8794 135.545 79.6487C137.524 79.0643 139.463 78.3569 141.346 77.5341C143.23 76.7036 145.043 75.7347 146.784 74.6736C147.837 74.0353 148.85 73.3433 149.839 72.6128C151.177 71.6208 152.783 71.0287 154.461 70.8903C163.223 74.1584 167.79 65.5845 167.79 65.5845C166.326 66.9532 163.872 66.4765 159.749 67.3069C156.242 68.0144 154.928 69.8291 154.612 70.352C153.765 70.4597 153.021 70.5289 152.411 70.5673C152.965 70.0906 153.512 69.5984 154.05 69.1063L155.134 68.0451C155.498 67.6991 155.831 67.3146 156.179 66.9455C157.548 65.4538 158.838 63.9005 159.978 62.2395C160.002 62.2088 160.026 62.1703 160.049 62.1395C160.611 61.3244 161.371 60.6708 162.265 60.2325C162.408 60.1633 162.558 60.0864 162.701 60.0095C172.08 59.6712 172.808 50.0438 172.808 50.0438C172.056 51.874 169.618 52.3738 166.16 54.7114Z" fill="url(#paint10_linear_8_1024)"/>
<path d="M73.0963 54.7114C76.0327 56.703 76.5076 58.8715 76.5868 59.4713C77.0538 59.7404 77.4891 59.9711 77.8848 60.1864C77.2596 59.1791 76.6739 58.1563 76.1356 57.1029C75.2333 55.3189 74.4577 53.4734 73.8007 51.5971C73.7295 51.3895 73.6583 51.1819 73.587 50.9743C73.0726 49.4287 72.3365 47.96 71.3551 46.645C71.2917 46.5605 71.2205 46.4682 71.1572 46.3836C62.9257 42.0005 66.7011 33.0806 66.7011 33.0806C66.5745 35.0492 68.5374 36.5563 70.5477 40.1474C72.2573 43.2078 71.6875 45.3532 71.4738 45.9222C71.8933 46.5528 72.289 47.1064 72.6293 47.5678C72.4948 46.9911 72.3682 46.4144 72.2573 45.8376C71.8695 43.8922 71.6479 41.916 71.5529 39.9397L71.5213 39.2015C71.5054 38.9555 71.4975 38.7094 71.5054 38.4633V36.9792C71.5134 36.4871 71.5529 35.995 71.5688 35.4952C71.5846 35.2491 71.5846 35.003 71.6083 34.757L71.6796 34.0188C71.727 33.5266 71.6954 33.0345 71.6004 32.5577L71.0147 29.7357C65.0152 22.7228 71.9012 15.7714 71.9012 15.7714C71.0385 17.5631 72.2969 19.6546 72.8035 23.7224C73.2388 27.175 71.8933 28.9667 71.4817 29.4281C71.6479 30.2432 71.8299 30.966 71.9803 31.5427L72.0436 31.0813C72.0991 30.5892 72.2178 30.1125 72.3128 29.628L72.4552 28.9052C72.5027 28.6591 72.5502 28.4207 72.6135 28.1824C72.8589 27.2289 73.0805 26.26 73.3971 25.3295L73.6187 24.6221L73.7295 24.2684L73.8561 23.9223L74.3706 22.5305C74.6951 21.7231 75.0355 20.9234 75.3916 20.1237C76.0407 18.7011 76.4443 17.1786 76.5393 15.6253C76.563 15.2639 76.5868 14.9102 76.6264 14.5641C73.3971 6.00562 82.2855 1.69946 82.2855 1.69946C80.8529 3.10665 81.312 5.49042 80.3938 9.48131C79.6103 12.8801 77.7265 14.1258 77.1804 14.4257C77.0063 15.5868 76.9192 16.5634 76.8638 17.2401C76.8796 17.217 76.8876 17.194 76.9034 17.1632L77.2596 16.5173C77.3783 16.302 77.5207 16.0943 77.6474 15.8867L78.431 14.6256L79.2778 13.403C79.4203 13.2031 79.5549 12.9954 79.7052 12.7955L80.1564 12.2034C80.6234 11.5729 81.1141 10.9654 81.6286 10.3733C82.3409 9.49669 83.3144 8.2356 84.1613 7.32054C84.5571 6.88992 84.9053 6.42086 85.1586 5.89797C88.8549 -1.67627 97.8936 0.453744 97.8936 0.453744C95.8674 0.576778 94.5694 2.65296 91.1502 5.04442C88.4433 6.92837 86.3063 6.82072 85.5227 6.68999C85.4277 6.72075 85.3169 6.75151 85.2219 6.78227L84.1851 7.83574C82.8316 9.28138 81.5415 10.7732 80.4097 12.388L79.9744 12.9801C79.8319 13.18 79.7052 13.3876 79.5707 13.5952L78.7634 14.8256L78.423 15.4023C79.3253 14.6641 80.2276 14.0182 81.122 13.4568C85.9976 5.66728 95.0047 9.72738 95.0047 9.72738C92.9864 9.51976 91.348 11.3499 87.5647 13.1416C84.3434 14.6641 82.1668 14.0105 81.589 13.7875C80.2989 14.5257 79.2224 15.2408 78.6051 15.6714C78.2172 15.9482 77.8848 16.2943 77.6632 16.7172V16.7249L77.3229 17.3785C76.3889 19.101 75.637 20.908 74.9563 22.7305L74.4893 24.1146L74.3706 24.4606L74.2756 24.8143L74.0778 25.5141C73.7928 26.4445 73.595 27.398 73.3813 28.3438C73.3259 28.5822 73.2784 28.8206 73.2388 29.059V29.0744C73.8482 28.167 74.4814 27.3365 75.1384 26.5829C77.4495 17.7476 87.2877 19.0702 87.2877 19.0702C85.2931 19.447 84.2801 21.6616 81.2012 24.4529C78.5813 26.829 76.3019 26.8213 75.6766 26.7675C74.9721 27.5134 74.3944 28.1824 73.967 28.6976C73.3733 29.4127 72.9855 30.2739 72.8985 31.189C72.8985 31.1967 72.8985 31.1967 72.8985 31.2044L72.7322 32.65L72.6927 33.0114L72.6689 33.3728L72.6214 34.0957L72.5739 34.8185C72.5581 35.0569 72.5581 35.3029 72.5502 35.5413C72.5265 36.018 72.5106 36.4948 72.5106 36.9792L72.5502 38.4249C72.5502 38.6633 72.566 38.9093 72.5898 39.1477L72.6452 39.8705C72.7243 40.9163 72.843 41.9544 72.9934 42.9925C73.2071 42.1236 73.4525 41.2931 73.7295 40.5165C72.6452 31.4581 82.3172 29.2897 82.3172 29.2897C80.5917 30.3354 80.4572 32.7577 78.6051 36.4256C77.03 39.5553 74.893 40.3396 74.2994 40.5011C74.0699 41.0624 73.872 41.5853 73.7058 42.0467C73.2942 43.177 73.2071 44.3997 73.4762 45.5762C73.4762 45.5839 73.4762 45.5916 73.4842 45.5916C73.9116 47.4755 74.4339 49.3364 75.1225 51.1358C75.8032 52.9428 76.6105 54.7037 77.5207 56.4031C77.7898 56.8953 78.0748 57.3797 78.3676 57.8641C78.2014 56.8414 78.1064 55.8572 78.0669 54.919C73.6424 46.8834 81.8264 41.4084 81.8264 41.4084C80.6155 42.9925 81.4069 45.2917 81.0666 49.3672C80.7817 52.8352 79.0879 54.3269 78.5972 54.696C78.5972 54.8268 78.5972 54.9575 78.5972 55.0882C78.613 57.2951 79.3095 59.4559 80.6234 61.2552C80.6313 61.2629 80.6392 61.2706 80.6392 61.286C81.7789 62.8547 83.0612 64.3157 84.4067 65.7152C84.7549 66.0535 85.0795 66.415 85.4356 66.7456L86.5041 67.7376C86.52 67.7222 86.512 67.7299 86.5358 67.7145C86.2113 67.1531 85.9184 66.5995 85.6572 66.0459C78.3676 60.3017 83.7339 52.1815 83.7339 52.1815C83.2511 54.0962 84.8974 55.9187 86.2113 59.8096C87.3273 63.1161 86.3696 65.1231 86.0609 65.6537C86.2746 66.1535 86.4804 66.6149 86.6783 67.0224C87.1532 68.0221 87.8497 68.9141 88.744 69.5907C88.752 69.5907 88.752 69.5984 88.7599 69.5984C90.2954 70.7903 91.9021 71.9053 93.5959 72.8665C94.5773 73.4355 95.5825 73.9584 96.6114 74.4583C96.184 74.0353 95.7883 73.6047 95.4242 73.1741C88.4433 70.0444 91.0156 62.5394 91.0156 62.5394C91.0314 64.1542 92.7173 65.2769 94.5694 68.1067C96.1445 70.5135 95.8041 72.2975 95.6616 72.7742C95.8912 73.0664 96.1049 73.3356 96.3107 73.5816C96.9755 74.3967 97.8382 75.0427 98.8197 75.4502C98.8276 75.4502 98.8276 75.4579 98.8355 75.4579C100.64 76.1961 102.492 76.8113 104.376 77.3188L104.4 77.3265H104.408C104.914 77.4649 105.294 77.9109 105.31 78.4261C105.334 79.3104 104.495 79.8717 103.703 79.641C101.724 79.0566 99.7853 78.3492 97.9016 77.5264C96.0178 76.6959 94.2053 75.727 92.464 74.6659C91.4114 74.0276 90.3982 73.3356 89.4089 72.6051C88.0713 71.6131 86.4646 71.021 84.7866 70.8826C76.0248 74.1507 71.4579 65.5768 71.4579 65.5768C72.9222 66.9455 75.3758 66.4688 79.4995 67.2993C83.0058 68.0067 84.3196 69.8214 84.6362 70.3443C85.4831 70.452 86.2271 70.5212 86.8366 70.5596C86.2825 70.0829 85.7364 69.5907 85.1982 69.0986L84.1138 68.0375C83.7498 67.6914 83.4173 67.3069 83.0691 66.9378C81.6998 65.4461 80.4097 63.8928 79.2699 62.2318C79.2462 62.2011 79.2224 62.1626 79.1987 62.1319C78.6367 61.3168 77.8769 60.6631 76.9825 60.2248C76.8321 60.1556 76.6897 60.0787 76.5472 60.0018C67.1364 59.6866 66.4003 50.0592 66.4003 50.0592C67.1997 51.874 69.6454 52.3738 73.0963 54.7114Z" fill="url(#paint11_linear_8_1024)"/>
<defs>
<linearGradient id="paint0_linear_8_1024" x1="11.8096" y1="51.8663" x2="11.8096" y2="130.59" gradientUnits="userSpaceOnUse">
<stop stop-color="#FAE894"/>
<stop offset="0.8939" stop-color="#977A1C"/>
</linearGradient>
<linearGradient id="paint1_linear_8_1024" x1="41.4848" y1="51.8655" x2="41.4848" y2="130.59" gradientUnits="userSpaceOnUse">
<stop stop-color="#FAE894"/>
<stop offset="0.8939" stop-color="#977A1C"/>
</linearGradient>
<linearGradient id="paint2_linear_8_1024" x1="69.8242" y1="51.8664" x2="69.8242" y2="130.59" gradientUnits="userSpaceOnUse">
<stop stop-color="#FAE894"/>
<stop offset="0.8939" stop-color="#977A1C"/>
</linearGradient>
<linearGradient id="paint3_linear_8_1024" x1="107.019" y1="51.8663" x2="107.019" y2="130.59" gradientUnits="userSpaceOnUse">
<stop stop-color="#FAE894"/>
<stop offset="0.8939" stop-color="#977A1C"/>
</linearGradient>
<linearGradient id="paint4_linear_8_1024" x1="134.427" y1="51.8655" x2="134.427" y2="130.59" gradientUnits="userSpaceOnUse">
<stop stop-color="#FAE894"/>
<stop offset="0.8939" stop-color="#977A1C"/>
</linearGradient>
<linearGradient id="paint5_linear_8_1024" x1="164.881" y1="51.8664" x2="164.881" y2="130.59" gradientUnits="userSpaceOnUse">
<stop stop-color="#FAE894"/>
<stop offset="0.8939" stop-color="#977A1C"/>
</linearGradient>
<linearGradient id="paint6_linear_8_1024" x1="196.76" y1="51.8665" x2="196.76" y2="130.591" gradientUnits="userSpaceOnUse">
<stop stop-color="#FAE894"/>
<stop offset="0.8939" stop-color="#977A1C"/>
</linearGradient>
<linearGradient id="paint7_linear_8_1024" x1="226.732" y1="51.8663" x2="226.732" y2="130.59" gradientUnits="userSpaceOnUse">
<stop stop-color="#FAE894"/>
<stop offset="0.8939" stop-color="#977A1C"/>
</linearGradient>
<linearGradient id="paint8_linear_8_1024" x1="54.1207" y1="-25.9365" x2="164.438" y2="79.1196" gradientUnits="userSpaceOnUse">
<stop stop-color="#FAE894"/>
<stop offset="0.6341" stop-color="#977A1C"/>
<stop offset="1" stop-color="#FAE894"/>
</linearGradient>
<linearGradient id="paint9_linear_8_1024" x1="47.0283" y1="-18.4885" x2="157.346" y2="86.5675" gradientUnits="userSpaceOnUse">
<stop stop-color="#FAE894"/>
<stop offset="0.6341" stop-color="#977A1C"/>
<stop offset="1" stop-color="#FAE894"/>
</linearGradient>
<linearGradient id="paint10_linear_8_1024" x1="62.3845" y1="-34.6136" x2="172.702" y2="70.4425" gradientUnits="userSpaceOnUse">
<stop stop-color="#FAE894"/>
<stop offset="0.6341" stop-color="#977A1C"/>
<stop offset="1" stop-color="#FAE894"/>
</linearGradient>
<linearGradient id="paint11_linear_8_1024" x1="37.7274" y1="-8.72169" x2="148.045" y2="96.3344" gradientUnits="userSpaceOnUse">
<stop stop-color="#FAE894"/>
<stop offset="0.6341" stop-color="#977A1C"/>
<stop offset="1" stop-color="#FAE894"/>
</linearGradient>
</defs>
</svg>
