<svg width="32" height="33" viewBox="0 0 32 33" fill="none" xmlns="http://www.w3.org/2000/svg">
<path d="M25.3073 6.21582C24.8821 6.21582 24.5361 6.56186 24.5361 6.98708C24.5361 7.41229 24.8821 7.75833 25.3073 7.75833C25.7326 7.75833 26.0786 7.41235 26.0786 6.98708C26.0786 6.5618 25.7326 6.21582 25.3073 6.21582Z" fill="#977A1C"/>
<path d="M16.0727 9.38477C12.3025 9.38477 9.23523 12.452 9.23523 16.2222C9.23523 19.9924 12.3025 23.0597 16.0727 23.0597C19.8429 23.0597 22.9102 19.9924 22.9102 16.2223C22.9102 12.4521 19.8429 9.38477 16.0727 9.38477Z" fill="#977A1C"/>
<path d="M23.2481 0.337891H8.89728C4.0952 0.337891 0.188416 4.24468 0.188416 9.04682V23.3976C0.188416 28.1997 4.0952 32.1064 8.89728 32.1064H23.2481C28.0502 32.1064 31.957 28.1996 31.957 23.3976V9.04682C31.957 4.24468 28.0502 0.337891 23.2481 0.337891ZM16.0727 24.9357C11.268 24.9357 7.35923 21.0268 7.35923 16.2222C7.35923 11.4175 11.2681 7.50877 16.0727 7.50877C20.8773 7.50877 24.7862 11.4175 24.7862 16.2222C24.7862 21.0268 20.8773 24.9357 16.0727 24.9357ZM25.3073 9.63491C23.8476 9.63491 22.66 8.44731 22.66 6.98757C22.66 5.52783 23.8476 4.34017 25.3073 4.34017C26.7671 4.34017 27.9547 5.52777 27.9547 6.98751C27.9547 8.44725 26.7671 9.63491 25.3073 9.63491Z" fill="#977A1C"/>
</svg>
