<svg width="34" height="46" viewBox="0 0 34 46" fill="none" xmlns="http://www.w3.org/2000/svg">
<path d="M16.9248 0C12.4379 0.00595199 8.13645 1.79101 4.96373 4.96373C1.79101 8.13645 0.00595199 12.4379 0 16.9248C0 29.0754 15.7683 44.2936 16.4382 44.9353C16.5685 45.062 16.7431 45.1328 16.9248 45.1328C17.1065 45.1328 17.2811 45.062 17.4114 44.9353C18.0813 44.2936 33.8496 29.0754 33.8496 16.9248C33.8436 12.4379 32.0586 8.13645 28.8858 4.96373C25.7131 1.79101 21.4117 0.00595199 16.9248 0ZM16.9248 24.682C15.3906 24.682 13.8908 24.227 12.6151 23.3747C11.3395 22.5223 10.3452 21.3108 9.75807 19.8933C9.17095 18.4759 9.01733 16.9162 9.31665 15.4114C9.61596 13.9067 10.3548 12.5245 11.4396 11.4396C12.5245 10.3548 13.9067 9.61596 15.4114 9.31664C16.9162 9.01733 18.4759 9.17095 19.8933 9.75807C21.3108 10.3452 22.5223 11.3395 23.3747 12.6151C24.227 13.8908 24.682 15.3906 24.682 16.9248C24.6807 18.9817 23.8631 20.9541 22.4086 22.4086C20.9541 23.8631 18.9817 24.6807 16.9248 24.682Z" fill="#977A1C"/>
</svg>
