<svg width="85" height="86" viewBox="0 0 85 86" fill="none" xmlns="http://www.w3.org/2000/svg">
<path d="M2.95882 45.6325C0.858117 49.7565 -0.153857 54.349 0.0189387 58.9741C0.191734 63.5991 1.54357 68.1033 3.94614 72.0591C6.34871 76.0149 9.72232 79.2912 13.7468 81.5769C17.7713 83.8626 22.3131 85.082 26.9412 85.1193C27.3668 85.1193 27.7924 85.108 28.218 85.0881C33.3384 84.8291 38.2758 83.1009 42.44 80.1101C47.5361 83.7518 53.7441 85.4991 59.9916 85.0502C66.239 84.6013 72.1335 81.9844 76.6566 77.6515C76.9976 77.324 77.2516 76.9166 77.3957 76.4662C77.5397 76.0159 77.5693 75.5367 77.4817 75.0721C77.3941 74.6074 77.1922 74.1719 76.894 73.8049C76.5959 73.4379 76.211 73.1509 75.7742 72.97L72.8716 71.774C72.3879 71.5765 71.8591 71.5164 71.3435 71.6002C70.8278 71.6841 70.3453 71.9087 69.9492 72.2493C67.0183 74.7306 63.3852 76.2338 59.5579 76.5484C55.7307 76.8631 51.9008 75.9735 48.6041 74.0042C50.3579 71.623 51.7041 68.9671 52.5877 66.1448C52.7864 65.4716 52.7294 64.7486 52.4274 64.1149C52.1255 63.4812 51.6 62.9814 50.952 62.7117L48.3076 61.6179C47.9397 61.4659 47.5439 61.3931 47.146 61.4041C46.7481 61.4151 46.357 61.5097 45.998 61.6817C45.643 61.8502 45.3274 62.0915 45.0717 62.3899C44.816 62.6883 44.6261 63.0372 44.5141 63.4139C44.035 65.0176 43.3371 66.5476 42.44 67.9607C40.8666 65.4811 39.9148 62.6585 39.6651 59.7325C39.6254 59.2107 39.4422 58.7101 39.1358 58.286C38.8293 57.8619 38.4116 57.5308 37.9287 57.3293L35.019 56.1277C34.5807 55.9459 34.1037 55.877 33.6318 55.9272C33.1599 55.9775 32.7082 56.1453 32.3179 56.4153C31.9276 56.6853 31.6113 57.0489 31.398 57.4728C31.1846 57.8966 31.0809 58.3673 31.0964 58.8416C31.1035 59.1069 31.1149 59.3707 31.1291 59.6318C31.4051 64.8161 33.1852 69.8078 36.2518 73.9971C32.787 76.0652 28.7389 76.9385 24.7296 76.4827C20.7202 76.0268 16.9715 74.2672 14.0593 71.4741C11.1471 68.6809 9.23252 65.0089 8.60982 61.0221C7.98712 57.0352 8.6907 52.9542 10.6125 49.4061C10.8008 49.0572 10.9135 48.6725 10.9433 48.2772C10.9731 47.8818 10.9194 47.4846 10.7856 47.1114C10.6518 46.7382 10.4409 46.3973 10.1666 46.111C9.89237 45.8246 9.56091 45.5992 9.19381 45.4495L6.54093 44.3571C5.89189 44.0886 5.16632 44.0704 4.50463 44.306C3.84293 44.5416 3.29214 45.0142 2.95882 45.6325ZM47.2209 64.2396L49.878 65.305C49.0873 67.8266 47.8846 70.1999 46.3186 72.3287C45.5793 71.7175 44.8891 71.0491 44.2545 70.3298C45.5676 68.4744 46.5695 66.4173 47.2209 64.2396ZM33.9635 59.4771C33.9508 59.2388 33.9408 59.0005 33.9352 58.7465L36.8392 59.9694C37.1043 63.0364 38.0309 66.0095 39.5552 68.6841C41.0795 71.3587 43.1652 73.6713 45.6689 75.4625C45.6958 75.4824 45.72 75.5037 45.7469 75.5221C49.5964 78.2544 54.2466 79.6261 58.9627 79.4206C63.6788 79.215 68.1919 77.444 71.7892 74.3872L74.6917 75.5831V75.5959C70.5214 79.5838 65.058 81.9423 59.2956 82.2422C53.5331 82.5421 47.8545 80.7636 43.2926 77.2302C41.8529 76.1298 40.5473 74.8642 39.4027 73.4594C36.1387 69.5016 34.2321 64.6002 33.9635 59.4771ZM5.69683 60.6816C6.11249 64.2384 7.42107 67.6324 9.50082 70.5476C11.5806 73.4629 14.3639 75.8048 17.5919 77.3553C20.8199 78.9059 24.3876 79.6148 27.9632 79.416C31.5387 79.2173 35.0059 78.1174 38.0422 76.2187C38.6964 76.9463 39.3913 77.6364 40.1234 78.2857C36.5391 80.6725 32.3757 82.0451 28.0747 82.2579C23.8255 82.4759 19.5942 81.5662 15.8099 79.6211C12.0257 77.676 8.82324 74.7647 6.52726 71.1825C4.23128 67.6004 2.9235 63.4747 2.73654 59.224C2.54959 54.9732 3.49012 50.7487 5.46275 46.9788L8.11847 48.0541C6.02437 51.9114 5.17828 56.3232 5.69683 60.6816Z" fill="#FFFDFD"/>
<path d="M8.14684 39.0742C8.22523 39.5524 8.42481 40.0026 8.72654 40.3818C9.02828 40.761 9.42212 41.0566 9.87051 41.2405L12.8497 42.4662C13.3093 42.6524 13.8095 42.7154 14.3009 42.6489C14.7923 42.5825 15.2579 42.3889 15.6515 42.0874C18.5753 39.8517 22.1024 38.5442 25.7769 38.3338C29.4515 38.1234 33.1047 39.0198 36.2646 40.9071C34.7229 43.0068 33.496 45.3205 32.6229 47.7748C32.3873 48.4582 32.4228 49.2059 32.7221 49.8639C33.0214 50.5219 33.5617 51.04 34.2317 51.3115L36.8647 52.3982C37.2255 52.5474 37.6129 52.6212 38.0033 52.6151C38.3936 52.609 38.7786 52.5231 39.1345 52.3627C39.481 52.2086 39.792 51.9847 40.0481 51.705C40.3042 51.4252 40.4998 51.0957 40.6227 50.7369C41.0818 49.4117 41.6915 48.1437 42.44 46.9576C43.8396 49.1762 44.7494 51.6681 45.1085 54.2666C45.1695 54.7597 45.3602 55.2278 45.6609 55.6232C45.9617 56.0187 46.3619 56.3274 46.8208 56.518L49.8 57.7479C50.2472 57.9324 50.7339 57.9999 51.2144 57.944C51.6948 57.8882 52.1532 57.7109 52.5461 57.4288C52.939 57.1468 53.2536 56.7692 53.4602 56.3319C53.6668 55.8945 53.7586 55.4117 53.7268 54.9291C53.3864 49.8697 51.6152 45.0113 48.6197 40.9198C52.122 38.8261 56.2204 37.9546 60.2716 38.4421C64.3228 38.9296 68.0975 40.7485 71.0032 43.6132C73.9088 46.478 75.781 50.2265 76.3259 54.2704C76.8708 58.3143 76.0574 62.4246 74.0136 65.9563C73.9057 66.1336 73.8372 66.3319 73.8126 66.538C73.7879 66.744 73.8078 66.953 73.8709 67.1507C73.934 67.3484 74.0388 67.5302 74.1782 67.6839C74.3176 67.8377 74.4884 67.9597 74.679 68.0417L78.7576 69.7157C79.1042 69.8582 79.4752 69.9319 79.85 69.9328C80.3813 69.9345 80.9022 69.7853 81.352 69.5025C81.8018 69.2197 82.1621 68.815 82.3908 68.3354C84.2467 64.4084 85.135 60.094 84.9812 55.7533C84.8092 50.8919 83.323 46.1681 80.6808 42.0838C78.0386 37.9996 74.339 34.7076 69.9754 32.5579C65.6118 30.4082 60.7472 29.481 55.8988 29.875C51.0503 30.269 46.3993 31.9694 42.44 34.7955C39.7417 32.8732 36.7118 31.4655 33.5025 30.6431L40.4099 21.7878C40.8555 21.2222 41.0715 20.5093 41.0147 19.7914C40.9579 19.0735 40.6325 18.4035 40.1035 17.9149L34.287 12.4956C33.5024 11.7588 32.4664 11.3489 31.3901 11.3494H22.2795C21.2017 11.3473 20.1637 11.7562 19.3769 12.4928L13.5604 17.9135C13.0319 18.4024 12.707 19.0725 12.6505 19.7903C12.5939 20.5081 12.8099 21.2208 13.2554 21.7864L20.1671 30.6431C16.0553 31.6867 12.2501 33.6919 9.06471 36.4936C8.70389 36.8094 8.43005 37.2125 8.26936 37.6642C8.10867 38.116 8.06649 38.6014 8.14684 39.0742ZM37.9514 49.7751L35.3028 48.7168C36.0829 46.5238 37.1787 44.4563 38.5557 42.5797C39.2953 43.1896 39.9855 43.857 40.6199 44.5757C39.4917 46.1755 38.5934 47.9257 37.9514 49.7751ZM56.6918 32.6661C60.869 32.4332 65.035 33.2904 68.7809 35.1537C72.5268 37.0169 75.7239 39.8221 78.0583 43.294C80.3927 46.7659 81.7843 50.785 82.0964 54.9571C82.4085 59.1291 81.6305 63.3106 79.8386 67.0912L77.1971 66.0045C79.2128 61.8581 79.825 57.1685 78.9413 52.6436C78.0576 48.1187 75.726 44.004 72.2984 40.9206C68.8708 37.8372 64.5333 35.9524 59.9404 35.5508C55.3475 35.1491 50.7486 36.2523 46.8378 38.694C46.1829 37.9666 45.4881 37.2761 44.7567 36.6256C48.3095 34.2624 52.431 32.8951 56.6918 32.6661ZM41.5888 37.674C43.0285 38.7744 44.3341 40.04 45.4788 41.4447C48.6766 45.3206 50.5709 50.1061 50.8924 55.1206L47.9288 53.8778C47.2961 49.2491 45.1577 44.9572 41.8436 41.6644C38.5295 38.3716 34.224 36.261 29.5912 35.658L31.5774 33.1045C35.2227 33.8338 38.6494 35.3979 41.5888 37.674ZM28.2535 32.7597V21.28H37.2094L28.2535 32.7597ZM32.6612 14.8549L36.4817 18.4427H29.7884L32.6612 14.8549ZM29.5615 14.1867L26.8348 17.5915L24.1081 14.1867H29.5615ZM21.0055 14.852L23.8812 18.4427H17.1567L21.0055 14.852ZM16.5013 21.28H25.4161V32.7484L16.5013 21.28ZM22.0922 33.1144L24.0783 35.6595C20.3858 36.1323 16.8848 37.5759 13.9321 39.8431L10.9345 38.6188C14.1025 35.831 17.9522 33.9319 22.0922 33.1144Z" fill="#FFFDFD"/>
<path d="M76.2891 0C75.1267 0.00102229 73.9769 0.240796 72.911 0.704458C71.8451 1.16812 70.8857 1.84579 70.0925 2.69545L69.3945 3.42747L68.705 2.69545C67.9195 1.84927 66.9686 1.17342 65.9112 0.709763C64.8539 0.246108 63.7125 0.00453072 62.558 0L62.4814 0C61.3239 0.00433765 60.1795 0.24574 59.1189 0.709323C58.0583 1.17291 57.1038 1.84884 56.3145 2.69545C54.6974 4.4415 53.7991 6.73362 53.7991 9.11345C53.7991 11.4933 54.6974 13.7854 56.3145 15.5314L67.8836 27.7163C68.0775 27.9225 68.3116 28.0868 68.5715 28.1991C68.8313 28.3115 69.1114 28.3694 69.3945 28.3694C69.6776 28.3694 69.9576 28.3115 70.2175 28.1991C70.4773 28.0868 70.7114 27.9225 70.9053 27.7163L82.4759 15.53C84.1145 13.7969 85.0189 11.497 84.9997 9.11203C85.0101 6.72936 84.1075 4.4332 82.4773 2.69545C81.6857 1.84596 80.7279 1.16832 79.6634 0.704627C78.5988 0.240934 77.4503 0.00109122 76.2891 0ZM68.61 18.5844C68.2007 19.0849 67.9767 19.7112 67.9758 20.3577V23.6916L58.3744 13.5822C57.2498 12.3678 56.625 10.7736 56.625 9.11841C56.625 7.46324 57.2498 5.86906 58.3744 4.65461C58.9021 4.08748 59.5404 3.63441 60.2499 3.32333C60.9594 3.01225 61.7251 2.84975 62.4998 2.84582H62.548C63.3189 2.84965 64.0808 3.01194 64.7864 3.32262C65.4919 3.63329 66.126 4.08571 66.6494 4.65177L67.9758 6.05341V11.3492C67.9758 12.1017 68.2747 12.8234 68.8068 13.3555C69.3389 13.8876 70.0606 14.1866 70.8131 14.1866H72.124L68.61 18.5844ZM82.1624 9.1177C82.1803 10.7752 81.5548 12.375 80.4174 13.5808L70.8131 23.6916V20.3648L74.4506 15.8166C74.7716 15.4102 74.9717 14.9217 75.028 14.4069C75.0842 13.8921 74.9945 13.3719 74.7689 12.9057C74.5433 12.4396 74.191 12.0464 73.7523 11.7711C73.3137 11.4958 72.8064 11.3496 72.2885 11.3492H70.8131V6.05624L72.1453 4.65177C72.674 4.08204 73.3141 3.62701 74.026 3.31489C74.7378 3.00277 75.5062 2.84022 76.2835 2.83731C77.0601 2.84051 77.8278 3.0035 78.5388 3.31615C79.2497 3.62879 79.8887 4.08439 80.416 4.65461C81.5476 5.85959 82.1728 7.45337 82.1624 9.10635V9.1177Z" fill="#FFFDFD"/>
</svg>
