<svg width="95" height="55" viewBox="0 0 95 55" fill="none" xmlns="http://www.w3.org/2000/svg">
<path d="M3.34379 42.0917V45.4163C3.34379 46.1334 3.42512 46.5802 3.58777 46.7534C3.80673 46.9995 4.13829 47.1241 4.58559 47.1241H5.03602V47.4341H0V47.1241H0.441042C0.938388 47.1241 1.29185 46.9661 1.50768 46.6531C1.62341 46.4799 1.67971 46.0666 1.67971 45.4163V38.0408C1.67971 37.3236 1.60152 36.8769 1.44512 36.7037C1.2199 36.4575 0.885213 36.3329 0.441042 36.3329H0V36.0229H4.3072C5.3582 36.0229 6.18711 36.1293 6.79393 36.339C7.40075 36.5487 7.91061 36.9042 8.32663 37.4026C8.74265 37.901 8.95222 38.4936 8.95222 39.1773C8.95222 40.1103 8.6363 40.867 8.00445 41.4505C7.3726 42.0339 6.47801 42.3257 5.32379 42.3257C5.03914 42.3257 4.73573 42.3074 4.40417 42.2679C4.0726 42.2284 3.71914 42.1676 3.34379 42.0917ZM3.34379 41.6115C3.65033 41.6693 3.92246 41.7088 4.15706 41.7392C4.39478 41.7665 4.59497 41.7817 4.76388 41.7817C5.36445 41.7817 5.88369 41.5568 6.31848 41.104C6.75327 40.6543 6.97222 40.0678 6.97222 39.3475C6.97222 38.8522 6.869 38.3963 6.65943 37.9709C6.44985 37.5485 6.15583 37.2294 5.77421 37.0197C5.3926 36.81 4.96095 36.7037 4.47298 36.7037C4.17895 36.7037 3.80047 36.7584 3.33753 36.8647V41.6115H3.34379Z" fill="white"/>
<path d="M14.8767 41.1039L19.2089 45.2885C19.919 45.9783 20.5258 46.4494 21.0294 46.6986C21.533 46.9478 22.0335 47.0906 22.5371 47.124V47.434H16.9474V47.124C17.2821 47.124 17.523 47.0693 17.67 46.9599C17.817 46.8505 17.8921 46.729 17.8921 46.5952C17.8921 46.4615 17.8639 46.34 17.8107 46.2336C17.7576 46.1273 17.5761 45.9267 17.2696 45.6349L13.2158 41.7391V45.4161C13.2158 45.9935 13.2533 46.3764 13.3284 46.5618C13.3878 46.7016 13.5067 46.8232 13.6912 46.9235C13.9383 47.0572 14.2011 47.1271 14.4795 47.1271H14.8798V47.437H9.86885V47.1271H10.2849C10.7697 47.1271 11.1232 46.9903 11.3421 46.7138C11.4797 46.5345 11.5486 46.1029 11.5486 45.4161V38.0407C11.5486 37.4633 11.511 37.0773 11.436 36.8889C11.3797 36.7552 11.2608 36.6367 11.0794 36.5364C10.826 36.4027 10.5601 36.3359 10.2817 36.3359H9.86572V36.0259H14.8736V36.3359H14.4732C14.2011 36.3359 13.9383 36.3997 13.685 36.5303C13.5067 36.6215 13.3815 36.7552 13.3127 36.9345C13.2439 37.1138 13.2095 37.4846 13.2095 38.0468V41.5415C13.3252 41.4352 13.7194 41.0796 14.395 40.4718C16.1123 38.9463 17.1476 37.9252 17.5042 37.4147C17.6606 37.1898 17.7388 36.9953 17.7388 36.8251C17.7388 36.6975 17.6794 36.582 17.5574 36.4848C17.4354 36.3875 17.2321 36.3389 16.9412 36.3389H16.6722V36.0289H20.9887V36.3389C20.7354 36.345 20.5039 36.3784 20.2943 36.4392C20.0848 36.5 19.8314 36.6215 19.5311 36.7978C19.2308 36.974 18.8617 37.2597 18.4207 37.6517C18.2924 37.7641 17.7075 38.3385 16.6628 39.3778L14.8767 41.1039Z" fill="white"/>
<path d="M30.5261 35.7588V39.7063H30.207C30.1038 38.9497 29.9161 38.3449 29.6471 37.8982C29.3781 37.4484 28.9965 37.0929 28.4992 36.8285C28.0018 36.5641 27.4888 36.4334 26.9571 36.4334C26.3565 36.4334 25.8592 36.6127 25.465 36.9683C25.0709 37.3238 24.877 37.7311 24.877 38.1838C24.877 38.5303 25.0021 38.8494 25.2492 39.135C25.6058 39.5544 26.4597 40.1166 27.8048 40.8186C28.9027 41.3899 29.6503 41.8306 30.0538 42.1375C30.4541 42.4444 30.7638 42.803 30.9796 43.2193C31.1955 43.6357 31.3049 44.0702 31.3049 44.523C31.3049 45.3861 30.9609 46.1337 30.2696 46.7597C29.5783 47.3857 28.69 47.6987 27.6046 47.6987C27.2636 47.6987 26.9414 47.6744 26.6412 47.6227C26.4629 47.5954 26.0906 47.4921 25.5276 47.3158C24.9646 47.1396 24.608 47.0514 24.4578 47.0514C24.314 47.0514 24.1982 47.094 24.1169 47.1791C24.0324 47.2641 23.9699 47.4374 23.9292 47.7017H23.6102V43.7876H23.9292C24.0794 44.6081 24.2827 45.2189 24.536 45.6262C24.7894 46.0334 25.1804 46.3707 25.7028 46.6412C26.2251 46.9116 26.7976 47.0453 27.4231 47.0453C28.1457 47.0453 28.715 46.86 29.1341 46.4892C29.5533 46.1185 29.7629 45.6809 29.7629 45.1764C29.7629 44.8968 29.6847 44.6112 29.5251 44.3255C29.3656 44.0398 29.1185 43.7724 28.7838 43.5263C28.5586 43.3561 27.9424 43.0005 26.9383 42.4535C25.9342 41.9065 25.2179 41.4689 24.7925 41.1438C24.3671 40.8186 24.045 40.46 23.826 40.0649C23.607 39.6729 23.4976 39.2414 23.4976 38.7673C23.4976 37.9468 23.8197 37.2418 24.4672 36.6492C25.1147 36.0566 25.9374 35.7618 26.9352 35.7618C27.5577 35.7618 28.2208 35.9107 28.9183 36.2086C29.2405 36.3483 29.4688 36.4182 29.6033 36.4182C29.7535 36.4182 29.8755 36.3757 29.9724 36.2876C30.0663 36.1994 30.1445 36.0262 30.2008 35.7618H30.5261V35.7588Z" fill="white"/>
<path d="M46.8694 44.2797L47.1541 44.3374L46.15 47.4341H37.0508V47.1241H37.4918C37.9892 47.1241 38.3426 46.9661 38.5585 46.6531C38.6804 46.4738 38.7399 46.0575 38.7399 45.4071V38.0408C38.7399 37.3266 38.6586 36.883 38.4959 36.7037C38.2707 36.4575 37.936 36.3329 37.4918 36.3329H37.0508V36.0229H42.3714V36.3329C41.7459 36.3268 41.3111 36.3815 41.0577 36.5001C40.8075 36.6186 40.6354 36.7675 40.5416 36.9468C40.4477 37.1261 40.404 37.5546 40.404 38.2353V45.4071C40.404 45.8721 40.4509 46.1942 40.5416 46.3674C40.6104 46.486 40.7168 46.5741 40.8606 46.6288C41.0045 46.6865 41.4549 46.7139 42.2119 46.7139H43.069C43.9698 46.7139 44.6017 46.6501 44.9676 46.5194C45.3336 46.3887 45.6652 46.1608 45.9655 45.8326C46.2689 45.5044 46.566 44.9878 46.8694 44.2797Z" fill="white"/>
<path d="M51.2456 36.6428V41.1556H53.8293C54.4987 41.1556 54.946 41.0583 55.1712 40.8608C55.4715 40.6025 55.6404 40.1467 55.6748 39.4963H55.9939V43.4682H55.6748C55.5935 42.9121 55.5122 42.5565 55.4309 42.3985C55.3276 42.201 55.1556 42.049 54.921 41.9366C54.6833 41.8241 54.3204 41.7694 53.8293 41.7694H51.2456V45.5316C51.2456 46.0361 51.2675 46.343 51.3145 46.4524C51.3614 46.5618 51.4427 46.6499 51.5584 46.7138C51.6742 46.7776 51.8931 46.811 52.2153 46.811H54.2078C54.871 46.811 55.3558 46.7654 55.6561 46.6773C55.9564 46.5861 56.2473 46.4099 56.5225 46.1485C56.8791 45.8021 57.2482 45.2764 57.6236 44.5744H57.9708L56.9573 47.437H47.9019V47.1271H48.3179C48.5963 47.1271 48.859 47.0632 49.1061 46.9326C49.2907 46.8414 49.4158 46.7077 49.4815 46.5284C49.5472 46.3491 49.5816 45.9814 49.5816 45.4253V38.0103C49.5816 37.287 49.5065 36.8403 49.3564 36.6732C49.1499 36.4483 48.8027 36.3359 48.3179 36.3359H47.9019V36.0259H56.9573L57.0887 38.5269H56.7509C56.6289 37.9252 56.4944 37.515 56.3473 37.2901C56.2003 37.0652 55.9814 36.895 55.6936 36.7765C55.4621 36.6914 55.0555 36.6489 54.4706 36.6489H51.2456V36.6428Z" fill="white"/>
<path d="M69.2657 35.7588L69.5691 39.3629H69.2657C68.9592 38.4634 68.5651 37.7888 68.0802 37.333C67.3827 36.6765 66.4818 36.3483 65.387 36.3483C63.8919 36.3483 62.7533 36.9227 61.9744 38.0744C61.3207 39.0439 60.9954 40.2017 60.9954 41.5419C60.9954 42.6298 61.2112 43.6235 61.646 44.523C62.0808 45.4226 62.647 46.079 63.3476 46.4983C64.0483 46.9147 64.7708 47.1244 65.509 47.1244C65.9407 47.1244 66.3598 47.0697 66.7665 46.9633C67.17 46.8569 67.561 46.6989 67.9363 46.4923V43.192C67.9363 42.6207 67.8925 42.2438 67.8018 42.0676C67.7111 41.8913 67.5735 41.7576 67.3858 41.6634C67.1981 41.5722 66.8666 41.5236 66.3943 41.5236V41.2045H70.9423V41.5236H70.7265C70.2761 41.5236 69.9664 41.6695 69.8006 41.9612C69.6849 42.1679 69.6254 42.5781 69.6254 43.192V46.6868C68.9623 47.0332 68.3054 47.2885 67.658 47.4526C67.0105 47.6136 66.291 47.6957 65.4997 47.6957C63.2288 47.6957 61.5053 46.9876 60.326 45.5745C59.4408 44.5139 58.9998 43.2892 58.9998 41.9035C58.9998 40.8976 59.2469 39.9373 59.7442 39.0165C60.3323 37.9225 61.1424 37.0807 62.1715 36.4912C63.0317 36.0019 64.0483 35.7588 65.2213 35.7588C65.6498 35.7588 66.0377 35.7922 66.388 35.8591C66.7383 35.9259 67.2325 36.0748 67.8738 36.3058C68.196 36.4243 68.4149 36.4821 68.5244 36.4821C68.6339 36.4821 68.7277 36.4334 68.8059 36.3362C68.8841 36.2389 68.931 36.0444 68.9498 35.7588H69.2657Z" fill="white"/>
<path d="M79.3095 43.6143H74.7615L73.9638 45.4164C73.7668 45.8601 73.6698 46.1913 73.6698 46.4101C73.6698 46.5833 73.7542 46.7383 73.9263 46.869C74.0952 46.9997 74.4643 47.0878 75.0305 47.1273V47.4373H71.3301V47.1273C71.8212 47.0422 72.1371 46.9328 72.2841 46.7991C72.5781 46.5286 72.9066 45.9816 73.2632 45.1581L77.3952 35.7617H77.6986L81.79 45.2583C82.1184 46.0211 82.4187 46.5165 82.6877 46.7444C82.9567 46.9723 83.3289 47.0999 83.8106 47.1273V47.4373H79.175V47.1273C79.6442 47.106 79.9601 47.03 80.1228 46.8994C80.2886 46.7717 80.3699 46.6137 80.3699 46.4283C80.3699 46.1822 80.2542 45.7902 80.0227 45.2583L79.3095 43.6143ZM79.0655 42.9913L77.073 38.3782L75.0273 42.9913H79.0655Z" fill="white"/>
<path d="M94.1797 44.2797L94.4644 44.3374L93.4603 47.4341H84.3611V47.1241H84.8021C85.2995 47.1241 85.6529 46.9661 85.8688 46.6531C85.9907 46.4738 86.0502 46.0575 86.0502 45.4071V38.0408C86.0502 37.3266 85.9689 36.883 85.8062 36.7037C85.581 36.4575 85.2463 36.3329 84.8021 36.3329H84.3611V36.0229H89.6817V36.3329C89.0561 36.3268 88.6214 36.3815 88.368 36.5001C88.1178 36.6186 87.9457 36.7675 87.8519 36.9468C87.758 37.1261 87.7143 37.5546 87.7143 38.2353V45.4071C87.7143 45.8721 87.7612 46.1942 87.8519 46.3674C87.9207 46.486 88.0271 46.5741 88.1709 46.6288C88.3148 46.6865 88.7653 46.7139 89.5222 46.7139H90.3793C91.2801 46.7139 91.912 46.6501 92.2779 46.5194C92.6408 46.3917 92.9755 46.1608 93.2758 45.8326C93.5761 45.5044 93.8763 44.9878 94.1797 44.2797Z" fill="white"/>
<path d="M13.0249 53.6123H11.3264L11.0136 54.4541H10.4756L11.8832 50.6919H12.4712L13.8725 54.4541H13.3377L13.0249 53.6123ZM12.881 53.2112L12.1772 51.2997L11.4734 53.2112H12.881Z" fill="white"/>
<path d="M16.8066 50.9025C17.1163 51.0574 17.3571 51.2762 17.5229 51.5619C17.6887 51.8476 17.7731 52.1849 17.7731 52.5708C17.7731 52.9568 17.6887 53.2941 17.5229 53.5767C17.3571 53.8624 17.1194 54.0781 16.8066 54.227C16.4969 54.3759 16.1278 54.4519 15.7024 54.4519H14.4888V50.6685H15.7024C16.1278 50.6715 16.4938 50.7475 16.8066 50.9025ZM16.8535 53.6588C17.1194 53.4004 17.2508 53.0358 17.2508 52.5708C17.2508 52.0998 17.1163 51.7321 16.8504 51.4677C16.5845 51.2033 16.1998 51.0726 15.7024 51.0726H14.9986V54.0477H15.7024C16.206 54.0477 16.5876 53.9171 16.8535 53.6588Z" fill="white"/>
<path d="M21.658 50.6714L20.1878 54.4548H19.5998L18.1296 50.6714H18.6708L19.8938 53.9352L21.1168 50.6714H21.658Z" fill="white"/>
<path d="M22.9936 54.2448C22.6965 54.0807 22.4588 53.8498 22.2867 53.555C22.1147 53.2602 22.0271 52.929 22.0271 52.5582C22.0271 52.1875 22.1147 51.8562 22.2867 51.5615C22.4588 51.2667 22.6965 51.0357 22.9936 50.8716C23.2908 50.7075 23.6224 50.6255 23.9821 50.6255C24.348 50.6255 24.6796 50.7075 24.9768 50.8716C25.2739 51.0357 25.5085 51.2637 25.6806 51.5584C25.8526 51.8532 25.937 52.1845 25.937 52.5582C25.937 52.932 25.8526 53.2633 25.6806 53.558C25.5085 53.8498 25.2739 54.0807 24.9768 54.2448C24.6796 54.4089 24.348 54.491 23.9821 54.491C23.6224 54.491 23.2939 54.4089 22.9936 54.2448ZM24.7171 53.8802C24.9361 53.7556 25.105 53.5824 25.2301 53.3544C25.3553 53.1265 25.4178 52.8621 25.4178 52.5613C25.4178 52.2574 25.3553 51.993 25.2301 51.7651C25.105 51.5402 24.9361 51.3639 24.7203 51.2424C24.5044 51.1178 24.2573 51.057 23.9821 51.057C23.7068 51.057 23.4597 51.1178 23.2439 51.2424C23.028 51.367 22.856 51.5402 22.734 51.7651C22.6089 51.993 22.5463 52.2574 22.5463 52.5613C22.5463 52.8621 22.6089 53.1265 22.734 53.3544C22.8591 53.5824 23.0312 53.7586 23.247 53.8802C23.4628 54.0017 23.7099 54.0655 23.9821 54.0655C24.2542 54.0625 24.5013 54.0017 24.7171 53.8802Z" fill="white"/>
<path d="M26.6783 51.5646C26.8504 51.2699 27.085 51.0389 27.379 50.8718C27.673 50.7046 28.0046 50.6226 28.3643 50.6226C28.7897 50.6226 29.1588 50.7228 29.4778 50.9204C29.7938 51.1179 30.0252 51.4005 30.1723 51.7682H29.5592C29.4497 51.5403 29.2964 51.3641 29.0931 51.2425C28.8898 51.1179 28.6458 51.0571 28.3643 51.0571C28.0922 51.0571 27.8482 51.1179 27.6323 51.2425C27.4165 51.3671 27.2476 51.5403 27.1225 51.7652C27.0005 51.9931 26.9379 52.2575 26.9379 52.5614C26.9379 52.8622 27.0005 53.1266 27.1225 53.3515C27.2445 53.5764 27.4165 53.7526 27.6323 53.8742C27.8482 53.9958 28.0922 54.0596 28.3643 54.0596C28.6458 54.0596 28.8898 53.9988 29.0931 53.8772C29.2964 53.7557 29.4528 53.5825 29.5592 53.3546H30.1691C30.0252 53.7162 29.7938 53.9958 29.4747 54.1933C29.1557 54.3908 28.7866 54.4881 28.3612 54.4881C27.9983 54.4881 27.6699 54.406 27.3759 54.2419C27.0787 54.0778 26.8472 53.8499 26.6752 53.5551C26.5032 53.2603 26.4187 52.9321 26.4187 52.5614C26.4187 52.1906 26.5063 51.8594 26.6783 51.5646Z" fill="white"/>
<path d="M33.2253 53.6123H31.5268L31.214 54.4541H30.676L32.0836 50.6919H32.6717L34.073 54.4541H33.5381L33.2253 53.6123ZM33.0814 53.2112L32.3776 51.2997L31.6738 53.2112H33.0814Z" fill="white"/>
<path d="M37.0883 50.6714V51.0725H36.0279V54.4548H35.5181V51.0725H34.4514V50.6714H37.0883Z" fill="white"/>
<path d="M38.2237 51.0723V52.3364H39.6438V52.7437H38.2237V54.0474H39.8096V54.4546H37.7139V50.665H39.8096V51.0723H38.2237Z" fill="white"/>
<path d="M41.1266 54.3603C40.9233 54.2722 40.7638 54.1476 40.648 53.9926C40.5323 53.8346 40.4729 53.6523 40.4697 53.4456H41.0109C41.0296 53.6219 41.1047 53.7738 41.2361 53.8923C41.3675 54.0139 41.5614 54.0747 41.8147 54.0747C42.0556 54.0747 42.2464 54.0169 42.3872 53.8984C42.5279 53.7799 42.5967 53.631 42.5967 53.4456C42.5967 53.2997 42.5561 53.1843 42.4747 53.0931C42.3934 53.0019 42.2902 52.9351 42.1682 52.8864C42.0462 52.8409 41.8804 52.7892 41.6709 52.7345C41.4144 52.6707 41.2079 52.6038 41.0547 52.54C40.9014 52.4762 40.7669 52.3729 40.6574 52.2331C40.5479 52.0933 40.4916 51.9049 40.4916 51.6709C40.4916 51.4642 40.5448 51.2819 40.6543 51.1239C40.7638 50.9658 40.9139 50.8412 41.111 50.7562C41.3049 50.668 41.5301 50.6255 41.7835 50.6255C42.1494 50.6255 42.4466 50.7136 42.6812 50.8929C42.9127 51.0692 43.044 51.3062 43.0753 51.5979H42.5154C42.4966 51.4521 42.4184 51.3244 42.2808 51.215C42.1432 51.1056 41.9618 51.0509 41.7334 51.0509C41.5207 51.0509 41.3487 51.1056 41.2142 51.212C41.0797 51.3184 41.014 51.4673 41.014 51.6587C41.014 51.7955 41.0547 51.9079 41.1329 51.996C41.2142 52.0842 41.3111 52.148 41.43 52.1936C41.5489 52.2392 41.7115 52.2908 41.9242 52.3486C42.1807 52.4185 42.3872 52.4853 42.5436 52.5522C42.7 52.619 42.8345 52.7223 42.9471 52.8621C43.0597 53.0019 43.116 53.1903 43.116 53.4304C43.116 53.6158 43.0659 53.789 42.9658 53.9501C42.8657 54.1142 42.7156 54.2448 42.5185 54.3451C42.3215 54.4454 42.0869 54.4971 41.821 54.4971C41.5583 54.491 41.3268 54.4484 41.1266 54.3603Z" fill="white"/>
<path d="M48.3427 54.4545L47.8329 53.9562C47.6421 54.1476 47.4388 54.2904 47.2229 54.3816C47.0071 54.4728 46.7631 54.5214 46.491 54.5214C46.222 54.5214 45.9843 54.4728 45.7778 54.3816C45.5714 54.2874 45.4118 54.1537 45.2961 53.9805C45.1835 53.8072 45.1272 53.6036 45.1272 53.3727C45.1272 53.1083 45.2054 52.8773 45.3587 52.6737C45.5119 52.4701 45.7403 52.3151 46.0437 52.1997C45.9248 52.0629 45.8372 51.9353 45.7872 51.8198C45.734 51.7043 45.709 51.5767 45.709 51.4399C45.709 51.2819 45.7497 51.136 45.8341 51.0084C45.9186 50.8808 46.0374 50.7805 46.1938 50.7075C46.3502 50.6346 46.5317 50.5981 46.735 50.5981C46.9352 50.5981 47.1103 50.6346 47.2605 50.7136C47.4106 50.7896 47.5201 50.896 47.5952 51.0297C47.6702 51.1664 47.7015 51.3153 47.6952 51.4825H47.1854C47.1885 51.3336 47.1479 51.2181 47.0571 51.133C46.9664 51.0479 46.8538 51.0054 46.7099 51.0054C46.5598 51.0054 46.4409 51.0449 46.3502 51.1269C46.2595 51.209 46.2126 51.3123 46.2126 51.4399C46.2126 51.5493 46.2439 51.6527 46.3033 51.756C46.3659 51.8563 46.4691 51.9809 46.613 52.1298L47.7766 53.2633L47.8767 53.1113L48.2552 52.4914H48.8026L48.3459 53.2633C48.2833 53.3727 48.2082 53.4851 48.1238 53.6067L48.9996 54.4576H48.3427V54.4545ZM47.0384 53.9805C47.201 53.9045 47.3543 53.786 47.4982 53.6279L46.3534 52.5096C45.8779 52.6859 45.6371 52.9685 45.6371 53.3514C45.6371 53.5641 45.7153 53.7434 45.8748 53.8832C46.0343 54.023 46.2376 54.0959 46.491 54.0959C46.6943 54.0959 46.8757 54.0595 47.0384 53.9805Z" fill="white"/>
<path d="M53.2754 53.6123H51.5769L51.2641 54.4541H50.7292L52.1368 50.6919H52.7249L54.1262 54.4541H53.5882L53.2754 53.6123ZM53.1315 53.2112L52.4277 51.2997L51.7239 53.2112H53.1315Z" fill="white"/>
<path d="M55.287 54.3603C55.0837 54.2722 54.9242 54.1476 54.8084 53.9926C54.6927 53.8346 54.6333 53.6523 54.6301 53.4456H55.1713C55.19 53.6219 55.2651 53.7738 55.3965 53.8923C55.5279 54.0139 55.7218 54.0747 55.9752 54.0747C56.216 54.0747 56.4068 54.0169 56.5476 53.8984C56.6883 53.7799 56.7571 53.631 56.7571 53.4456C56.7571 53.2997 56.7165 53.1843 56.6352 53.0931C56.5538 53.0019 56.4506 52.9351 56.3286 52.8864C56.2066 52.8409 56.0408 52.7892 55.8313 52.7345C55.5748 52.6707 55.3683 52.6038 55.2151 52.54C55.0587 52.4762 54.9273 52.3729 54.8178 52.2331C54.7083 52.0933 54.652 51.9049 54.652 51.6709C54.652 51.4642 54.7052 51.2819 54.8147 51.1239C54.9242 50.9658 55.0743 50.8412 55.2714 50.7562C55.4684 50.668 55.6905 50.6255 55.9439 50.6255C56.3098 50.6255 56.607 50.7136 56.8416 50.8929C57.0731 51.0692 57.2044 51.3062 57.2357 51.5979H56.6758C56.657 51.4521 56.5788 51.3244 56.4412 51.215C56.3036 51.1056 56.1222 51.0509 55.8938 51.0509C55.6811 51.0509 55.5091 51.1056 55.3746 51.212C55.2401 51.3184 55.1744 51.4673 55.1744 51.6587C55.1744 51.7955 55.2151 51.9079 55.2933 51.996C55.3746 52.0842 55.4716 52.148 55.5904 52.1936C55.7093 52.2392 55.8719 52.2908 56.0846 52.3486C56.3411 52.4185 56.5476 52.4853 56.704 52.5522C56.8604 52.619 56.9949 52.7223 57.1075 52.8621C57.2201 53.0019 57.2764 53.1903 57.2764 53.4304C57.2764 53.6158 57.2263 53.789 57.1262 53.9501C57.0261 54.1142 56.876 54.2448 56.6789 54.3451C56.4819 54.4454 56.2473 54.4971 55.9814 54.4971C55.7187 54.491 55.4903 54.4484 55.287 54.3603Z" fill="white"/>
<path d="M58.5651 54.3603C58.3618 54.2722 58.2022 54.1476 58.0865 53.9926C57.9708 53.8346 57.9113 53.6523 57.9082 53.4456H58.4493C58.4681 53.6219 58.5432 53.7738 58.6746 53.8923C58.8059 54.0139 58.9999 54.0747 59.2532 54.0747C59.4941 54.0747 59.6849 54.0169 59.8256 53.8984C59.9664 53.7799 60.0352 53.631 60.0352 53.4456C60.0352 53.2997 59.9945 53.1843 59.9132 53.0931C59.8319 53.0019 59.7287 52.9351 59.6067 52.8864C59.4847 52.8409 59.3189 52.7892 59.1093 52.7345C58.8528 52.6707 58.6464 52.6038 58.4931 52.54C58.3367 52.4762 58.2054 52.3729 58.0959 52.2331C57.9864 52.0933 57.9301 51.9049 57.9301 51.6709C57.9301 51.4642 57.9833 51.2819 58.0928 51.1239C58.2022 50.9658 58.3524 50.8412 58.5494 50.7562C58.7465 50.668 58.9686 50.6255 59.2219 50.6255C59.5879 50.6255 59.8851 50.7136 60.1197 50.8929C60.3511 51.0692 60.4825 51.3062 60.5138 51.5979H59.9539C59.9351 51.4521 59.8569 51.3244 59.7193 51.215C59.5817 51.1056 59.4002 51.0509 59.1719 51.0509C58.9592 51.0509 58.7872 51.1056 58.6527 51.212C58.5182 51.3184 58.4525 51.4673 58.4525 51.6587C58.4525 51.7955 58.4931 51.9079 58.5713 51.996C58.6527 52.0842 58.7496 52.148 58.8685 52.1936C58.9873 52.2392 59.15 52.2908 59.3627 52.3486C59.6192 52.4185 59.8256 52.4853 59.982 52.5522C60.1384 52.619 60.2729 52.7223 60.3855 52.8621C60.4982 53.0019 60.5545 53.1903 60.5545 53.4304C60.5545 53.6158 60.5044 53.789 60.4043 53.9501C60.3042 54.1142 60.1541 54.2448 59.957 54.3451C59.76 54.4454 59.5254 54.4971 59.2595 54.4971C58.9999 54.491 58.7684 54.4484 58.5651 54.3603Z" fill="white"/>
<path d="M62.0774 54.2448C61.7802 54.0807 61.5425 53.8498 61.3705 53.555C61.1984 53.2602 61.1108 52.929 61.1108 52.5582C61.1108 52.1875 61.1984 51.8562 61.3705 51.5615C61.5425 51.2667 61.7802 51.0357 62.0774 50.8716C62.3745 50.7075 62.7061 50.6255 63.0658 50.6255C63.4318 50.6255 63.7634 50.7075 64.0605 50.8716C64.3577 51.0357 64.5923 51.2637 64.7643 51.5584C64.9363 51.8532 65.0208 52.1845 65.0208 52.5582C65.0208 52.932 64.9363 53.2633 64.7643 53.558C64.5923 53.8498 64.3577 54.0807 64.0605 54.2448C63.7634 54.4089 63.4318 54.491 63.0658 54.491C62.7061 54.491 62.3745 54.4089 62.0774 54.2448ZM63.8009 53.8802C64.0198 53.7556 64.1919 53.5824 64.3139 53.3544C64.439 53.1265 64.5016 52.8621 64.5016 52.5613C64.5016 52.2574 64.439 51.993 64.3139 51.7651C64.1888 51.5402 64.0198 51.3639 63.804 51.2424C63.5882 51.1178 63.3411 51.057 63.0658 51.057C62.7906 51.057 62.5434 51.1178 62.3276 51.2424C62.1118 51.367 61.9398 51.5402 61.8178 51.7651C61.6926 51.993 61.6301 52.2574 61.6301 52.5613C61.6301 52.8621 61.6926 53.1265 61.8178 53.3544C61.9429 53.5824 62.1149 53.7586 62.3307 53.8802C62.5497 54.0048 62.7937 54.0655 63.0658 54.0655C63.3379 54.0625 63.5851 54.0017 63.8009 53.8802Z" fill="white"/>
<path d="M65.7589 51.5646C65.931 51.2699 66.1656 51.0389 66.4596 50.8718C66.7568 50.7046 67.0852 50.6226 67.4449 50.6226C67.8703 50.6226 68.2394 50.7228 68.5585 50.9204C68.8744 51.1179 69.1058 51.4005 69.2497 51.7682H68.6398C68.5303 51.5403 68.377 51.3641 68.1737 51.2425C67.9704 51.1179 67.7264 51.0571 67.4449 51.0571C67.1728 51.0571 66.9288 51.1179 66.713 51.2425C66.4971 51.3671 66.3282 51.5403 66.2062 51.7652C66.0842 51.9931 66.0217 52.2575 66.0217 52.5614C66.0217 52.8622 66.0842 53.1266 66.2062 53.3515C66.3282 53.5764 66.4971 53.7526 66.713 53.8742C66.9288 53.9958 67.1728 54.0596 67.4449 54.0596C67.7295 54.0596 67.9704 53.9988 68.1737 53.8772C68.377 53.7557 68.5334 53.5825 68.6398 53.3546H69.2497C69.1058 53.7162 68.8744 53.9958 68.5585 54.1933C68.2425 54.3908 67.8703 54.4881 67.4449 54.4881C67.0821 54.4881 66.7536 54.406 66.4596 54.2419C66.1624 54.0778 65.931 53.8499 65.7589 53.5551C65.5869 53.2603 65.5024 52.9321 65.5024 52.5614C65.5024 52.1906 65.59 51.8594 65.7589 51.5646Z" fill="white"/>
<path d="M70.5167 50.6714V54.4548H70.01V50.6714H70.5167Z" fill="white"/>
<path d="M73.6853 53.6123H71.9868L71.674 54.4541H71.1392L72.5467 50.6919H73.1348L74.5361 54.4541H73.9981L73.6853 53.6123ZM73.5383 53.2112L72.8345 51.2997L72.1307 53.2112H73.5383Z" fill="white"/>
<path d="M77.5456 50.6714V51.0725H76.4852V54.4548H75.9753V51.0725H74.9087V50.6714H77.5456Z" fill="white"/>
<path d="M78.681 51.0723V52.3364H80.1011V52.7437H78.681V54.0474H80.2669V54.4546H78.1711V50.665H80.2669V51.0723H78.681Z" fill="white"/>
<path d="M81.5834 54.3603C81.3801 54.2722 81.2205 54.1476 81.1048 53.9926C80.9891 53.8346 80.9296 53.6523 80.9265 53.4456H81.4677C81.4864 53.6219 81.5615 53.7738 81.6929 53.8923C81.8242 54.0139 82.0182 54.0747 82.2715 54.0747C82.5124 54.0747 82.7032 54.0169 82.844 53.8984C82.9847 53.7799 83.0535 53.631 83.0535 53.4456C83.0535 53.2997 83.0129 53.1843 82.9315 53.0931C82.8502 53.0019 82.747 52.9351 82.625 52.8864C82.503 52.8409 82.3372 52.7892 82.1276 52.7345C81.8712 52.6707 81.6647 52.6038 81.5114 52.54C81.355 52.4762 81.2237 52.3729 81.1142 52.2331C81.0047 52.0933 80.9484 51.9049 80.9484 51.6709C80.9484 51.4642 81.0016 51.2819 81.1111 51.1239C81.2205 50.9658 81.3707 50.8412 81.5677 50.7562C81.7648 50.668 81.9869 50.6255 82.2403 50.6255C82.6062 50.6255 82.9034 50.7136 83.138 50.8929C83.3695 51.0692 83.5008 51.3062 83.5321 51.5979H82.9722C82.9534 51.4521 82.8752 51.3244 82.7376 51.215C82.6 51.1056 82.4186 51.0509 82.1902 51.0509C81.9775 51.0509 81.8055 51.1056 81.671 51.212C81.5365 51.3184 81.4708 51.4673 81.4708 51.6587C81.4708 51.7955 81.5114 51.9079 81.5896 51.996C81.671 52.0842 81.7679 52.148 81.8868 52.1936C82.0057 52.2392 82.1683 52.2908 82.381 52.3486C82.6375 52.4185 82.844 52.4853 83.0004 52.5522C83.1568 52.619 83.2913 52.7223 83.4039 52.8621C83.5165 53.0019 83.5728 53.1903 83.5728 53.4304C83.5728 53.6158 83.5227 53.789 83.4226 53.9501C83.3225 54.1142 83.1724 54.2448 82.9753 54.3451C82.7783 54.4454 82.5437 54.4971 82.2778 54.4971C82.015 54.491 81.7867 54.4484 81.5834 54.3603Z" fill="white"/>
<path d="M60.3165 16.5558H60.0944L56.7788 7.39956C56.9915 7.37524 57.1604 7.19595 57.1604 6.98322C57.1604 6.78265 57.0165 6.61551 56.8226 6.57297V6.4271C56.9195 6.39063 57.0165 6.35113 57.1103 6.30554C57.3105 6.2083 57.5576 6.01989 57.4169 5.8102C57.1948 5.482 56.8382 5.88921 56.6067 5.97126C56.2689 6.09282 55.9123 6.0837 55.5589 6.04724C54.7299 5.95911 53.9386 5.56101 53.1441 5.33613C51.602 4.90156 50.16 4.56424 48.5554 4.60071C48.4991 4.60071 48.008 4.63414 47.5919 4.68884C47.5888 4.6706 47.5857 4.65237 47.5794 4.63718C47.7202 4.56424 47.8046 4.467 47.8046 4.3576C47.8046 4.25123 47.7233 4.15703 47.5919 4.08409C47.6201 4.04459 47.6357 3.999 47.6357 3.95342C47.6357 3.8349 47.5356 3.72854 47.3792 3.66472C47.495 3.47023 47.5669 3.21496 47.5669 2.9992C47.5669 2.68619 47.4105 2.55855 47.1884 2.51905C47.4293 2.44004 47.6045 2.21819 47.6045 1.95685C47.6045 1.62864 47.3323 1.36426 46.9945 1.36426C46.6567 1.36426 46.3846 1.62864 46.3846 1.95685C46.3846 2.21819 46.5597 2.44004 46.8006 2.51905C46.5816 2.55855 46.4221 2.68619 46.4221 2.9992C46.4221 3.21192 46.494 3.47023 46.6098 3.66472C46.4534 3.73158 46.3533 3.8349 46.3533 3.95342C46.3533 3.999 46.3689 4.04459 46.3971 4.08409C46.2657 4.15703 46.1844 4.25123 46.1844 4.3576C46.1844 4.47611 46.2876 4.58248 46.4471 4.65541C46.444 4.66757 46.4409 4.67668 46.4409 4.68884C46.0248 4.63414 45.5337 4.60071 45.4774 4.60071C43.8728 4.56424 42.4308 4.90156 40.8887 5.33613C40.0911 5.56101 39.3029 5.95911 38.4739 6.04724C38.1205 6.08674 37.7608 6.09282 37.4261 5.97126C37.1946 5.88617 36.838 5.482 36.6159 5.8102C36.4752 6.01989 36.7223 6.2083 36.9225 6.30554C37.0194 6.35113 37.1164 6.39367 37.2102 6.4271V6.57297C37.0163 6.61551 36.8724 6.78265 36.8724 6.98322C36.8724 7.19899 37.0382 7.37524 37.254 7.39956L33.9384 16.5558H33.7163C33.5693 16.5558 33.4504 16.6713 33.4504 16.8141C33.4504 16.9509 33.5599 17.0603 33.6944 17.0694C33.7789 17.9051 35.3616 18.5676 37.3041 18.5676C39.2465 18.5676 40.8324 17.9021 40.9138 17.0694C41.0514 17.0603 41.1577 16.9478 41.1577 16.8141C41.1577 16.6713 41.0389 16.5558 40.8919 16.5558H40.6698L37.3573 7.39956C37.57 7.37524 37.7389 7.19595 37.7389 6.98322C37.7389 6.78265 37.595 6.61551 37.4011 6.57297V6.49092C39.6813 7.16252 42.1399 5.00489 46.5316 5.99861C46.5316 5.99861 46.9851 6.2478 47.4919 5.99861C51.8835 5.00489 54.3421 7.16252 56.6224 6.49092V6.57297C56.4284 6.61551 56.2845 6.78265 56.2845 6.98322C56.2845 7.19899 56.4503 7.37524 56.6662 7.39956L53.3505 16.5558H53.1284C52.9814 16.5558 52.8626 16.6713 52.8626 16.8141C52.8626 16.9509 52.972 17.0603 53.1065 17.0694C53.191 17.9051 54.7737 18.5676 56.7162 18.5676C58.6587 18.5676 60.2414 17.9021 60.3259 17.0694C60.4635 17.0603 60.5699 16.9478 60.5699 16.8141C60.5824 16.6713 60.4635 16.5558 60.3165 16.5558ZM37.2134 16.5558H34.148L37.2134 8.08331V16.5558ZM37.4073 8.08635L40.4727 16.5589H37.4073V8.08635ZM37.5512 6.98322C37.5512 7.11086 37.4417 7.21722 37.3103 7.21722C37.179 7.21722 37.0695 7.11086 37.0695 6.98322C37.0695 6.85559 37.179 6.74923 37.3103 6.74923C37.4417 6.74923 37.5512 6.85255 37.5512 6.98322ZM56.6286 16.5558H53.5632L56.6286 8.08331V16.5558ZM56.4847 6.98322C56.4847 6.85559 56.5911 6.74923 56.7256 6.74923C56.857 6.74923 56.9664 6.85559 56.9664 6.98322C56.9664 7.11086 56.857 7.21722 56.7256 7.21722C56.5942 7.21722 56.4847 7.11086 56.4847 6.98322ZM56.8226 16.5558V8.08635L59.888 16.5589H56.8226V16.5558Z" fill="white"/>
<path fill-rule="evenodd" clip-rule="evenodd" d="M47.7735 30.0881C48.2395 27.5536 49.5283 25.3261 51.3174 23.29C50.3102 21.4119 49.5846 19.4518 49.3343 17.355H49.4626C49.6502 17.355 49.8035 17.2061 49.8035 17.0237V16.5162C49.8035 16.3339 49.6502 16.185 49.4626 16.185H49.3093V15.7322H49.8629C50.0506 15.7322 50.2039 15.5833 50.2039 15.401V14.8935C50.2039 14.7111 50.0506 14.5622 49.8629 14.5622H49.3093V6.9406C48.837 6.96795 48.3678 7.01961 47.8892 7.12293C47.6139 7.23233 47.3262 7.29007 47.0259 7.29007C46.6537 7.29007 46.3502 7.20194 46.1532 7.12293C45.562 6.9953 44.9865 6.93756 44.4047 6.92236V14.5652H43.851C43.6633 14.5652 43.5132 14.7142 43.5132 14.8965V15.404C43.5132 15.5863 43.6665 15.7352 43.851 15.7352H44.4047V16.188H44.2483C44.0606 16.188 43.9104 16.3369 43.9104 16.5193V17.0268C43.9104 17.2091 44.0637 17.358 44.2483 17.358H44.3828C44.1263 19.5795 43.4412 21.5213 42.481 23.2839C44.4735 25.3899 45.5495 27.6812 45.9624 30.1063C45.8216 30.1732 45.7215 30.3129 45.7215 30.477C45.7215 30.705 45.9123 30.8903 46.1469 30.8903C46.3753 30.8903 46.5536 30.7171 46.5692 30.4983H46.5755V22.2963C46.3065 22.1838 46.1219 21.9255 46.1219 21.6216C46.1219 21.2175 46.4597 20.8892 46.8757 20.8892C47.2918 20.8892 47.6296 21.2175 47.6296 21.6216C47.6296 21.9164 47.4513 22.1686 47.1948 22.2871V30.471V30.4922H47.1979C47.2104 30.708 47.3919 30.8843 47.6202 30.8843C47.8548 30.8843 48.0456 30.6989 48.0456 30.471C48.0456 30.2977 47.933 30.1488 47.7735 30.0881Z" fill="white"/>
<path d="M65.4744 21.5517C64.3139 22.3388 64.1262 23.1958 64.0949 23.4328C63.9104 23.5392 63.7383 23.6303 63.5819 23.7154C63.829 23.3173 64.0605 22.9131 64.2732 22.4968C64.6298 21.7918 64.9363 21.0624 65.196 20.3209C65.2241 20.2389 65.2523 20.1568 65.2804 20.0748C65.4806 19.464 65.7746 18.8835 66.1625 18.3639C66.1875 18.3305 66.2157 18.294 66.2407 18.2606C69.4938 16.5284 68.0017 13.0032 68.0017 13.0032C68.0518 13.7812 67.2761 14.3768 66.4816 15.796C65.8059 17.0055 66.0311 17.8533 66.1156 18.0782C65.9498 18.3274 65.7934 18.5462 65.6589 18.7286C65.7121 18.5006 65.7621 18.2727 65.8059 18.0448C65.9592 17.2759 66.0468 16.4949 66.0843 15.7139L66.0968 15.4222C66.1031 15.325 66.1062 15.2277 66.1031 15.1305V14.544C66.0999 14.3495 66.0843 14.155 66.078 13.9574C66.0718 13.8602 66.0718 13.763 66.0624 13.6657L66.0343 13.374C66.0155 13.1795 66.028 12.985 66.0655 12.7966L66.297 11.6813C68.668 8.9098 65.9467 6.16261 65.9467 6.16261C66.2876 6.87068 65.7903 7.69727 65.5901 9.30486C65.4181 10.6693 65.9498 11.3774 66.1125 11.5597C66.0468 11.8819 65.9748 12.1675 65.9154 12.3954L65.8904 12.2131C65.8685 12.0186 65.8216 11.8302 65.784 11.6387L65.7277 11.3531C65.709 11.2558 65.6902 11.1616 65.6652 11.0674C65.5682 10.6906 65.4806 10.3077 65.3555 9.93999L65.2679 9.66041L65.2241 9.52062L65.1741 9.38387L64.9708 8.83382C64.8425 8.51474 64.708 8.19869 64.5672 7.88264C64.3108 7.32044 64.1512 6.71873 64.1137 6.10487C64.1043 5.96204 64.0949 5.82225 64.0793 5.6855C65.3555 2.30318 61.8428 0.601384 61.8428 0.601384C62.409 1.15751 62.2275 2.09957 62.5904 3.67677C62.9 5.01998 63.6445 5.51228 63.8603 5.6308C63.9291 6.08968 63.9667 6.47562 63.9854 6.74305C63.9792 6.73393 63.9761 6.72481 63.9698 6.71266L63.829 6.45739C63.7821 6.3723 63.7258 6.29025 63.6758 6.2082L63.3661 5.70981L63.0314 5.22662C62.9751 5.14761 62.9219 5.06556 62.8625 4.98655L62.6842 4.75255C62.4997 4.50336 62.3057 4.26329 62.1024 4.02929C61.8209 3.68285 61.4362 3.18447 61.1015 2.82284C60.9451 2.65266 60.8074 2.46728 60.7073 2.26064C59.2466 -0.732702 55.6745 0.109079 55.6745 0.109079C56.4752 0.157702 56.9882 0.978211 58.3395 1.92332C59.4092 2.66785 60.2538 2.62531 60.5635 2.57364C60.601 2.5858 60.6448 2.59796 60.6823 2.61011L61.0921 3.02644C61.627 3.59776 62.1368 4.18731 62.5841 4.82549L62.7562 5.05948C62.8125 5.13849 62.8625 5.22055 62.9157 5.3026L63.2347 5.78882L63.3692 6.01674C63.0126 5.72501 62.6561 5.46974 62.3026 5.2479C60.3758 2.16947 56.8162 3.77402 56.8162 3.77402C57.6138 3.69197 58.2613 4.41523 59.7564 5.1233C61.0295 5.72501 61.8897 5.4667 62.1181 5.37857C62.6279 5.67031 63.0533 5.95293 63.2973 6.12311C63.4506 6.23251 63.5819 6.36926 63.6695 6.5364V6.53944L63.804 6.79775C64.1731 7.47846 64.4703 8.19261 64.7393 8.91284L64.9238 9.45984L64.9708 9.59659L65.0114 9.73638L65.0896 10.0129C65.2022 10.3806 65.2804 10.7575 65.3649 11.1312C65.3868 11.2255 65.4055 11.3197 65.4212 11.4139V11.4199C65.1803 11.0614 64.9301 10.7331 64.6705 10.4353C63.7571 6.94361 59.869 7.46631 59.869 7.46631C60.6573 7.61522 61.0577 8.49043 62.2744 9.59355C63.3098 10.5326 64.2107 10.5295 64.4578 10.5083C64.7362 10.803 64.9645 11.0674 65.1334 11.271C65.368 11.5537 65.5213 11.894 65.5557 12.2556C65.5557 12.2587 65.5557 12.2587 65.5557 12.2617L65.6214 12.833L65.637 12.9759L65.6464 13.1187L65.6652 13.4044L65.6839 13.69C65.6902 13.7842 65.6902 13.8815 65.6933 13.9757C65.6964 14.1671 65.7027 14.3586 65.7027 14.547L65.6871 15.1183C65.6871 15.2125 65.6808 15.3098 65.6714 15.404L65.6495 15.6896C65.6182 16.1029 65.5713 16.5132 65.5119 16.9234C65.4274 16.58 65.3305 16.2518 65.221 15.9449C65.6495 12.3651 61.8272 11.5081 61.8272 11.5081C62.509 11.9214 62.5622 12.8786 63.2942 14.3282C63.9166 15.565 64.7612 15.875 64.9958 15.9388C65.0865 16.1607 65.1647 16.3673 65.2304 16.5496C65.393 16.9964 65.4274 17.4796 65.3211 17.9445C65.3211 17.9475 65.3211 17.9506 65.318 17.9506C65.149 18.6951 64.9426 19.4305 64.6705 20.1417C64.4015 20.8558 64.0824 21.5517 63.7227 22.2233C63.6163 22.4178 63.5037 22.6093 63.388 22.8007C63.4537 22.3965 63.4912 22.0075 63.5069 21.6368C65.2554 18.4611 62.0211 16.2974 62.0211 16.2974C62.4997 16.9234 62.1869 17.8321 62.3214 19.4427C62.434 20.8133 63.1034 21.4028 63.2973 21.5487C63.2973 21.6003 63.2973 21.652 63.2973 21.7037C63.291 22.5758 63.0158 23.4298 62.4965 24.1409C62.4934 24.1439 62.4903 24.1469 62.4903 24.153C62.0399 24.773 61.5331 25.3504 61.0014 25.9034C60.8637 26.0372 60.7355 26.18 60.5947 26.3107L60.1725 26.7027C60.1662 26.6966 60.1662 26.6996 60.16 26.6936C60.2882 26.4717 60.4039 26.2529 60.5072 26.0341C63.388 23.764 61.2672 20.5549 61.2672 20.5549C61.4581 21.3116 60.8074 22.0319 60.2882 23.5696C59.8472 24.8763 60.2256 25.6694 60.3476 25.8791C60.2632 26.0767 60.1818 26.259 60.1036 26.4201C59.916 26.8151 59.6407 27.1676 59.2872 27.4351C59.2841 27.4351 59.2841 27.4381 59.281 27.4381C58.6742 27.9091 58.0392 28.3498 57.3698 28.7296C56.9819 28.9545 56.5847 29.1612 56.1781 29.3587C56.347 29.1916 56.5034 29.0214 56.6473 28.8512C59.4061 27.6144 58.3895 24.6484 58.3895 24.6484C58.3833 25.2865 57.717 25.7302 56.9851 26.8486C56.3626 27.7997 56.4971 28.5048 56.5534 28.6932C56.4627 28.8087 56.3782 28.915 56.2969 29.0123C56.0342 29.3344 55.6932 29.5897 55.3054 29.7507C55.3022 29.7507 55.3022 29.7538 55.2991 29.7538C54.5859 30.0455 53.854 30.2886 53.1095 30.4892L53.1001 30.4922H53.097C52.8968 30.5469 52.7467 30.7232 52.7404 30.9268C52.731 31.2763 53.0626 31.4981 53.3754 31.4069C54.1574 31.176 54.9237 30.8964 55.6682 30.5712C56.4127 30.243 57.129 29.8601 57.8171 29.4407C58.2331 29.1885 58.6335 28.915 59.0245 28.6263C59.5531 28.2343 60.1881 28.0003 60.8512 27.9456C64.3139 29.2371 66.1187 25.8487 66.1187 25.8487C65.54 26.3897 64.5704 26.2013 62.9407 26.5295C61.555 26.809 61.0358 27.5262 60.9107 27.7329C60.576 27.7754 60.2819 27.8028 60.0411 27.818C60.26 27.6296 60.4759 27.4351 60.6886 27.2406L61.1171 26.8212C61.261 26.6844 61.3924 26.5325 61.53 26.3866C62.0711 25.7971 62.581 25.1832 63.0314 24.5268C63.0408 24.5147 63.0502 24.4995 63.0596 24.4873C63.2817 24.1652 63.5819 23.9069 63.9354 23.7337C63.9917 23.7063 64.0511 23.6759 64.1074 23.6455C67.8141 23.5118 68.1018 19.7071 68.1018 19.7071C67.8047 20.4303 66.8413 20.6279 65.4744 21.5517Z" fill="white"/>
<path d="M28.6958 21.5517C29.8563 22.3388 30.044 23.1958 30.0753 23.4328C30.2598 23.5392 30.4318 23.6303 30.5882 23.7154C30.3411 23.3173 30.1097 22.9131 29.897 22.4968C29.5404 21.7918 29.2338 21.0624 28.9742 20.3209C28.9461 20.2389 28.9179 20.1568 28.8898 20.0748C28.6864 19.464 28.3955 18.8835 28.0077 18.3639C27.9826 18.3305 27.9545 18.294 27.9295 18.2606C24.6764 16.5284 26.1684 13.0032 26.1684 13.0032C26.1184 13.7812 26.8941 14.3768 27.6886 15.796C28.3643 17.0055 28.139 17.8533 28.0546 18.0782C28.2204 18.3274 28.3768 18.5462 28.5113 18.7286C28.4581 18.5006 28.4081 18.2727 28.3643 18.0448C28.211 17.2759 28.1234 16.4949 28.0859 15.7139L28.0734 15.4222C28.0671 15.325 28.064 15.2277 28.0671 15.1305V14.544C28.0702 14.3495 28.0859 14.155 28.0921 13.9574C28.0984 13.8602 28.0984 13.763 28.1078 13.6657L28.1359 13.374C28.1547 13.1795 28.1422 12.985 28.1046 12.7966L27.8732 11.6813C25.5022 8.9098 28.2235 6.16261 28.2235 6.16261C27.8826 6.87068 28.3799 7.69727 28.5801 9.30486C28.7521 10.6693 28.2204 11.3774 28.0577 11.5597C28.1234 11.8819 28.1954 12.1675 28.2548 12.3954L28.2798 12.2131C28.3017 12.0186 28.3486 11.8302 28.3862 11.6387L28.4425 11.3531C28.4612 11.2558 28.48 11.1616 28.505 11.0674C28.602 10.6906 28.6896 10.3077 28.8147 9.93999L28.9023 9.66041L28.9461 9.52062L28.9961 9.38387L29.1994 8.83382C29.3277 8.51474 29.4622 8.19869 29.6029 7.88264C29.8594 7.32044 30.0189 6.71873 30.0565 6.10487C30.0659 5.96204 30.0753 5.82225 30.0909 5.6855C28.8147 2.30318 32.3274 0.601384 32.3274 0.601384C31.7612 1.15751 31.9426 2.09957 31.5798 3.67677C31.2701 5.01998 30.5257 5.51228 30.3099 5.6308C30.241 6.08968 30.2066 6.47562 30.1847 6.74305C30.191 6.73393 30.1941 6.72481 30.2004 6.71266L30.3411 6.45739C30.388 6.3723 30.4444 6.29025 30.4944 6.2082L30.8041 5.70981L31.1388 5.22662C31.1951 5.14761 31.2482 5.06556 31.3077 4.98655L31.486 4.75255C31.6705 4.50336 31.8644 4.26329 32.0678 4.02929C32.3493 3.68285 32.734 3.18447 33.0687 2.82284C33.2251 2.65266 33.3627 2.46728 33.4628 2.26064C34.9236 -0.732702 38.4957 0.109079 38.4957 0.109079C37.695 0.157702 37.182 0.978211 35.8307 1.92332C34.7609 2.66785 33.9164 2.62531 33.6067 2.57364C33.5692 2.5858 33.5254 2.59796 33.4879 2.61011L33.0781 3.02644C32.5432 3.59776 32.0334 4.18731 31.5861 4.82549L31.414 5.05948C31.3577 5.13849 31.3077 5.22055 31.2545 5.3026L30.9354 5.78882L30.8009 6.01674C31.1575 5.72501 31.5141 5.46974 31.8676 5.2479C33.7944 2.16947 37.354 3.77402 37.354 3.77402C36.5564 3.69197 35.9089 4.41523 34.4137 5.1233C33.1407 5.72501 32.2805 5.4667 32.0521 5.37857C31.5423 5.67031 31.1169 5.95293 30.8729 6.12311C30.7196 6.23251 30.5882 6.36926 30.5007 6.5364V6.53944L30.3662 6.79775C29.9971 7.47846 29.6999 8.19261 29.4309 8.91284L29.2463 9.45984L29.1994 9.59659L29.1619 9.73638L29.0837 10.0129C28.9711 10.3806 28.8929 10.7575 28.8084 11.1312C28.7865 11.2255 28.7678 11.3197 28.7521 11.4139V11.4199C28.993 11.0614 29.2432 10.7331 29.5028 10.4353C30.4162 6.94361 34.3043 7.46631 34.3043 7.46631C33.516 7.61522 33.1156 8.49043 31.8989 9.59355C30.8635 10.5326 29.9626 10.5295 29.7155 10.5083C29.4371 10.803 29.2088 11.0674 29.0399 11.271C28.8053 11.5537 28.652 11.894 28.6176 12.2556C28.6176 12.2587 28.6176 12.2587 28.6176 12.2617L28.5519 12.833L28.5363 12.9759L28.5269 13.1187L28.5081 13.4044L28.4894 13.69C28.4831 13.7842 28.4831 13.8815 28.48 13.9757C28.4706 14.1641 28.4644 14.3525 28.4644 14.544L28.48 15.1153C28.48 15.2095 28.4862 15.3067 28.4956 15.4009L28.5175 15.6866C28.5488 16.0999 28.5957 16.5101 28.6552 16.9204C28.7396 16.577 28.8366 16.2488 28.9461 15.9419C28.5175 12.362 32.3399 11.505 32.3399 11.505C31.658 11.9183 31.6048 12.8756 30.8729 14.3252C30.2504 15.562 29.4059 15.872 29.1713 15.9358C29.0806 16.1576 29.0024 16.3643 28.9367 16.5466C28.774 16.9933 28.7396 17.4765 28.846 17.9415C28.846 17.9445 28.846 17.9475 28.8491 17.9475C29.018 18.6921 29.2244 19.4275 29.4966 20.1386C29.7656 20.8528 30.0846 21.5487 30.4444 22.2203C30.5507 22.4148 30.6633 22.6062 30.779 22.7977C30.7134 22.3935 30.6758 22.0045 30.6602 21.6338C28.9117 18.4581 32.146 16.2944 32.146 16.2944C31.6674 16.9204 31.9802 17.829 31.8457 19.4397C31.7331 20.8102 31.0637 21.3998 30.8698 21.5456C30.8698 21.5973 30.8698 21.649 30.8698 21.7006C30.876 22.5728 31.1513 23.4267 31.6705 24.1378C31.6736 24.1409 31.6768 24.1439 31.6768 24.15C32.1272 24.7699 32.6339 25.3473 33.1657 25.9004C33.3033 26.0341 33.4316 26.1769 33.5723 26.3076L33.9946 26.6996C34.0008 26.6936 33.9977 26.6966 34.0071 26.6905C33.8789 26.4687 33.7631 26.2499 33.6599 26.0311C30.779 23.761 32.8998 20.5519 32.8998 20.5519C32.709 21.3086 33.3596 22.0288 33.8789 23.5665C34.3199 24.8733 33.9414 25.6664 33.8194 25.8761C33.9039 26.0736 33.9852 26.256 34.0634 26.417C34.2511 26.8121 34.5263 27.1646 34.8798 27.432C34.8829 27.432 34.8829 27.4351 34.8861 27.4351C35.4929 27.9061 36.1279 28.3467 36.7972 28.7266C37.1851 28.9515 37.5824 29.1581 37.989 29.3557C37.8201 29.1885 37.6637 29.0183 37.5198 28.8482C34.7609 27.6113 35.7775 24.6453 35.7775 24.6453C35.7838 25.2835 36.45 25.7272 37.182 26.8455C37.8044 27.7967 37.6699 28.5017 37.6136 28.6901C37.7043 28.8056 37.7888 28.912 37.8701 29.0092C38.1329 29.3313 38.4738 29.5866 38.8617 29.7477C38.8648 29.7477 38.8648 29.7507 38.868 29.7507C39.5811 30.0425 40.3131 30.2856 41.0575 30.4861L41.0669 30.4892H41.07C41.2702 30.5439 41.4204 30.7201 41.4266 30.9237C41.436 31.2732 41.1044 31.4951 40.7916 31.4039C40.0097 31.1729 39.2433 30.8934 38.4989 30.5682C37.7544 30.24 37.0381 29.8571 36.3499 29.4377C35.9339 29.1855 35.5335 28.912 35.1425 28.6233C34.6139 28.2313 33.9789 27.9973 33.3158 27.9426C29.8532 29.2341 28.0483 25.8457 28.0483 25.8457C28.627 26.3866 29.5967 26.1982 31.2263 26.5264C32.612 26.806 33.1313 27.5232 33.2564 27.7298C33.5911 27.7724 33.8851 27.7997 34.126 27.8149C33.907 27.6265 33.6912 27.432 33.4785 27.2375L33.0499 26.8182C32.9061 26.6814 32.7747 26.5295 32.6371 26.3836C32.0959 25.794 31.5861 25.1802 31.1356 24.5238C31.1262 24.5116 31.1169 24.4964 31.1075 24.4843C30.8854 24.1621 30.5851 23.9038 30.2317 23.7306C30.1722 23.7033 30.1159 23.6729 30.0596 23.6425C26.3405 23.5179 26.0496 19.7132 26.0496 19.7132C26.3655 20.4303 27.332 20.6279 28.6958 21.5517Z" fill="white"/>
</svg>
