<svg width="24" height="22" viewBox="0 0 24 22" fill="none" xmlns="http://www.w3.org/2000/svg">
<path d="M19.0312 0H13.4062C10.6926 0 8.48438 2.20823 8.48438 4.92188C8.48438 7.39725 10.3212 9.45169 12.7031 9.79364V11.9531C12.7031 12.2374 12.8741 12.4942 13.1371 12.6027C13.3965 12.7109 13.7007 12.6529 13.9034 12.4502L16.5099 9.84375H19.0312C21.7449 9.84375 24 7.63552 24 4.92188C24 2.20823 21.7449 0 19.0312 0ZM13.4062 5.62491C13.0178 5.62491 12.7031 5.31009 12.7031 4.92178C12.7031 4.53347 13.0178 4.21866 13.4062 4.21866C13.7946 4.21866 14.1094 4.53347 14.1094 4.92178C14.1094 5.31009 13.7946 5.62491 13.4062 5.62491ZM16.2188 5.62491C15.8303 5.62491 15.5156 5.31009 15.5156 4.92178C15.5156 4.53347 15.8303 4.21866 16.2188 4.21866C16.6071 4.21866 16.9219 4.53347 16.9219 4.92178C16.9219 5.31009 16.6071 5.62491 16.2188 5.62491ZM19.0312 5.62491C18.6428 5.62491 18.3281 5.31009 18.3281 4.92178C18.3281 4.53347 18.6428 4.21866 19.0312 4.21866C19.4196 4.21866 19.7344 4.53347 19.7344 4.92178C19.7344 5.31009 19.4196 5.62491 19.0312 5.62491Z" fill="#FFD500"/>
<path d="M15.7969 21.0938C16.96 21.0938 17.9062 20.1475 17.9062 18.9844V16.1719C17.9062 15.8691 17.7126 15.6006 17.4256 15.5051L13.2167 14.0989C13.0107 14.0295 12.7855 14.0611 12.6043 14.1806L10.8149 15.3733C8.9197 14.4697 6.67097 12.2209 5.76731 10.3257L6.96 8.53631C7.08014 8.3557 7.11038 8.12981 7.0417 7.92384L5.63545 3.71498C5.54006 3.42802 5.27156 3.23438 4.96875 3.23438H2.10938C0.946219 3.23438 0 4.1707 0 5.33386C0 13.4349 7.69584 21.0938 15.7969 21.0938Z" fill="#FFD500"/>
</svg>
