<svg width="23" height="18" viewBox="0 0 23 18" fill="none" xmlns="http://www.w3.org/2000/svg">
<path fill-rule="evenodd" clip-rule="evenodd" d="M1.27778 0C0.572087 0 0 0.57564 0 1.28571C0 1.99579 0.572087 2.57143 1.27778 2.57143L21.7222 2.57143C22.4279 2.57143 23 1.99579 23 1.28571C23 0.57564 22.4279 0 21.7222 0L1.27778 0ZM7.66667 9C7.66667 8.2899 8.23875 7.71428 8.94445 7.71428L21.7222 7.71428C22.4279 7.71428 23 8.2899 23 9C23 9.7101 22.4279 10.2857 21.7222 10.2857H8.94445C8.23875 10.2857 7.66667 9.7101 7.66667 9ZM0 16.7143C0 16.0042 0.572087 15.4286 1.27778 15.4286L21.7222 15.4286C22.4279 15.4286 23 16.0042 23 16.7143C23 17.4244 22.4279 18 21.7222 18L1.27778 18C0.572087 18 0 17.4244 0 16.7143Z" fill="#BB9722"/>
</svg>
