<svg width="74" height="79" viewBox="0 0 74 79" fill="none" xmlns="http://www.w3.org/2000/svg">
<path d="M16.7968 22.294C17.6401 22.294 18.3238 21.6103 18.3238 20.767C18.3238 19.9236 17.6401 19.24 16.7968 19.24C15.9535 19.24 15.2698 19.9236 15.2698 20.767C15.2698 21.6103 15.9535 22.294 16.7968 22.294Z" fill="white"/>
<path d="M30.5397 47.7945H25.9587V43.2135C25.9587 42.3737 25.2716 41.6865 24.4317 41.6865C23.5919 41.6865 22.9047 42.3737 22.9047 43.2135V47.7945H18.3238C17.484 47.7945 16.7968 48.4816 16.7968 49.3214C16.7968 50.1613 17.484 50.8484 18.3238 50.8484H22.9047V55.4294C22.9047 56.2692 23.5919 56.9564 24.4317 56.9564C25.2716 56.9564 25.9587 56.2692 25.9587 55.4294V50.8484H30.5397C31.3795 50.8484 32.0666 50.1613 32.0666 49.3214C32.0666 48.4816 31.3795 47.7945 30.5397 47.7945Z" fill="white"/>
<path d="M71.7529 49.1689C68.3783 43.3205 60.9114 41.3202 55.063 44.6948L48.8635 48.2832V35.029C48.8635 33.3951 48.329 31.7612 47.3365 30.448L39.7016 20.2631V15.9264C41.4729 15.3004 42.7555 13.6054 42.7555 11.6051V4.58095C42.7555 2.06143 40.6941 0 38.1746 0H10.6889C8.16936 0 6.10793 2.06143 6.10793 4.58095V11.6051C6.10793 13.5902 7.3906 15.3004 9.1619 15.9264V20.2631L1.52698 30.448C0.549714 31.7612 0 33.3951 0 35.029V64.5914C0 68.8059 3.42044 72.2263 7.63492 72.2263H32.1735C35.594 77.9678 42.9846 79.8918 48.7718 76.5477L67.2789 65.8588C73.0814 62.4994 75.1428 55.0477 71.7529 49.1689ZM10.6889 3.05397H38.1746C39.0144 3.05397 39.7016 3.74111 39.7016 4.58095V11.6051C39.7016 12.4449 39.0144 13.1321 38.1746 13.1321H10.6889C9.84904 13.1321 9.1619 12.4449 9.1619 11.6051V4.58095C9.1619 3.74111 9.84904 3.05397 10.6889 3.05397ZM3.97016 32.2652L11.9105 21.6832C12.109 21.4236 12.2159 21.1029 12.2159 20.767V16.186H36.6476V19.24H22.9047C22.0649 19.24 21.3778 19.9271 21.3778 20.767C21.3778 21.6068 22.0649 22.294 22.9047 22.294H37.4111L44.8933 32.2652C45.3819 32.9218 45.6873 33.7005 45.779 34.5098H3.08451C3.17613 33.7005 3.48152 32.9218 3.97016 32.2652ZM7.63492 69.1723C5.11539 69.1723 3.05397 67.1109 3.05397 64.5914V63.0491H30.7993C30.3106 65.0342 30.3106 67.1414 30.8756 69.1723H7.63492ZM31.9903 60.0104H3.05397V37.5638H45.8095V50.0392L36.556 55.3837C34.6167 56.4984 33.0592 58.0864 31.9903 60.0104ZM47.2449 73.8907C42.8624 76.4255 37.2584 74.9291 34.7389 70.5466C32.1888 66.1184 33.7311 60.5449 38.0982 58.0254L46.3897 53.2459L55.5516 69.1113L47.2449 73.8907ZM65.7519 63.2018L58.1781 67.5843L49.0162 51.7189L56.59 47.3365C60.9724 44.8017 66.5765 46.2981 69.1113 50.6958C71.646 55.0936 70.1038 60.6976 65.7519 63.2018Z" fill="white"/>
</svg>
