<svg width="72" height="72" viewBox="0 0 72 72" fill="none" xmlns="http://www.w3.org/2000/svg">
<path d="M69.8872 27.1393H61.7314V15.7492C61.7314 15.7351 61.7314 15.7351 61.7314 15.7211C61.7314 15.6648 61.7314 15.6226 61.7173 15.5664C61.7173 15.5523 61.7173 15.5383 61.7173 15.5101C61.7173 15.4539 61.7033 15.3836 61.6892 15.3273C61.6892 15.3133 61.6751 15.2852 61.6751 15.2711C61.6611 15.2289 61.6611 15.1867 61.647 15.1586C61.6329 15.1305 61.6329 15.1023 61.6189 15.0883C61.6048 15.0461 61.5908 15.018 61.5767 14.9758C61.5626 14.9617 61.5626 14.9336 61.5486 14.9195C61.5205 14.8633 61.5064 14.8211 61.4783 14.7649C61.4642 14.7508 61.4642 14.7367 61.4501 14.7086C61.4361 14.6664 61.408 14.6383 61.3798 14.5961C61.3658 14.5821 61.3517 14.5539 61.3377 14.5399C61.3095 14.4977 61.2814 14.4696 61.2533 14.4414C61.2392 14.4274 61.2252 14.4133 61.2252 14.3993C61.183 14.3571 61.1548 14.3149 61.1127 14.2727L47.6133 0.632736C47.5993 0.618675 47.5993 0.618675 47.5852 0.604614C47.543 0.562424 47.5149 0.534302 47.4727 0.50618C47.4586 0.492119 47.4446 0.478058 47.4305 0.463989C47.4024 0.435867 47.3602 0.407745 47.3321 0.393684C47.318 0.379623 47.2899 0.365562 47.2758 0.351501C47.2336 0.32338 47.1915 0.309311 47.1633 0.281189C47.1493 0.267128 47.1352 0.267128 47.1212 0.253067C47.0649 0.224945 47.0227 0.196815 46.9665 0.182755C46.9383 0.168694 46.9243 0.168694 46.8962 0.154633C46.868 0.140572 46.8259 0.126511 46.7977 0.11245C46.7696 0.0983887 46.7415 0.0983887 46.7274 0.0843277C46.6852 0.0702667 46.643 0.0561981 46.6009 0.0561981C46.5727 0.0561981 46.5587 0.0421371 46.5306 0.0421371C46.4743 0.0280762 46.4181 0.0280762 46.3618 0.0140152C46.3478 0.0140152 46.3196 0.0140152 46.3056 0.0140152C46.2634 0.0140152 46.2071 0.0140152 46.1509 -4.57764e-05C46.1368 -4.57764e-05 46.1228 -4.57764e-05 46.1228 -4.57764e-05H14.4837C12.1635 -4.57764e-05 10.2651 1.8983 10.2651 4.2185V27.1393H2.10927C0.942142 27.1393 0 28.0814 0 29.2485V60.747C0 61.9141 0.942142 62.8563 2.10927 62.8563H10.2651V67.7779C10.2651 70.0981 12.1635 71.9965 14.4837 71.9965H57.5128C59.833 71.9965 61.7314 70.0981 61.7314 67.7779V62.8563H69.8872C71.0544 62.8563 71.9965 61.9141 71.9965 60.747V29.2485C71.9965 28.0814 71.0544 27.1393 69.8872 27.1393ZM48.232 7.24179L54.5739 13.6399H48.232V7.24179ZM14.4837 4.2185H44.0135V15.7492C44.0135 16.9163 44.9556 17.8585 46.1228 17.8585H57.5128V27.1393H14.4837V4.2185ZM57.5128 67.7779H14.4837V62.8563H57.5128V67.7779ZM67.778 58.6377H4.21855V31.3578H67.778V58.6377Z" fill="white"/>
<path d="M23.6239 35.0139H12.3744C11.2073 35.0139 10.2651 35.9561 10.2651 37.1232C10.2651 38.2903 11.2073 39.2325 12.3744 39.2325H15.8899V52.8724C15.8899 54.0395 16.832 54.9817 17.9991 54.9817C19.1663 54.9817 20.1084 54.0395 20.1084 52.8724V39.2325H23.6239C24.791 39.2325 25.7331 38.2903 25.7331 37.1232C25.7331 35.9561 24.791 35.0139 23.6239 35.0139Z" fill="white"/>
<path d="M38.3326 36.6028C38.3185 36.5888 38.3185 36.5606 38.3045 36.5466C37.9248 35.6185 37.0249 35.0138 36.0124 35.0138C35 35.0138 34.1141 35.6185 33.7203 36.5466C33.7063 36.5606 33.7063 36.5747 33.7063 36.6028L27.8425 52.1271C27.4347 53.2098 27.9831 54.4332 29.0659 54.841C29.3049 54.9394 29.558 54.9816 29.8111 54.9816C30.6689 54.9816 31.4704 54.4613 31.7798 53.6176L32.5391 51.6068H39.4575L40.2169 53.6176C40.6247 54.7144 41.8481 55.2629 42.9308 54.8551C44.0276 54.4473 44.576 53.2239 44.1683 52.1411L38.3326 36.6028ZM34.1422 47.3882L36.0124 42.4385L37.8686 47.3882H34.1422Z" fill="white"/>
<path d="M57.9066 35.8998L53.9974 41.3698L50.0882 35.8998C49.4133 34.9577 48.0915 34.7327 47.1493 35.4076C46.2072 36.0826 45.9822 37.4044 46.6572 38.3466L51.41 44.9978L46.6572 51.649C45.9822 52.5912 46.1931 53.913 47.1493 54.588C47.5149 54.8551 47.9508 54.9817 48.3727 54.9817C49.0336 54.9817 49.6804 54.6723 50.0882 54.0958L53.9974 48.6257L57.9066 54.0958C58.3144 54.6723 58.9612 54.9817 59.6221 54.9817C60.044 54.9817 60.4799 54.8551 60.8455 54.588C61.7877 53.913 62.0127 52.5912 61.3377 51.649L56.5848 44.9978L61.3377 38.3466C62.0127 37.4044 61.8017 36.0826 60.8455 35.4076C59.9034 34.7327 58.5816 34.9436 57.9066 35.8998Z" fill="white"/>
<path d="M31.4986 9.1401H21.374C20.2069 9.1401 19.2648 10.0822 19.2648 11.2494C19.2648 12.4165 20.2069 13.3586 21.374 13.3586H31.4986C32.6657 13.3586 33.6078 12.4165 33.6078 11.2494C33.6078 10.0822 32.6657 9.1401 31.4986 9.1401Z" fill="white"/>
<path d="M31.4986 18.1396H21.374C20.2069 18.1396 19.2648 19.0818 19.2648 20.2489C19.2648 21.416 20.2069 22.3582 21.374 22.3582H31.4986C32.6657 22.3582 33.6078 21.416 33.6078 20.2489C33.6078 19.0818 32.6657 18.1396 31.4986 18.1396Z" fill="white"/>
</svg>
