<svg width="33" height="33" viewBox="0 0 33 33" fill="none" xmlns="http://www.w3.org/2000/svg">
<path d="M30.6506 1.7847C29.4813 0.594975 28.0725 0 26.4254 0H6.49117C4.84399 0 3.43522 0.594975 2.26544 1.7847C1.09588 2.97465 0.510986 4.40764 0.510986 6.08329V26.361C0.510986 28.0365 1.09588 29.4696 2.26544 30.6595C3.43522 31.8495 4.84399 32.4445 6.49117 32.4445H26.4252C28.0723 32.4445 29.4811 31.8495 30.6504 30.6595C31.8202 29.4696 32.405 28.0365 32.405 26.361V6.08329C32.405 4.40764 31.8201 2.97443 30.6506 1.7847ZM24.9094 12.4836C24.9233 12.6103 24.9303 12.8001 24.9303 13.054C24.9303 14.2369 24.7606 15.4233 24.4216 16.6129C24.0826 17.8031 23.5634 18.9437 22.864 20.0349C22.1654 21.1261 21.3313 22.091 20.3624 22.9288C19.3933 23.7663 18.2306 24.4355 16.8737 24.935C15.5175 25.4353 14.0637 25.6854 12.5134 25.6854C10.1049 25.6854 7.87615 25.0231 5.82729 23.7C6.15952 23.742 6.50579 23.7633 6.86551 23.7633C8.87284 23.7633 10.6794 23.1296 12.2852 21.8619C11.344 21.8482 10.5029 21.5527 9.76239 20.9747C9.02164 20.3975 8.50614 19.6653 8.21536 18.7781C8.57516 18.8343 8.84506 18.8622 9.02499 18.8622C9.32951 18.8622 9.68261 18.806 10.0839 18.6936C9.07343 18.4962 8.2222 17.9862 7.53004 17.1624C6.83772 16.3385 6.49168 15.3986 6.49168 14.3426V14.3003C7.22515 14.6521 7.91732 14.8352 8.56803 14.8494C7.30828 13.9903 6.67845 12.7583 6.67845 11.153C6.67845 10.3643 6.87903 9.61807 7.2805 8.91397C8.37399 10.28 9.70319 11.3712 11.2672 12.1879C12.8314 13.0045 14.5066 13.4624 16.2923 13.5609C16.2232 13.2933 16.1885 12.9552 16.1885 12.547C16.1885 11.3217 16.6142 10.2763 17.4656 9.41017C18.3168 8.54412 19.3447 8.11095 20.5489 8.11095C21.8228 8.11095 22.882 8.57579 23.7263 9.50524C24.6815 9.32221 25.6094 8.96294 26.5089 8.42804C26.163 9.51205 25.5189 10.3359 24.578 10.8992C25.4775 10.7723 26.3147 10.533 27.0898 10.181C26.5085 11.0822 25.7815 11.8496 24.9094 12.4836Z" fill="#977A1C"/>
</svg>
