<svg width="33" height="33" viewBox="0 0 33 33" fill="none" xmlns="http://www.w3.org/2000/svg">
<path d="M16.8942 7.85156C12.381 7.85156 8.7251 11.4823 8.7251 15.9702C8.7251 17.7351 9.305 19.3992 10.2883 20.7355L9.25458 23.7611L12.4062 22.7526C13.6921 23.6098 15.2553 24.0889 16.9194 24.0889C21.4326 24.0889 25.1137 20.4582 25.1137 15.9702C25.0885 11.4823 21.4073 7.85156 16.8942 7.85156ZM21.6847 19.3236C21.483 19.8783 20.4997 20.4077 20.071 20.4582C19.6424 20.5086 19.6424 20.8112 17.1967 19.8783C14.7763 18.9202 13.2383 16.4745 13.1122 16.298C12.9861 16.1467 12.1289 15.0121 12.1289 13.8523C12.1289 12.6925 12.734 12.1126 12.9609 11.8857C13.1878 11.6588 13.44 11.5831 13.5912 11.5831C13.7425 11.5831 13.919 11.6083 14.0451 11.6083C14.1964 11.6083 14.3729 11.5327 14.5746 12.0117C14.7763 12.4908 15.2553 13.6506 15.3057 13.7767C15.3562 13.9027 15.4066 14.0288 15.331 14.1801C15.2553 14.3314 15.2049 14.4322 15.104 14.5835C14.978 14.7096 14.8519 14.8861 14.7511 14.9869C14.625 15.113 14.4989 15.239 14.6502 15.466C14.8015 15.6929 15.2805 16.4745 15.9865 17.1048C16.8942 17.9116 17.6758 18.1638 17.9027 18.2898C18.1296 18.4159 18.2809 18.3907 18.407 18.2394C18.5583 18.0881 19.0121 17.5587 19.1634 17.3065C19.3146 17.0796 19.4911 17.1048 19.6928 17.1805C19.9198 17.2561 21.0796 17.836 21.3317 17.9621C21.5586 18.0881 21.7351 18.1386 21.7855 18.2394C21.8612 18.2898 21.8612 18.7689 21.6847 19.3236Z" fill="#977A1C"/>
<path d="M24.6347 0.337891H8.80075C4.41365 0.337891 0.833374 3.91817 0.833374 8.30527V24.1644C0.833374 28.5263 4.41365 32.1065 8.80075 32.1065H24.6599C29.047 32.1065 32.6272 28.5263 32.6272 24.1392V8.30527C32.602 3.91817 29.0218 0.337891 24.6347 0.337891ZM16.8942 25.6267C15.1797 25.6267 13.5913 25.1981 12.1793 24.4165L6.78369 26.131L8.54862 20.9623C7.66616 19.4999 7.16189 17.7854 7.16189 15.9701C7.16189 10.6249 11.5238 6.31342 16.8942 6.31342C22.2646 6.31342 26.6265 10.6249 26.6265 15.9701C26.6265 21.3153 22.2646 25.6267 16.8942 25.6267Z" fill="#977A1C"/>
</svg>
