<svg width="196" height="116" viewBox="0 0 196 116" fill="none" xmlns="http://www.w3.org/2000/svg">
<path d="M6.91181 89.5554V96.6288C6.91181 98.1547 7.07992 99.1052 7.41613 99.4737C7.86873 99.9974 8.55409 100.263 9.47868 100.263H10.4097V100.922H0V100.263H0.91166C1.9397 100.263 2.67032 99.9263 3.11646 99.2603C3.35569 98.8918 3.47207 98.0125 3.47207 96.6288V80.9366C3.47207 79.4107 3.31043 78.4603 2.98714 78.0917C2.52161 77.568 1.82979 77.3029 0.91166 77.3029H0V76.6434H8.90324C11.0757 76.6434 12.7891 76.8697 14.0434 77.3158C15.2978 77.762 16.3517 78.5185 17.2116 79.5788C18.0716 80.6392 18.5048 81.9 18.5048 83.3548C18.5048 85.3397 17.8517 86.9497 16.5457 88.1911C15.2396 89.4325 13.3904 90.0532 11.0046 90.0532C10.4162 90.0532 9.78903 90.0144 9.10367 89.9304C8.41831 89.8463 7.68769 89.717 6.91181 89.5554ZM6.91181 88.5338C7.54544 88.6566 8.10796 88.7407 8.59288 88.8054C9.08427 88.8635 9.49808 88.8959 9.84722 88.8959C11.0886 88.8959 12.1619 88.4174 13.0607 87.454C13.9594 86.4971 14.412 85.2492 14.412 83.7169C14.412 82.663 14.1986 81.6931 13.7654 80.7879C13.3322 79.8892 12.7244 79.2103 11.9356 78.7642C11.1468 78.318 10.2546 78.0917 9.24592 78.0917C8.63814 78.0917 7.8558 78.2081 6.89888 78.4344V88.5338H6.91181Z" fill="url(#paint0_linear_1_43)"/>
<path d="M30.7507 87.454L39.7057 96.3573C41.1734 97.825 42.4277 98.8272 43.4687 99.3573C44.5097 99.8875 45.5442 100.191 46.5852 100.263V100.922H35.031V100.263C35.7228 100.263 36.2207 100.146 36.5246 99.9134C36.8284 99.6806 36.9836 99.422 36.9836 99.1375C36.9836 98.853 36.9254 98.5944 36.8155 98.3681C36.7056 98.1418 36.3306 97.7151 35.697 97.0943L27.3174 88.8054V96.6288C27.3174 97.8573 27.395 98.672 27.5502 99.0664C27.6731 99.3638 27.9187 99.6224 28.3002 99.8358C28.811 100.12 29.3541 100.269 29.9296 100.269H30.7572V100.928H20.3992V100.269H21.2591C22.2613 100.269 22.9919 99.978 23.4445 99.3897C23.729 99.0082 23.8712 98.0901 23.8712 96.6288V80.9366C23.8712 79.7082 23.7936 78.887 23.6385 78.4861C23.5221 78.2017 23.2764 77.9495 22.9014 77.7361C22.3777 77.4516 21.8281 77.3094 21.2526 77.3094H20.3927V76.6499H30.7442V77.3094H29.9166C29.3541 77.3094 28.811 77.4452 28.2873 77.7232C27.9187 77.9172 27.6601 78.2017 27.5179 78.5831C27.3756 78.9646 27.3045 79.7534 27.3045 80.9496V88.3851C27.5437 88.1588 28.3584 87.4023 29.755 86.1092C33.3047 82.8634 35.4448 80.6909 36.1819 79.6047C36.5052 79.1262 36.6668 78.7124 36.6668 78.3504C36.6668 78.0788 36.544 77.8331 36.2918 77.6262C36.0396 77.4193 35.6194 77.3159 35.0181 77.3159H34.462V76.6564H43.3846V77.3159C42.8609 77.3288 42.3825 77.3999 41.9493 77.5292C41.5161 77.6585 40.9923 77.9172 40.3716 78.2922C39.7509 78.6672 38.988 79.275 38.0763 80.109C37.8112 80.3483 36.6021 81.5703 34.4426 83.7815L30.7507 87.454Z" fill="url(#paint1_linear_1_43)"/>
<path d="M63.0985 76.0809V84.4798H62.439C62.2257 82.8699 61.8377 81.5832 61.2817 80.6327C60.7256 79.6758 59.9368 78.9193 58.9088 78.3568C57.8807 77.7943 56.8204 77.5163 55.7212 77.5163C54.4798 77.5163 53.4517 77.8978 52.6371 78.6542C51.8224 79.4107 51.4215 80.2771 51.4215 81.2405C51.4215 81.9776 51.6801 82.6565 52.1909 83.2643C52.928 84.1565 54.6932 85.3527 57.4734 86.8463C59.7428 88.0618 61.2881 88.9993 62.1222 89.6524C62.9498 90.3054 63.5899 91.0683 64.0361 91.9541C64.4822 92.8399 64.7085 93.7645 64.7085 94.7279C64.7085 96.5642 63.9973 98.1547 62.5683 99.4866C61.1394 100.819 59.3032 101.485 57.0596 101.485C56.3548 101.485 55.6889 101.433 55.0682 101.323C54.6996 101.265 53.9302 101.045 52.7664 100.67C51.6026 100.295 50.8655 100.107 50.5551 100.107C50.2577 100.107 50.0185 100.198 49.8504 100.379C49.6758 100.56 49.5465 100.928 49.4624 101.491H48.8029V93.1632H49.4624C49.7728 94.909 50.193 96.2085 50.7168 97.0749C51.2405 97.9413 52.0487 98.659 53.1285 99.2345C54.2082 99.8099 55.3914 100.094 56.6846 100.094C58.1782 100.094 59.3549 99.7 60.2213 98.9112C61.0877 98.1224 61.5209 97.1913 61.5209 96.118C61.5209 95.5232 61.3593 94.9154 61.0295 94.3076C60.6998 93.6999 60.189 93.1309 59.4971 92.6072C59.0316 92.2451 57.7579 91.4886 55.6824 90.3248C53.6069 89.161 52.1263 88.2299 51.2469 87.5381C50.3676 86.8462 49.7017 86.0833 49.2491 85.2428C48.7965 84.4087 48.5702 83.4906 48.5702 82.4819C48.5702 80.7362 49.2361 79.2362 50.5745 77.9753C51.9129 76.7145 53.6134 76.0874 55.6759 76.0874C56.9626 76.0874 58.3333 76.4042 59.7752 77.0378C60.4411 77.3352 60.9131 77.484 61.1912 77.484C61.5015 77.484 61.7537 77.3934 61.9541 77.2059C62.1481 77.0184 62.3097 76.6499 62.4261 76.0874H63.0985V76.0809Z" fill="url(#paint2_linear_1_43)"/>
<path d="M96.8816 94.2107L97.47 94.3335L95.3945 100.922H76.5859V100.263H77.4975C78.5256 100.263 79.2562 99.9263 79.7023 99.2603C79.9545 98.8789 80.0773 97.9931 80.0773 96.6094V80.9366C80.0773 79.4172 79.9092 78.4732 79.573 78.0917C79.1075 77.568 78.4157 77.3029 77.4975 77.3029H76.5859V76.6434H87.584V77.3029C86.2909 77.29 85.3921 77.4064 84.8684 77.6585C84.3512 77.9107 83.9955 78.2275 83.8016 78.609C83.6076 78.9905 83.5171 79.9021 83.5171 81.3504V96.6094C83.5171 97.5987 83.6141 98.284 83.8016 98.6526C83.9438 98.9047 84.1637 99.0922 84.4611 99.2086C84.7585 99.3315 85.6895 99.3897 87.2542 99.3897H89.0258C90.888 99.3897 92.194 99.2539 92.9505 98.9759C93.707 98.6978 94.3923 98.2129 95.0131 97.5146C95.6402 96.8163 96.2545 95.7172 96.8816 94.2107Z" fill="url(#paint3_linear_1_43)"/>
<path d="M105.927 77.9624V87.5639H111.268C112.651 87.5639 113.576 87.357 114.042 86.9368C114.662 86.3872 115.011 85.4173 115.083 84.0337H115.742V92.4843H115.083C114.914 91.3011 114.746 90.5446 114.578 90.2084C114.365 89.7881 114.009 89.4649 113.524 89.2256C113.033 88.9864 112.283 88.87 111.268 88.87H105.927V96.8745C105.927 97.9478 105.972 98.6009 106.069 98.8336C106.166 99.0664 106.334 99.2539 106.574 99.3897C106.813 99.5254 107.266 99.5966 107.932 99.5966H112.05C113.421 99.5966 114.423 99.4996 115.044 99.3121C115.664 99.1181 116.266 98.7431 116.835 98.187C117.572 97.45 118.335 96.3314 119.111 94.8378H119.828L117.733 100.928H99.0154V100.269H99.8753C100.451 100.269 100.994 100.133 101.505 99.8552C101.886 99.6612 102.145 99.3767 102.281 98.9953C102.416 98.6138 102.487 97.8314 102.487 96.6482V80.872C102.487 79.3331 102.332 78.3827 102.022 78.0271C101.595 77.5486 100.877 77.3094 99.8753 77.3094H99.0154V76.6499H117.733L118.005 81.9711H117.307C117.055 80.6909 116.777 79.8181 116.473 79.3396C116.169 78.8612 115.716 78.4991 115.121 78.2469C114.643 78.0659 113.802 77.9754 112.593 77.9754H105.927V77.9624Z" fill="url(#paint4_linear_1_43)"/>
<path d="M143.176 76.0809L143.803 83.7492H143.176C142.542 81.8353 141.728 80.4 140.725 79.4301C139.284 78.0335 137.422 77.3352 135.159 77.3352C132.068 77.3352 129.714 78.5573 128.104 81.0077C126.753 83.0703 126.081 85.5337 126.081 88.3851C126.081 90.6998 126.527 92.8141 127.426 94.7279C128.324 96.6418 129.495 98.0383 130.943 98.9306C132.391 99.8164 133.885 100.263 135.411 100.263C136.303 100.263 137.169 100.146 138.01 99.9198C138.844 99.6936 139.652 99.3573 140.428 98.9177V91.8959C140.428 90.6804 140.338 89.8787 140.15 89.5036C139.963 89.1286 139.678 88.8441 139.29 88.6437C138.902 88.4497 138.217 88.3463 137.24 88.3463V87.6674H146.642V88.3463H146.195C145.264 88.3463 144.624 88.6566 144.282 89.2773C144.042 89.717 143.92 90.5899 143.92 91.8959V99.3315C142.549 100.069 141.191 100.612 139.853 100.961C138.514 101.304 137.027 101.478 135.391 101.478C130.697 101.478 127.135 99.9716 124.697 96.965C122.867 94.7085 121.956 92.1028 121.956 89.1545C121.956 87.0144 122.466 84.9712 123.494 83.0121C124.71 80.6845 126.385 78.8935 128.512 77.6391C130.29 76.5982 132.391 76.0809 134.816 76.0809C135.702 76.0809 136.503 76.152 137.228 76.2943C137.952 76.4365 138.973 76.7533 140.299 77.2447C140.965 77.4969 141.417 77.6197 141.644 77.6197C141.87 77.6197 142.064 77.5163 142.226 77.3094C142.387 77.1025 142.484 76.6887 142.523 76.0809H143.176Z" fill="url(#paint5_linear_1_43)"/>
<path d="M163.937 92.7947H154.536L152.887 96.6288C152.48 97.5728 152.28 98.2776 152.28 98.7431C152.28 99.1117 152.454 99.4414 152.81 99.7194C153.159 99.9975 153.922 100.185 155.092 100.269V100.929H147.443V100.269C148.458 100.088 149.112 99.8552 149.415 99.5707C150.023 98.9953 150.702 97.8315 151.439 96.0793L159.98 76.0874H160.607L169.065 96.2926C169.743 97.9155 170.364 98.9694 170.92 99.4543C171.476 99.9393 172.246 100.211 173.241 100.269V100.929H163.659V100.269C164.629 100.224 165.282 100.062 165.618 99.7841C165.961 99.5125 166.129 99.1763 166.129 98.7819C166.129 98.2582 165.89 97.4241 165.411 96.2926L163.937 92.7947ZM163.433 91.4692L159.314 81.6543L155.086 91.4692H163.433Z" fill="url(#paint6_linear_1_43)"/>
<path d="M194.675 94.2107L195.263 94.3335L193.188 100.922H174.379V100.263H175.291C176.319 100.263 177.05 99.9263 177.496 99.2603C177.748 98.8789 177.871 97.9931 177.871 96.6094V80.9366C177.871 79.4172 177.703 78.4732 177.366 78.0917C176.901 77.568 176.209 77.3029 175.291 77.3029H174.379V76.6434H185.377V77.3029C184.084 77.29 183.186 77.4064 182.662 77.6585C182.145 77.9107 181.789 78.2275 181.595 78.609C181.401 78.9905 181.31 79.9021 181.31 81.3504V96.6094C181.31 97.5987 181.407 98.284 181.595 98.6526C181.737 98.9047 181.957 99.0922 182.254 99.2086C182.552 99.3315 183.483 99.3897 185.048 99.3897H186.819C188.681 99.3897 189.987 99.2539 190.744 98.9759C191.494 98.7043 192.186 98.2129 192.806 97.5146C193.427 96.8163 194.048 95.7172 194.675 94.2107Z" fill="url(#paint7_linear_1_43)"/>
<path d="M26.9231 114.067H23.4122L22.7657 115.858H21.6536L24.5631 107.853H25.7787L28.6753 115.858H27.5697L26.9231 114.067ZM26.6257 113.213L25.1709 109.146L23.7161 113.213H26.6257Z" fill="#6B6D6B"/>
<path d="M34.7401 108.299C35.3802 108.629 35.878 109.095 36.2207 109.702C36.5634 110.31 36.738 111.028 36.738 111.849C36.738 112.67 36.5634 113.388 36.2207 113.989C35.878 114.597 35.3866 115.056 34.7401 115.373C34.1 115.69 33.337 115.851 32.4577 115.851H29.949V107.802H32.4577C33.337 107.808 34.0935 107.97 34.7401 108.299ZM34.8371 114.164C35.3866 113.614 35.6582 112.838 35.6582 111.849C35.6582 110.847 35.3802 110.064 34.8306 109.502C34.281 108.939 33.4857 108.661 32.4577 108.661H31.0029V114.991H32.4577C33.4987 114.991 34.2875 114.713 34.8371 114.164Z" fill="#6B6D6B"/>
<path d="M44.7683 107.808L41.7295 115.858H40.5139L37.475 107.808H38.5936L41.1217 114.752L43.6498 107.808H44.7683Z" fill="#6B6D6B"/>
<path d="M47.5292 115.412C46.9149 115.062 46.4235 114.571 46.0679 113.944C45.7123 113.317 45.5313 112.612 45.5313 111.823C45.5313 111.034 45.7123 110.33 46.0679 109.702C46.4235 109.075 46.9149 108.584 47.5292 108.235C48.1434 107.886 48.8288 107.711 49.5723 107.711C50.3288 107.711 51.0142 107.886 51.6284 108.235C52.2427 108.584 52.7276 109.069 53.0832 109.696C53.4388 110.323 53.6134 111.028 53.6134 111.823C53.6134 112.618 53.4388 113.323 53.0832 113.95C52.7276 114.571 52.2427 115.062 51.6284 115.412C51.0142 115.761 50.3288 115.935 49.5723 115.935C48.8288 115.935 48.1499 115.761 47.5292 115.412ZM51.0918 114.636C51.5444 114.371 51.8935 114.002 52.1521 113.517C52.4108 113.032 52.5401 112.47 52.5401 111.83C52.5401 111.183 52.4108 110.621 52.1521 110.136C51.8935 109.657 51.5444 109.282 51.0982 109.024C50.6521 108.758 50.1413 108.629 49.5723 108.629C49.0033 108.629 48.4926 108.758 48.0464 109.024C47.6003 109.289 47.2447 109.657 46.9925 110.136C46.7339 110.621 46.6046 111.183 46.6046 111.83C46.6046 112.47 46.7339 113.032 46.9925 113.517C47.2512 114.002 47.6068 114.377 48.0529 114.636C48.499 114.894 49.0098 115.03 49.5723 115.03C50.1348 115.024 50.6456 114.894 51.0918 114.636Z" fill="#6B6D6B"/>
<path d="M55.1457 109.709C55.5013 109.082 55.9863 108.59 56.594 108.235C57.2018 107.879 57.8872 107.705 58.6307 107.705C59.5101 107.705 60.273 107.918 60.9325 108.338C61.5855 108.758 62.064 109.36 62.3679 110.142H61.1006C60.8743 109.657 60.5575 109.282 60.1372 109.024C59.717 108.758 59.2126 108.629 58.6307 108.629C58.0682 108.629 57.5639 108.758 57.1177 109.024C56.6716 109.289 56.3225 109.657 56.0638 110.136C55.8117 110.621 55.6824 111.183 55.6824 111.83C55.6824 112.47 55.8117 113.032 56.0638 113.511C56.316 113.989 56.6716 114.364 57.1177 114.623C57.5639 114.881 58.0682 115.017 58.6307 115.017C59.2126 115.017 59.717 114.888 60.1372 114.629C60.5575 114.371 60.8808 114.002 61.1006 113.517H62.3614C62.064 114.287 61.5855 114.881 60.926 115.302C60.2665 115.722 59.5036 115.929 58.6243 115.929C57.8742 115.929 57.1953 115.754 56.5876 115.405C55.9733 115.056 55.4949 114.571 55.1393 113.944C54.7836 113.317 54.6091 112.618 54.6091 111.83C54.6091 111.041 54.7901 110.336 55.1457 109.709Z" fill="#6B6D6B"/>
<path d="M68.6784 114.067H65.1676L64.521 115.858H63.4089L66.3185 107.853H67.534L70.4306 115.858H69.325L68.6784 114.067ZM68.381 113.213L66.9262 109.146L65.4715 113.213H68.381Z" fill="#6B6D6B"/>
<path d="M76.6635 107.808V108.661H74.4717V115.858H73.4177V108.661H71.213V107.808H76.6635Z" fill="#6B6D6B"/>
<path d="M79.0105 108.661V111.351H81.946V112.218H79.0105V114.991H82.2886V115.858H77.9566V107.795H82.2886V108.661H79.0105Z" fill="#6B6D6B"/>
<path d="M85.0107 115.657C84.5904 115.47 84.2607 115.205 84.0214 114.875C83.7822 114.539 83.6594 114.151 83.6529 113.711H84.7715C84.8102 114.086 84.9654 114.409 85.237 114.662C85.5085 114.92 85.9094 115.05 86.4331 115.05C86.931 115.05 87.3254 114.927 87.6163 114.675C87.9073 114.422 88.0495 114.106 88.0495 113.711C88.0495 113.401 87.9655 113.155 87.7974 112.961C87.6293 112.767 87.4159 112.625 87.1637 112.521C86.9116 112.424 86.5689 112.315 86.1357 112.198C85.6055 112.062 85.1788 111.92 84.862 111.784C84.5452 111.649 84.2671 111.429 84.0408 111.131C83.8145 110.834 83.6981 110.433 83.6981 109.935C83.6981 109.496 83.8081 109.108 84.0344 108.771C84.2607 108.435 84.571 108.17 84.9783 107.989C85.3792 107.802 85.8448 107.711 86.3685 107.711C87.125 107.711 87.7392 107.899 88.2241 108.28C88.7026 108.655 88.9741 109.159 89.0388 109.78H87.8814C87.8426 109.47 87.681 109.198 87.3965 108.965C87.112 108.733 86.737 108.616 86.265 108.616C85.8254 108.616 85.4697 108.733 85.1917 108.959C84.9137 109.185 84.7779 109.502 84.7779 109.909C84.7779 110.2 84.862 110.44 85.0236 110.627C85.1917 110.815 85.3922 110.95 85.6379 111.047C85.8835 111.144 86.2198 111.254 86.6594 111.377C87.1896 111.526 87.6163 111.668 87.9396 111.81C88.2629 111.952 88.5409 112.172 88.7737 112.47C89.0065 112.767 89.1228 113.168 89.1228 113.679C89.1228 114.073 89.0194 114.442 88.8125 114.784C88.6056 115.134 88.2952 115.412 87.8879 115.625C87.4806 115.838 86.9956 115.948 86.4461 115.948C85.9029 115.935 85.4245 115.845 85.0107 115.657Z" fill="#6B6D6B"/>
<path d="M99.927 115.858L98.8731 114.797C98.4787 115.205 98.0584 115.509 97.6123 115.703C97.1661 115.897 96.6618 116 96.0993 116C95.5433 116 95.0519 115.897 94.6251 115.703C94.1984 115.502 93.8686 115.218 93.6294 114.849C93.3967 114.481 93.2803 114.047 93.2803 113.556C93.2803 112.993 93.4419 112.502 93.7587 112.069C94.0755 111.636 94.5475 111.306 95.1747 111.06C94.929 110.769 94.748 110.498 94.6445 110.252C94.5346 110.006 94.4829 109.735 94.4829 109.444C94.4829 109.108 94.5669 108.797 94.7415 108.526C94.9161 108.254 95.1618 108.041 95.4851 107.886C95.8083 107.73 96.1834 107.653 96.6036 107.653C97.0174 107.653 97.3795 107.73 97.6899 107.899C98.0002 108.06 98.2265 108.286 98.3817 108.571C98.5369 108.862 98.6015 109.179 98.5886 109.534H97.5347C97.5412 109.217 97.4571 108.972 97.2696 108.791C97.0821 108.61 96.8493 108.519 96.5519 108.519C96.2416 108.519 95.9958 108.603 95.8083 108.778C95.6208 108.952 95.5239 109.172 95.5239 109.444C95.5239 109.677 95.5885 109.896 95.7114 110.116C95.8407 110.33 96.054 110.595 96.3515 110.912L98.7567 113.323L98.9636 113L99.7459 111.681H100.877L99.9334 113.323C99.8041 113.556 99.649 113.795 99.4744 114.054L101.285 115.864H99.927V115.858ZM97.2308 114.849C97.567 114.687 97.8838 114.435 98.1813 114.099L95.8148 111.72C94.832 112.095 94.3342 112.696 94.3342 113.511C94.3342 113.963 94.4958 114.345 94.8256 114.642C95.1553 114.94 95.5756 115.095 96.0993 115.095C96.5196 115.095 96.8946 115.017 97.2308 114.849Z" fill="#6B6D6B"/>
<path d="M110.123 114.067H106.612L105.966 115.858H104.86L107.77 107.853H108.985L111.882 115.858H110.77L110.123 114.067ZM109.826 113.213L108.371 109.146L106.916 113.213H109.826Z" fill="#6B6D6B"/>
<path d="M114.281 115.657C113.861 115.47 113.531 115.205 113.292 114.875C113.052 114.539 112.93 114.151 112.923 113.711H114.042C114.08 114.086 114.236 114.409 114.507 114.662C114.779 114.92 115.18 115.05 115.703 115.05C116.201 115.05 116.596 114.927 116.887 114.675C117.178 114.422 117.32 114.106 117.32 113.711C117.32 113.401 117.236 113.155 117.068 112.961C116.899 112.767 116.686 112.625 116.434 112.521C116.182 112.424 115.839 112.315 115.406 112.198C114.876 112.062 114.449 111.92 114.132 111.784C113.809 111.649 113.537 111.429 113.311 111.131C113.085 110.834 112.968 110.433 112.968 109.935C112.968 109.496 113.078 109.108 113.305 108.771C113.531 108.435 113.841 108.17 114.249 107.989C114.656 107.802 115.115 107.711 115.639 107.711C116.395 107.711 117.009 107.899 117.494 108.28C117.973 108.655 118.244 109.159 118.309 109.78H117.152C117.113 109.47 116.951 109.198 116.667 108.965C116.382 108.733 116.007 108.616 115.535 108.616C115.096 108.616 114.74 108.733 114.462 108.959C114.184 109.185 114.048 109.502 114.048 109.909C114.048 110.2 114.132 110.44 114.294 110.627C114.462 110.815 114.662 110.95 114.908 111.047C115.154 111.144 115.49 111.254 115.93 111.377C116.46 111.526 116.887 111.668 117.21 111.81C117.533 111.952 117.811 112.172 118.044 112.47C118.277 112.767 118.393 113.168 118.393 113.679C118.393 114.073 118.29 114.442 118.083 114.784C117.876 115.134 117.565 115.412 117.158 115.625C116.751 115.838 116.266 115.948 115.716 115.948C115.173 115.935 114.701 115.845 114.281 115.657Z" fill="#6B6D6B"/>
<path d="M121.057 115.657C120.637 115.47 120.307 115.205 120.068 114.875C119.828 114.539 119.706 114.151 119.699 113.711H120.818C120.856 114.086 121.012 114.409 121.283 114.662C121.555 114.92 121.956 115.05 122.479 115.05C122.977 115.05 123.372 114.927 123.663 114.675C123.953 114.422 124.096 114.106 124.096 113.711C124.096 113.401 124.012 113.155 123.844 112.961C123.675 112.767 123.462 112.625 123.21 112.521C122.958 112.424 122.615 112.315 122.182 112.198C121.652 112.062 121.225 111.92 120.908 111.784C120.585 111.649 120.313 111.429 120.087 111.131C119.861 110.834 119.744 110.433 119.744 109.935C119.744 109.496 119.854 109.108 120.081 108.771C120.307 108.435 120.617 108.17 121.025 107.989C121.432 107.802 121.891 107.711 122.415 107.711C123.171 107.711 123.785 107.899 124.27 108.28C124.749 108.655 125.02 109.159 125.085 109.78H123.928C123.889 109.47 123.727 109.198 123.443 108.965C123.158 108.733 122.783 108.616 122.311 108.616C121.872 108.616 121.516 108.733 121.238 108.959C120.96 109.185 120.824 109.502 120.824 109.909C120.824 110.2 120.908 110.44 121.07 110.627C121.238 110.815 121.438 110.95 121.684 111.047C121.93 111.144 122.266 111.254 122.706 111.377C123.236 111.526 123.663 111.668 123.986 111.81C124.309 111.952 124.587 112.172 124.82 112.47C125.053 112.767 125.169 113.168 125.169 113.679C125.169 114.073 125.066 114.442 124.859 114.784C124.652 115.134 124.341 115.412 123.934 115.625C123.527 115.838 123.042 115.948 122.492 115.948C121.956 115.935 121.477 115.845 121.057 115.657Z" fill="#6B6D6B"/>
<path d="M128.318 115.412C127.704 115.062 127.212 114.571 126.857 113.944C126.501 113.317 126.32 112.612 126.32 111.823C126.32 111.034 126.501 110.33 126.857 109.702C127.212 109.075 127.704 108.584 128.318 108.235C128.932 107.886 129.617 107.711 130.361 107.711C131.117 107.711 131.803 107.886 132.417 108.235C133.031 108.584 133.516 109.069 133.872 109.696C134.227 110.323 134.402 111.028 134.402 111.823C134.402 112.618 134.227 113.323 133.872 113.95C133.516 114.571 133.031 115.062 132.417 115.412C131.803 115.761 131.117 115.935 130.361 115.935C129.617 115.935 128.932 115.761 128.318 115.412ZM131.88 114.636C132.333 114.371 132.689 114.002 132.941 113.517C133.199 113.032 133.329 112.47 133.329 111.83C133.329 111.183 133.199 110.621 132.941 110.136C132.682 109.657 132.333 109.282 131.887 109.024C131.441 108.758 130.93 108.629 130.361 108.629C129.792 108.629 129.281 108.758 128.835 109.024C128.389 109.289 128.033 109.657 127.781 110.136C127.523 110.621 127.393 111.183 127.393 111.83C127.393 112.47 127.523 113.032 127.781 113.517C128.04 114.002 128.395 114.377 128.842 114.636C129.294 114.901 129.798 115.03 130.361 115.03C130.923 115.024 131.434 114.894 131.88 114.636Z" fill="#6B6D6B"/>
<path d="M135.928 109.709C136.283 109.082 136.768 108.59 137.376 108.235C137.99 107.879 138.669 107.705 139.413 107.705C140.292 107.705 141.055 107.918 141.715 108.338C142.368 108.758 142.846 109.36 143.144 110.142H141.883C141.656 109.657 141.34 109.282 140.919 109.024C140.499 108.758 139.995 108.629 139.413 108.629C138.85 108.629 138.346 108.758 137.9 109.024C137.454 109.289 137.105 109.657 136.852 110.136C136.6 110.621 136.471 111.183 136.471 111.83C136.471 112.47 136.6 113.032 136.852 113.511C137.105 113.989 137.454 114.364 137.9 114.623C138.346 114.881 138.85 115.017 139.413 115.017C140.001 115.017 140.499 114.888 140.919 114.629C141.34 114.371 141.663 114.002 141.883 113.517H143.144C142.846 114.287 142.368 114.881 141.715 115.302C141.062 115.722 140.292 115.929 139.413 115.929C138.663 115.929 137.984 115.754 137.376 115.405C136.762 115.056 136.283 114.571 135.928 113.944C135.572 113.317 135.398 112.618 135.398 111.83C135.398 111.041 135.579 110.336 135.928 109.709Z" fill="#6B6D6B"/>
<path d="M145.762 107.808V115.858H144.715V107.808H145.762Z" fill="#6B6D6B"/>
<path d="M152.312 114.067H148.801L148.154 115.858H147.049L149.958 107.853H151.174L154.07 115.858H152.958L152.312 114.067ZM152.008 113.213L150.553 109.146L149.098 113.213H152.008Z" fill="#6B6D6B"/>
<path d="M160.291 107.808V108.661H158.099V115.858H157.045V108.661H154.84V107.808H160.291Z" fill="#6B6D6B"/>
<path d="M162.638 108.661V111.351H165.573V112.218H162.638V114.991H165.916V115.858H161.584V107.795H165.916V108.661H162.638Z" fill="#6B6D6B"/>
<path d="M168.638 115.657C168.217 115.47 167.888 115.205 167.649 114.875C167.409 114.539 167.286 114.151 167.28 113.711H168.399C168.437 114.086 168.593 114.409 168.864 114.662C169.136 114.92 169.536 115.05 170.06 115.05C170.558 115.05 170.952 114.927 171.243 114.675C171.534 114.422 171.677 114.106 171.677 113.711C171.677 113.401 171.593 113.155 171.424 112.961C171.256 112.767 171.043 112.625 170.791 112.521C170.539 112.424 170.196 112.315 169.763 112.198C169.233 112.062 168.806 111.92 168.489 111.784C168.166 111.649 167.894 111.429 167.668 111.131C167.442 110.834 167.325 110.433 167.325 109.935C167.325 109.496 167.435 109.108 167.661 108.771C167.888 108.435 168.198 108.17 168.605 107.989C169.013 107.802 169.472 107.711 169.996 107.711C170.752 107.711 171.366 107.899 171.851 108.28C172.33 108.655 172.601 109.159 172.666 109.78H171.509C171.47 109.47 171.308 109.198 171.024 108.965C170.739 108.733 170.364 108.616 169.892 108.616C169.452 108.616 169.097 108.733 168.819 108.959C168.541 109.185 168.405 109.502 168.405 109.909C168.405 110.2 168.489 110.44 168.651 110.627C168.819 110.815 169.019 110.95 169.265 111.047C169.511 111.144 169.847 111.254 170.287 111.377C170.817 111.526 171.243 111.668 171.567 111.81C171.89 111.952 172.168 112.172 172.401 112.47C172.634 112.767 172.75 113.168 172.75 113.679C172.75 114.073 172.646 114.442 172.44 114.784C172.233 115.134 171.922 115.412 171.515 115.625C171.108 115.838 170.623 115.948 170.073 115.948C169.53 115.935 169.058 115.845 168.638 115.657Z" fill="#6B6D6B"/>
<path d="M124.678 35.2243H124.219L117.365 15.7432C117.805 15.6915 118.154 15.31 118.154 14.8574C118.154 14.4307 117.856 14.0751 117.455 13.9846V13.6742C117.656 13.5966 117.856 13.5126 118.05 13.4156C118.464 13.2087 118.975 12.8078 118.684 12.3617C118.225 11.6634 117.488 12.5298 117.009 12.7044C116.311 12.963 115.574 12.9436 114.843 12.866C113.13 12.6785 111.494 11.8315 109.852 11.353C106.664 10.4285 103.684 9.71076 100.367 9.78835C100.25 9.78835 99.2351 9.85947 98.3752 9.97585C98.3687 9.93706 98.3623 9.89827 98.3493 9.86594C98.6403 9.71076 98.8149 9.50386 98.8149 9.2711C98.8149 9.0448 98.6468 8.84436 98.3752 8.68918C98.4334 8.60513 98.4657 8.50815 98.4657 8.41116C98.4657 8.159 98.2588 7.9327 97.9355 7.79692C98.1748 7.38312 98.3235 6.84 98.3235 6.38094C98.3235 5.71497 98.0002 5.44342 97.5411 5.35936C98.039 5.19125 98.4011 4.71926 98.4011 4.16321C98.4011 3.46492 97.8386 2.9024 97.1403 2.9024C96.442 2.9024 95.8795 3.46492 95.8795 4.16321C95.8795 4.71926 96.2415 5.19125 96.7394 5.35936C96.2868 5.44342 95.957 5.71497 95.957 6.38094C95.957 6.83354 96.1058 7.38312 96.345 7.79692C96.0217 7.93917 95.8148 8.159 95.8148 8.41116C95.8148 8.50815 95.8471 8.60513 95.9053 8.68918C95.6338 8.84436 95.4656 9.0448 95.4656 9.2711C95.4656 9.52326 95.679 9.74955 96.0088 9.90473C96.0023 9.93059 95.9958 9.94999 95.9958 9.97585C95.1359 9.85947 94.1208 9.78835 94.0044 9.78835C90.6875 9.71076 87.7068 10.4285 84.5193 11.353C82.8705 11.8315 81.2412 12.6785 79.5278 12.866C78.7971 12.9501 78.0536 12.963 77.3618 12.7044C76.8833 12.5233 76.1462 11.6634 75.6872 12.3617C75.3962 12.8078 75.907 13.2087 76.3208 13.4156C76.5212 13.5126 76.7217 13.6031 76.9156 13.6742V13.9846C76.5148 14.0751 76.2173 14.4307 76.2173 14.8574C76.2173 15.3165 76.56 15.6915 77.0061 15.7432L70.1525 35.2243H69.6935C69.3896 35.2243 69.1439 35.47 69.1439 35.7739C69.1439 36.0649 69.3702 36.2976 69.6482 36.317C69.8228 38.0951 73.0944 39.5046 77.1096 39.5046C81.1248 39.5046 84.4029 38.0886 84.571 36.317C84.8555 36.2976 85.0753 36.0584 85.0753 35.7739C85.0753 35.47 84.8296 35.2243 84.5257 35.2243H84.0667L77.2195 15.7432C77.6592 15.6915 78.0083 15.31 78.0083 14.8574C78.0083 14.4307 77.7109 14.0751 77.31 13.9846V13.81C82.0235 15.2389 87.1055 10.6483 96.1833 12.7626C96.1833 12.7626 97.1209 13.2927 98.1683 12.7626C107.246 10.6483 112.328 15.2389 117.042 13.81V13.9846C116.641 14.0751 116.343 14.4307 116.343 14.8574C116.343 15.3165 116.686 15.6915 117.132 15.7432L110.279 35.2243H109.819C109.516 35.2243 109.27 35.47 109.27 35.7739C109.27 36.0649 109.496 36.2976 109.774 36.317C109.949 38.0951 113.22 39.5046 117.236 39.5046C121.251 39.5046 124.522 38.0886 124.697 36.317C124.981 36.2976 125.201 36.0584 125.201 35.7739C125.227 35.47 124.981 35.2243 124.678 35.2243ZM76.9221 35.2243H70.5857L76.9221 17.198V35.2243ZM77.323 17.2045L83.6593 35.2308H77.323V17.2045ZM77.6204 14.8574C77.6204 15.129 77.3941 15.3553 77.1225 15.3553C76.851 15.3553 76.6247 15.129 76.6247 14.8574C76.6247 14.5859 76.851 14.3596 77.1225 14.3596C77.3941 14.3596 77.6204 14.5794 77.6204 14.8574ZM117.055 35.2243H110.718L117.055 17.198V35.2243ZM116.757 14.8574C116.757 14.5859 116.977 14.3596 117.255 14.3596C117.527 14.3596 117.753 14.5859 117.753 14.8574C117.753 15.129 117.527 15.3553 117.255 15.3553C116.983 15.3553 116.757 15.129 116.757 14.8574ZM117.455 35.2243V17.2045L123.792 35.2308H117.455V35.2243Z" fill="url(#paint8_linear_1_43)"/>
<path fill-rule="evenodd" clip-rule="evenodd" d="M98.7503 64.016C99.7137 58.6236 102.378 53.8842 106.076 49.5522C103.994 45.5565 102.494 41.3861 101.977 36.9248H102.242C102.63 36.9248 102.947 36.608 102.947 36.22V35.1403C102.947 34.7523 102.63 34.4355 102.242 34.4355H101.925V33.4721H103.069C103.457 33.4721 103.774 33.1553 103.774 32.7674V31.6876C103.774 31.2996 103.457 30.9828 103.069 30.9828H101.925V14.7669C100.949 14.8251 99.9788 14.935 98.9896 15.1549C98.4206 15.3876 97.8257 15.5105 97.205 15.5105C96.4356 15.5105 95.8084 15.323 95.4011 15.1549C94.1791 14.8833 92.9894 14.7604 91.7868 14.7281V30.9893H90.6424C90.2544 30.9893 89.9441 31.3061 89.9441 31.694V32.7738C89.9441 33.1618 90.2609 33.4786 90.6424 33.4786H91.7868V34.442H91.4635C91.0756 34.442 90.7652 34.7588 90.7652 35.1467V36.2265C90.7652 36.6144 91.082 36.9312 91.4635 36.9312H91.7415C91.2113 41.6577 89.7954 45.7892 87.8104 49.5393C91.929 54.02 94.1532 58.8951 95.0067 64.0548C94.7157 64.197 94.5088 64.4944 94.5088 64.8436C94.5088 65.3285 94.9032 65.7229 95.3882 65.7229C95.8602 65.7229 96.2287 65.3544 96.261 64.8888H96.274V47.438C95.7179 47.1987 95.3364 46.6492 95.3364 46.0026C95.3364 45.1427 96.0347 44.4444 96.8947 44.4444C97.7546 44.4444 98.4529 45.1427 98.4529 46.0026C98.4529 46.6298 98.0844 47.1664 97.5542 47.4186V64.8306V64.8759H97.5606C97.5865 65.335 97.9615 65.71 98.4335 65.71C98.9184 65.71 99.3128 65.3156 99.3128 64.8306C99.3128 64.4621 99.0801 64.1453 98.7503 64.016Z" fill="url(#paint9_linear_1_43)"/>
<path d="M135.34 45.8539C132.941 47.5285 132.553 49.3518 132.488 49.8561C132.107 50.0824 131.751 50.2764 131.428 50.4574C131.939 49.6104 132.417 48.7505 132.857 47.8647C133.594 46.3647 134.227 44.8129 134.764 43.2353C134.822 43.0607 134.88 42.8861 134.939 42.7116C135.352 41.412 135.96 40.177 136.762 39.0714C136.814 39.0003 136.872 38.9227 136.924 38.8516C143.648 35.1661 140.564 27.6659 140.564 27.6659C140.667 29.3212 139.064 30.5884 137.422 33.6079C136.025 36.1812 136.49 37.9852 136.665 38.4636C136.322 38.9938 135.999 39.4593 135.721 39.8473C135.831 39.3623 135.934 38.8774 136.025 38.3925C136.342 36.7567 136.523 35.095 136.6 33.4333L136.626 32.8126C136.639 32.6057 136.646 32.3988 136.639 32.1919V30.944C136.633 30.5302 136.6 30.1164 136.587 29.6962C136.575 29.4893 136.575 29.2824 136.555 29.0755L136.497 28.4548C136.458 28.0409 136.484 27.6271 136.562 27.2263L137.04 24.8534C141.941 18.9567 136.316 13.1117 136.316 13.1117C137.021 14.6182 135.993 16.3769 135.579 19.7972C135.223 22.7003 136.322 24.2068 136.659 24.5947C136.523 25.2801 136.374 25.8879 136.251 26.3728L136.199 25.9849C136.154 25.5711 136.057 25.1702 135.98 24.7629L135.863 24.1551C135.824 23.9482 135.786 23.7477 135.734 23.5473C135.534 22.7456 135.352 21.9309 135.094 21.1485L134.913 20.5537L134.822 20.2563L134.719 19.9653L134.299 18.795C134.034 18.1161 133.755 17.4437 133.465 16.7713C132.934 15.5751 132.605 14.2949 132.527 12.9889C132.508 12.685 132.488 12.3875 132.456 12.0966C135.094 4.9003 127.833 1.27952 127.833 1.27952C129.003 2.46274 128.628 4.4671 129.378 7.82278C130.018 10.6806 131.557 11.7281 132.003 11.9802C132.146 12.9565 132.223 13.7777 132.262 14.3466C132.249 14.3273 132.243 14.3079 132.23 14.282L131.939 13.7389C131.842 13.5578 131.725 13.3833 131.622 13.2087L130.982 12.1483L130.29 11.1203C130.173 10.9522 130.064 10.7776 129.941 10.6095L129.572 10.1116C129.191 9.58145 128.79 9.07066 128.37 8.5728C127.788 7.83571 126.992 6.77534 126.301 6.00593C125.977 5.64385 125.693 5.24944 125.486 4.80978C122.466 -1.55891 115.083 0.232079 115.083 0.232079C116.738 0.33553 117.798 2.08126 120.591 4.09209C122.803 5.67618 124.548 5.58566 125.188 5.47574C125.266 5.5016 125.357 5.52747 125.434 5.55333L126.281 6.43913C127.387 7.65467 128.441 8.90902 129.365 10.2668L129.721 10.7647C129.837 10.9328 129.941 11.1073 130.051 11.2819L130.71 12.3164L130.988 12.8014C130.251 12.1806 129.514 11.6375 128.783 11.1655C124.801 4.61581 117.443 8.02968 117.443 8.02968C119.091 7.85511 120.43 9.39394 123.52 10.9004C126.152 12.1806 127.93 11.6311 128.402 11.4436C129.456 12.0643 130.335 12.6656 130.839 13.0277C131.156 13.2604 131.428 13.5514 131.609 13.907V13.9134L131.887 14.463C132.65 15.9113 133.264 17.4308 133.82 18.9631L134.202 20.127L134.299 20.4179L134.383 20.7153L134.544 21.3037C134.777 22.0861 134.939 22.8878 135.113 23.6831C135.159 23.8835 135.197 24.084 135.23 24.2844V24.2973C134.732 23.5344 134.215 22.8361 133.678 22.2024C131.79 14.7734 123.753 15.8855 123.753 15.8855C125.382 16.2023 126.21 18.0644 128.725 20.4115C130.865 22.4093 132.727 22.4029 133.238 22.3576C133.814 22.9848 134.286 23.5473 134.635 23.9805C135.12 24.5818 135.437 25.306 135.508 26.0754C135.508 26.0819 135.508 26.0819 135.508 26.0883L135.643 27.3039L135.676 27.6077L135.695 27.9116L135.734 28.5194L135.773 29.1272C135.786 29.3276 135.786 29.5345 135.792 29.735C135.799 30.1423 135.812 30.5496 135.812 30.9505L135.779 32.166C135.779 32.3665 135.766 32.5734 135.747 32.7738L135.702 33.3816C135.637 34.2609 135.54 35.1338 135.417 36.0067C135.243 35.276 135.042 34.5777 134.816 33.9247C135.702 26.3081 127.801 24.4848 127.801 24.4848C129.21 25.3642 129.32 27.4008 130.833 30.485C132.12 33.1165 133.865 33.776 134.35 33.9118C134.538 34.3838 134.699 34.8234 134.835 35.2114C135.171 36.1618 135.243 37.1899 135.023 38.1791C135.023 38.1856 135.023 38.1921 135.016 38.1921C134.667 39.7761 134.24 41.3408 133.678 42.8538C133.122 44.3732 132.462 45.8539 131.719 47.2828C131.499 47.6966 131.266 48.1039 131.027 48.5113C131.163 47.6513 131.24 46.8237 131.273 46.0349C134.887 39.2783 128.201 34.6747 128.201 34.6747C129.191 36.0067 128.544 37.9399 128.822 41.3667C129.055 44.2827 130.439 45.5371 130.839 45.8474C130.839 45.9573 130.839 46.0672 130.839 46.1772C130.827 48.0328 130.258 49.8497 129.184 51.3626C129.178 51.3691 129.171 51.3756 129.171 51.3885C128.24 52.7075 127.193 53.936 126.094 55.1127C125.809 55.3972 125.544 55.7011 125.253 55.9791L124.38 56.8132C124.367 56.8003 124.367 56.8067 124.354 56.7938C124.619 56.3218 124.859 55.8563 125.072 55.3908C131.027 50.5609 126.643 43.7331 126.643 43.7331C127.038 45.3431 125.693 46.8755 124.619 50.1471C123.708 52.9273 124.49 54.6149 124.742 55.061C124.568 55.4813 124.4 55.8692 124.238 56.2119C123.85 57.0524 123.281 57.8024 122.55 58.3714C122.544 58.3714 122.544 58.3779 122.538 58.3779C121.283 59.3801 119.971 60.3176 118.587 61.1258C117.785 61.6043 116.964 62.0439 116.124 62.4642C116.473 62.1086 116.796 61.7465 117.093 61.3844C122.796 58.7529 120.695 52.4424 120.695 52.4424C120.682 53.8002 119.305 54.7442 117.792 57.1236C116.505 59.1473 116.783 60.6473 116.899 61.0482C116.712 61.2939 116.537 61.5202 116.369 61.7271C115.826 62.4125 115.121 62.9556 114.32 63.2983C114.313 63.2983 114.313 63.3047 114.307 63.3047C112.833 63.9254 111.32 64.4427 109.781 64.8694L109.761 64.8759H109.755C109.341 64.9923 109.031 65.3673 109.018 65.8005C108.998 66.544 109.684 67.016 110.33 66.8221C111.947 66.3307 113.531 65.7358 115.07 65.044C116.609 64.3457 118.089 63.531 119.512 62.6388C120.372 62.1021 121.199 61.5202 122.007 60.906C123.1 60.0719 124.413 59.574 125.783 59.4577C132.941 62.2056 136.671 54.9963 136.671 54.9963C135.475 56.1472 133.471 55.7464 130.102 56.4447C127.238 57.0395 126.165 58.5654 125.906 59.0051C125.214 59.0956 124.607 59.1538 124.109 59.1861C124.561 58.7852 125.007 58.3714 125.447 57.9576L126.333 57.0654C126.63 56.7744 126.902 56.4511 127.186 56.1408C128.305 54.8864 129.359 53.5804 130.29 52.1838C130.309 52.1579 130.329 52.1256 130.348 52.0997C130.807 51.4144 131.428 50.8648 132.158 50.4962C132.275 50.438 132.398 50.3734 132.514 50.3087C140.176 50.0242 140.771 41.9292 140.771 41.9292C140.156 43.468 138.165 43.8883 135.34 45.8539Z" fill="url(#paint10_linear_1_43)"/>
<path d="M59.3161 45.8539C61.7148 47.5285 62.1028 49.3518 62.1674 49.8561C62.5489 50.0824 62.9045 50.2764 63.2278 50.4574C62.717 49.6104 62.2385 48.7505 61.7989 47.8647C61.0618 46.3647 60.4282 44.8129 59.8915 43.2353C59.8333 43.0607 59.7751 42.8861 59.7169 42.7116C59.2967 41.412 58.6954 40.177 57.8936 39.0714C57.8419 39.0003 57.7837 38.9227 57.732 38.8516C51.0077 35.1661 54.0918 27.6659 54.0918 27.6659C53.9883 29.3212 55.5918 30.5884 57.2341 33.6079C58.6307 36.1812 58.1652 37.9852 57.9906 38.4636C58.3333 38.9938 58.6566 39.4593 58.9346 39.8473C58.8247 39.3623 58.7212 38.8774 58.6307 38.3925C58.3139 36.7567 58.1328 35.095 58.0552 33.4333L58.0294 32.8126C58.0165 32.6057 58.01 32.3988 58.0165 32.1919V30.944C58.0229 30.5302 58.0552 30.1164 58.0682 29.6962C58.0811 29.4893 58.0811 29.2824 58.1005 29.0755L58.1587 28.4548C58.1975 28.0409 58.1716 27.6271 58.094 27.2263L57.6156 24.8534C52.7146 18.9567 58.3397 13.1117 58.3397 13.1117C57.635 14.6182 58.663 16.3769 59.0768 19.7972C59.4324 22.7003 58.3333 24.2068 57.9971 24.5947C58.1328 25.2801 58.2815 25.8879 58.4044 26.3728L58.4561 25.9849C58.5014 25.5711 58.5984 25.1702 58.676 24.7629L58.7923 24.1551C58.8311 23.9482 58.8699 23.7477 58.9216 23.5473C59.1221 22.7456 59.3031 21.9309 59.5618 21.1485L59.7428 20.5537L59.8333 20.2563L59.9368 19.9653L60.357 18.795C60.6221 18.1161 60.9001 17.4437 61.1911 16.7713C61.7213 15.5751 62.051 14.2949 62.1286 12.9889C62.148 12.685 62.1674 12.3875 62.1997 12.0966C59.5617 4.9003 66.8227 1.27952 66.8227 1.27952C65.6524 2.46274 66.0274 4.4671 65.2774 7.82278C64.6373 10.6806 63.0985 11.7281 62.6523 11.9802C62.5101 12.9565 62.439 13.7777 62.3937 14.3466C62.4066 14.3273 62.4131 14.3079 62.426 14.282L62.717 13.7389C62.814 13.5578 62.9304 13.3833 63.0338 13.2087L63.6739 12.1483L64.3658 11.1203C64.4821 10.9522 64.592 10.7776 64.7149 10.6095L65.0834 10.1116C65.4649 9.58145 65.8658 9.07066 66.2861 8.5728C66.868 7.83571 67.6632 6.77534 68.3551 6.00593C68.6784 5.64385 68.9628 5.24944 69.1697 4.80978C72.1892 -1.55891 79.573 0.232079 79.573 0.232079C77.9178 0.33553 76.8574 2.08126 74.0643 4.09209C71.853 5.67618 70.1073 5.58566 69.4672 5.47574C69.3896 5.5016 69.2991 5.52747 69.2215 5.55333L68.3745 6.43913C67.2688 7.65467 66.2149 8.90902 65.2903 10.2668L64.9347 10.7647C64.8183 10.9328 64.7149 11.1073 64.605 11.2819L63.9455 12.3164L63.6675 12.8014C64.4045 12.1806 65.1416 11.6375 65.8722 11.1655C69.8551 4.61581 77.213 8.02968 77.213 8.02968C75.5643 7.85511 74.2259 9.39394 71.1353 10.9004C68.5038 12.1806 66.7257 11.6311 66.2537 11.4436C65.1998 12.0643 64.3205 12.6656 63.8162 13.0277C63.4993 13.2604 63.2278 13.5514 63.0468 13.907V13.9134L62.7687 14.463C62.0058 15.9113 61.3915 17.4308 60.8355 18.9631L60.454 20.127L60.357 20.4179L60.2794 20.7153L60.1178 21.3037C59.885 22.0861 59.7234 22.8878 59.5488 23.6831C59.5036 23.8835 59.4648 24.084 59.4324 24.2844V24.2973C59.9303 23.5344 60.4475 22.8361 60.9842 22.2024C62.8722 14.7734 70.909 15.8855 70.909 15.8855C69.2797 16.2023 68.4521 18.0644 65.9369 20.4115C63.7968 22.4093 61.9347 22.4029 61.4239 22.3576C60.8484 22.9848 60.3764 23.5473 60.0273 23.9805C59.5424 24.5818 59.2255 25.306 59.1544 26.0754C59.1544 26.0819 59.1544 26.0819 59.1544 26.0883L59.0186 27.3039L58.9863 27.6077L58.9669 27.9116L58.9281 28.5194L58.8893 29.1272C58.8764 29.3276 58.8764 29.5345 58.8699 29.735C58.8505 30.1358 58.8376 30.5367 58.8376 30.944L58.8699 32.1596C58.8699 32.36 58.8829 32.5669 58.9023 32.7674L58.9475 33.3751C59.0122 34.2545 59.1092 35.1273 59.232 36.0002C59.4066 35.2696 59.607 34.5713 59.8333 33.9182C58.9475 26.3017 66.8486 24.4784 66.8486 24.4784C65.439 25.3577 65.3291 27.3944 63.8162 30.4785C62.5295 33.11 60.7838 33.7695 60.2988 33.9053C60.1113 34.3773 59.9497 34.817 59.8139 35.2049C59.4777 36.1554 59.4066 37.1834 59.6264 38.1727C59.6264 38.1791 59.6264 38.1856 59.6329 38.1856C59.982 39.7697 60.4088 41.3344 60.9713 42.8473C61.5273 44.3668 62.1868 45.8474 62.9304 47.2763C63.1502 47.6901 63.383 48.0975 63.6222 48.5048C63.4864 47.6449 63.4088 46.8173 63.3765 46.0285C59.7622 39.2718 66.4477 34.6683 66.4477 34.6683C65.4584 36.0002 66.105 37.9334 65.827 41.3602C65.5942 44.2763 64.2106 45.5306 63.8097 45.841C63.8097 45.9509 63.8097 46.0608 63.8097 46.1707C63.8226 48.0263 64.3916 49.8432 65.4649 51.3562C65.4714 51.3626 65.4778 51.3691 65.4778 51.382C66.4089 52.701 67.4563 53.9295 68.5555 55.1063C68.84 55.3908 69.1051 55.6946 69.396 55.9727L70.2689 56.8067C70.2818 56.7938 70.2754 56.8003 70.2948 56.7873C70.0297 56.3153 69.7904 55.8498 69.5771 55.3843C63.6222 50.5544 68.0059 43.7267 68.0059 43.7267C67.6115 45.3366 68.9564 46.869 70.0297 50.1406C70.9413 52.9209 70.159 54.6084 69.9068 55.0545C70.0814 55.4748 70.2495 55.8627 70.4112 56.2054C70.7991 57.046 71.3681 57.796 72.0987 58.365C72.1052 58.365 72.1052 58.3714 72.1116 58.3714C73.366 59.3736 74.6785 60.3111 76.0622 61.1193C76.8639 61.5978 77.685 62.0375 78.5256 62.4577C78.1764 62.1021 77.8531 61.74 77.5557 61.378C71.853 58.7464 73.9543 52.4359 73.9543 52.4359C73.9673 53.7937 75.3445 54.7377 76.8574 57.1171C78.1441 59.1408 77.8661 60.6409 77.7497 61.0418C77.9372 61.2874 78.1118 61.5137 78.2799 61.7206C78.823 62.406 79.5278 62.9491 80.3295 63.2918C80.336 63.2918 80.336 63.2983 80.3424 63.2983C81.8166 63.919 83.3296 64.4362 84.8684 64.863L84.8878 64.8694H84.8943C85.3081 64.9858 85.6184 65.3608 85.6314 65.794C85.6508 66.5376 84.9654 67.0096 84.3188 66.8156C82.7024 66.3242 81.1183 65.7294 79.5795 65.0375C78.0407 64.3392 76.56 63.5246 75.1376 62.6323C74.2776 62.0957 73.45 61.5137 72.6418 60.8995C71.5491 60.0654 70.2366 59.5676 68.8659 59.4512C61.7084 62.1991 57.9777 54.9899 57.9777 54.9899C59.1738 56.1408 61.1782 55.7399 64.5468 56.4382C67.4111 57.033 68.4844 58.5589 68.743 58.9986C69.4348 59.0891 70.0426 59.1473 70.5405 59.1796C70.0879 58.7788 69.6417 58.365 69.2021 57.9512L68.3163 57.0589C68.0189 56.7679 67.7473 56.4447 67.4628 56.1343C66.3442 54.88 65.2903 53.5739 64.3593 52.1773C64.3399 52.1514 64.3205 52.1191 64.3011 52.0933C63.842 51.4079 63.2213 50.8583 62.4907 50.4898C62.3679 50.4316 62.2515 50.3669 62.1351 50.3023C54.4474 50.0372 53.8461 41.9421 53.8461 41.9421C54.4991 43.468 56.497 43.8883 59.3161 45.8539Z" fill="url(#paint11_linear_1_43)"/>
<defs>
<linearGradient id="paint0_linear_1_43" x1="9.25077" y1="43.4617" x2="9.25077" y2="109.656" gradientUnits="userSpaceOnUse">
<stop stop-color="#FAE894"/>
<stop offset="0.8939" stop-color="#977A1C"/>
</linearGradient>
<linearGradient id="paint1_linear_1_43" x1="33.4925" y1="43.4617" x2="33.4925" y2="109.656" gradientUnits="userSpaceOnUse">
<stop stop-color="#FAE894"/>
<stop offset="0.8939" stop-color="#977A1C"/>
</linearGradient>
<linearGradient id="paint2_linear_1_43" x1="56.643" y1="43.4617" x2="56.643" y2="109.656" gradientUnits="userSpaceOnUse">
<stop stop-color="#FAE894"/>
<stop offset="0.8939" stop-color="#977A1C"/>
</linearGradient>
<linearGradient id="paint3_linear_1_43" x1="87.0278" y1="43.4617" x2="87.0278" y2="109.656" gradientUnits="userSpaceOnUse">
<stop stop-color="#FAE894"/>
<stop offset="0.8939" stop-color="#977A1C"/>
</linearGradient>
<linearGradient id="paint4_linear_1_43" x1="109.417" y1="43.4617" x2="109.417" y2="109.656" gradientUnits="userSpaceOnUse">
<stop stop-color="#FAE894"/>
<stop offset="0.8939" stop-color="#977A1C"/>
</linearGradient>
<linearGradient id="paint5_linear_1_43" x1="134.295" y1="43.4617" x2="134.295" y2="109.656" gradientUnits="userSpaceOnUse">
<stop stop-color="#FAE894"/>
<stop offset="0.8939" stop-color="#977A1C"/>
</linearGradient>
<linearGradient id="paint6_linear_1_43" x1="160.337" y1="43.4617" x2="160.337" y2="109.656" gradientUnits="userSpaceOnUse">
<stop stop-color="#FAE894"/>
<stop offset="0.8939" stop-color="#977A1C"/>
</linearGradient>
<linearGradient id="paint7_linear_1_43" x1="184.821" y1="43.4617" x2="184.821" y2="109.656" gradientUnits="userSpaceOnUse">
<stop stop-color="#FAE894"/>
<stop offset="0.8939" stop-color="#977A1C"/>
</linearGradient>
<linearGradient id="paint8_linear_1_43" x1="43.8147" y1="-21.9572" x2="136.405" y2="63.7067" gradientUnits="userSpaceOnUse">
<stop stop-color="#FAE894"/>
<stop offset="0.6341" stop-color="#977A1C"/>
<stop offset="1" stop-color="#FAE894"/>
</linearGradient>
<linearGradient id="paint9_linear_1_43" x1="38.0209" y1="-15.6949" x2="130.611" y2="69.969" gradientUnits="userSpaceOnUse">
<stop stop-color="#FAE894"/>
<stop offset="0.6341" stop-color="#977A1C"/>
<stop offset="1" stop-color="#FAE894"/>
</linearGradient>
<linearGradient id="paint10_linear_1_43" x1="50.5656" y1="-29.2538" x2="143.155" y2="56.4101" gradientUnits="userSpaceOnUse">
<stop stop-color="#FAE894"/>
<stop offset="0.6341" stop-color="#977A1C"/>
<stop offset="1" stop-color="#FAE894"/>
</linearGradient>
<linearGradient id="paint11_linear_1_43" x1="30.4232" y1="-7.48296" x2="123.013" y2="78.181" gradientUnits="userSpaceOnUse">
<stop stop-color="#FAE894"/>
<stop offset="0.6341" stop-color="#977A1C"/>
<stop offset="1" stop-color="#FAE894"/>
</linearGradient>
</defs>
</svg>
